<svg width="224" height="32" viewBox="0 0 224 32" fill="none" xmlns="http://www.w3.org/2000/svg">
<path d="M18.3065 4.68002L20.6532 9.37335C20.9732 10.0267 21.8265 10.6534 22.5465 10.7734L26.7999 11.48C29.5199 11.9334 30.1599 13.9067 28.1999 15.8534L24.8932 19.16C24.3332 19.72 24.0265 20.8 24.1999 21.5734L25.1465 25.6667C25.8932 28.9067 24.1732 30.16 21.3065 28.4667L17.3199 26.1067C16.5999 25.68 15.4132 25.68 14.6799 26.1067L10.6932 28.4667C7.83988 30.16 6.10655 28.8934 6.85321 25.6667L7.79988 21.5734C7.97321 20.8 7.66654 19.72 7.10654 19.16L3.79988 15.8534C1.85321 13.9067 2.47988 11.9334 5.19988 11.48L9.45321 10.7734C10.1599 10.6534 11.0132 10.0267 11.3332 9.37335L13.6799 4.68002C14.9599 2.13335 17.0399 2.13335 18.3065 4.68002Z" fill="#FFC522"/>
<path d="M66.3065 4.68002L68.6532 9.37335C68.9732 10.0267 69.8265 10.6534 70.5465 10.7734L74.7999 11.48C77.5199 11.9334 78.1599 13.9067 76.1999 15.8534L72.8932 19.16C72.3332 19.72 72.0265 20.8 72.1999 21.5734L73.1465 25.6667C73.8932 28.9067 72.1732 30.16 69.3065 28.4667L65.3199 26.1067C64.5999 25.68 63.4132 25.68 62.6799 26.1067L58.6932 28.4667C55.8399 30.16 54.1065 28.8934 54.8532 25.6667L55.7999 21.5734C55.9732 20.8 55.6665 19.72 55.1065 19.16L51.7999 15.8534C49.8532 13.9067 50.4799 11.9334 53.1999 11.48L57.4532 10.7734C58.1599 10.6534 59.0132 10.0267 59.3332 9.37335L61.6799 4.68002C62.9599 2.13335 65.0399 2.13335 66.3065 4.68002Z" fill="#FFC522"/>
<path d="M114.307 4.68002L116.653 9.37335C116.973 10.0267 117.827 10.6534 118.547 10.7734L122.8 11.48C125.52 11.9334 126.16 13.9067 124.2 15.8534L120.893 19.16C120.333 19.72 120.027 20.8 120.2 21.5734L121.147 25.6667C121.893 28.9067 120.173 30.16 117.307 28.4667L113.32 26.1067C112.6 25.68 111.413 25.68 110.68 26.1067L106.693 28.4667C103.84 30.16 102.107 28.8934 102.853 25.6667L103.8 21.5734C103.973 20.8 103.667 19.72 103.107 19.16L99.7999 15.8534C97.8532 13.9067 98.4799 11.9334 101.2 11.48L105.453 10.7734C106.16 10.6534 107.013 10.0267 107.333 9.37335L109.68 4.68002C110.96 2.13335 113.04 2.13335 114.307 4.68002Z" fill="#FFC522"/>
<path d="M162.307 4.68002L164.653 9.37335C164.973 10.0267 165.827 10.6534 166.547 10.7734L170.8 11.48C173.52 11.9334 174.16 13.9067 172.2 15.8534L168.893 19.16C168.333 19.72 168.027 20.8 168.2 21.5734L169.147 25.6667C169.893 28.9067 168.173 30.16 165.307 28.4667L161.32 26.1067C160.6 25.68 159.413 25.68 158.68 26.1067L154.693 28.4667C151.84 30.16 150.107 28.8934 150.853 25.6667L151.8 21.5734C151.973 20.8 151.667 19.72 151.107 19.16L147.8 15.8534C145.853 13.9067 146.48 11.9334 149.2 11.48L153.453 10.7734C154.16 10.6534 155.013 10.0267 155.333 9.37335L157.68 4.68002C158.96 2.13335 161.04 2.13335 162.307 4.68002Z" fill="#FFC522"/>
<path d="M210.307 4.68002L212.653 9.37335C212.973 10.0267 213.827 10.6534 214.547 10.7734L218.8 11.48C221.52 11.9334 222.16 13.9067 220.2 15.8534L216.893 19.16C216.333 19.72 216.027 20.8 216.2 21.5734L217.147 25.6667C217.893 28.9067 216.173 30.16 213.307 28.4667L209.32 26.1067C208.6 25.68 207.413 25.68 206.68 26.1067L202.693 28.4667C199.84 30.16 198.107 28.8934 198.853 25.6667L199.8 21.5734C199.973 20.8 199.667 19.72 199.107 19.16L195.8 15.8534C193.853 13.9067 194.48 11.9334 197.2 11.48L201.453 10.7734C202.16 10.6534 203.013 10.0267 203.333 9.37335L205.68 4.68002C206.96 2.13335 209.04 2.13335 210.307 4.68002Z" fill="#FFC522"/>
</svg>
