<svg width="52" height="52" viewBox="0 0 52 52" fill="none" xmlns="http://www.w3.org/2000/svg">
<path d="M0 23.7998C0 14.6343 0 10.0515 2.06303 6.68498C3.2174 4.80121 4.80121 3.2174 6.68498 2.06303C10.0515 0 14.6343 0 23.7999 0H28.2002C37.3657 0 41.9485 0 45.315 2.06303C47.1988 3.2174 48.7826 4.80121 49.937 6.68498C52 10.0515 52 14.6343 52 23.7999V28.2002C52 37.3657 52 41.9485 49.937 45.315C48.7826 47.1988 47.1988 48.7826 45.315 49.937C41.9485 52 37.3657 52 28.2001 52H23.7998C14.6343 52 10.0515 52 6.68498 49.937C4.80121 48.7826 3.2174 47.1988 2.06303 45.315C0 41.9485 0 37.3657 0 28.2001V23.7998Z" fill="#FFBB5D"/>
<path d="M33.8197 40.9104V35.0717H18.8057V40.9104L26.3127 47.5833L33.8197 40.9104Z" fill="#FFD7A3"/>
<path fill-rule="evenodd" clip-rule="evenodd" d="M47.9998 47.7982C47.1988 48.6157 46.2977 49.3348 45.315 49.937C41.9485 52 37.3657 52 28.2002 52H23.7999C14.6343 52 10.0516 52 6.68501 49.937C5.9505 49.4869 5.2616 48.9715 4.62598 48.3985V46.8895C4.62598 45.3412 5.69112 43.9964 7.1983 43.6417L17.5198 41.2131C17.813 41.144 18.0712 40.9985 18.2792 40.8027L26.313 45.9152L34.6728 41.0386C34.807 41.1141 34.9503 41.1764 35.1063 41.213L45.4278 43.6416C46.9349 43.9962 48 45.3411 47.9998 46.8895V47.7982Z" fill="#8B63E7"/>
<path d="M18.8057 35.0716V41.232C28.2625 44.6392 33.8197 36.1118 33.8197 36.1118V35.0715H18.8057V35.0716Z" fill="#F0C290"/>
<path d="M15.4697 15.8871L16.1966 31.8782C16.2644 33.372 16.9969 34.7574 18.1932 35.6546L21.6421 38.2413C22.5084 38.891 23.562 39.2423 24.6449 39.2423H27.9814C29.0643 39.2423 30.118 38.8911 30.9843 38.2413L34.4331 35.6546C35.6294 34.7573 36.362 33.3721 36.4298 31.8782L37.1567 15.8871C37.1566 15.8871 15.4697 15.8871 15.4697 15.8871Z" fill="#FFE1B2"/>
<path fill-rule="evenodd" clip-rule="evenodd" d="M28.1837 51.9997H24.4424L24.7491 47.5833H27.877L28.1837 51.9997Z" fill="#5B5D6E"/>
<path d="M28.3981 45.915H24.2275V47.4849C24.2275 48 24.645 48.4174 25.1601 48.4174H27.4655C27.9806 48.4174 28.3981 48 28.3981 47.4849V45.915H28.3981Z" fill="#515262"/>
<path d="M18.6888 39.0533L26.313 45.915C26.313 45.915 24.1778 46.9929 21.5429 49.1654C20.9994 49.6135 20.1772 49.432 19.8857 48.7907L16.3037 40.9104L17.4369 39.2107C17.7189 38.7874 18.3108 38.7131 18.6888 39.0533Z" fill="white"/>
<path d="M33.9367 39.0533L26.3125 45.915C26.3125 45.915 28.4477 46.9929 31.0826 49.1654C31.6261 49.6135 32.4483 49.432 32.7398 48.7907L36.3218 40.9104L35.1886 39.2107C34.9066 38.7874 34.3147 38.7131 33.9367 39.0533Z" fill="white"/>
<path d="M31.3701 10.3611L32.1521 15.8871C35.7216 16.601 36.236 22.2028 36.3101 23.8028C36.3235 24.0932 36.4162 24.3736 36.5737 24.6178L37.9357 26.7305C37.9357 26.7305 37.4695 23.2376 39.6039 20.8917C39.604 20.8917 40.3369 7.02459 31.3701 10.3611Z" fill="#4E1E30"/>
<path d="M38.7721 26.3749L37.8305 30.1415C37.7189 30.588 37.3178 30.9011 36.8575 30.9011C36.3517 30.9011 35.9252 30.5245 35.8624 30.0226L35.3808 26.1701C35.2519 25.1389 36.0559 24.2281 37.0951 24.2281H37.0959C38.22 24.2282 39.0447 25.2844 38.7721 26.3749Z" fill="#FFE1B2"/>
<path d="M16.2696 8.86654L17.5033 9.70934C11.9253 13.8278 12.9678 20.8917 12.9678 20.8917C14.636 22.5599 14.636 26.7305 14.636 26.7305L16.3042 25.0623C16.3042 25.0623 15.6604 20.2433 18.8065 18.3894C21.7259 16.669 24.2804 17.5553 26.887 17.5553C33.8727 17.5553 35.8277 14.9226 35.4888 11.7165C35.3134 10.0576 32.777 6.60189 26.3136 6.71179C23.7052 6.75611 18.8067 7.54589 16.2696 8.86654Z" fill="#66273F"/>
<path d="M15.783 16.8255C15.783 16.8255 14.8967 13.3326 17.5034 9.70947C11.9253 13.8279 12.9678 20.8918 12.9678 20.8918C14.636 22.56 14.636 26.7306 14.636 26.7306L16.3042 25.0624C16.3042 25.0624 15.6604 20.2434 18.8065 18.3895C21.7259 16.6692 24.2804 17.5554 26.887 17.5554C28.0231 17.5554 29.0131 17.4794 29.895 17.349C24.5152 17.5293 21.3439 13.4542 15.783 16.8255Z" fill="#4E1E30"/>
<path d="M13.8542 26.3749L14.7958 30.1415C14.9074 30.588 15.3085 30.9011 15.7687 30.9011C16.2746 30.9011 16.7011 30.5245 16.7639 30.0226L17.2455 26.1701C17.3744 25.1389 16.5704 24.2281 15.5312 24.2281H15.5304C14.4063 24.2282 13.5816 25.2844 13.8542 26.3749Z" fill="#FFE1B2"/>
</svg>
