<svg width="13" height="16" viewBox="0 0 13 16" fill="none" xmlns="http://www.w3.org/2000/svg">
<path fill-rule="evenodd" clip-rule="evenodd" d="M2.33027 2.43013C2.50961 2.2508 2.75283 2.15005 3.00645 2.15005H11.1402V10.5875H3.00645C2.67331 10.5875 2.34762 10.6596 2.0502 10.7951V3.1063C2.0502 2.85269 2.15094 2.60946 2.33027 2.43013ZM2.0502 12.8938C2.0502 13.1474 2.15094 13.3906 2.33027 13.57C2.50961 13.7493 2.75283 13.85 3.00645 13.85H11.1402V11.9375H3.00645C2.75283 11.9375 2.50961 12.0383 2.33027 12.2176C2.15094 12.397 2.0502 12.6402 2.0502 12.8938ZM12.4902 11.2625V1.47505C12.4902 1.10226 12.188 0.800049 11.8152 0.800049H3.00645C2.39479 0.800049 1.80819 1.04303 1.37568 1.47553C0.943175 1.90804 0.700195 2.49464 0.700195 3.1063V12.8938C0.700195 13.5055 0.943175 14.0921 1.37568 14.5246C1.80819 14.9571 2.39479 15.2 3.00645 15.2H11.8152C12.188 15.2 12.4902 14.8978 12.4902 14.525V11.2625Z" fill="#818386"/>
</svg>
