<svg width="20" height="20" viewBox="0 0 20 20" fill="none" xmlns="http://www.w3.org/2000/svg">
<path fill-rule="evenodd" clip-rule="evenodd" d="M4.8112 3.8112C5.01046 3.61194 5.28071 3.5 5.5625 3.5H14.6V12.875H5.5625C5.19235 12.875 4.83047 12.9551 4.5 13.1057V4.5625C4.5 4.28071 4.61194 4.01046 4.8112 3.8112ZM4.5 15.4375C4.5 15.7193 4.61194 15.9895 4.8112 16.1888C5.01046 16.3881 5.28071 16.5 5.5625 16.5H14.6V14.375H5.5625C5.28071 14.375 5.01046 14.4869 4.8112 14.6862C4.61194 14.8855 4.5 15.1557 4.5 15.4375ZM16.1 13.625V2.75C16.1 2.33579 15.7642 2 15.35 2H5.5625C4.88288 2 4.2311 2.26998 3.75054 2.75054C3.26998 3.2311 3 3.88288 3 4.5625V15.4375C3 16.1171 3.26998 16.7689 3.75054 17.2495C4.2311 17.73 4.88288 18 5.5625 18H15.35C15.7642 18 16.1 17.6642 16.1 17.25V13.625Z" fill="#818386"/>
</svg>
