<svg width="18" height="18" viewBox="0 0 18 18" fill="none" xmlns="http://www.w3.org/2000/svg">
<path fill-rule="evenodd" clip-rule="evenodd" d="M4.48948 0.200195C4.94511 0.200195 5.31448 0.56956 5.31448 1.0252V1.57949H8.17519V1.0252C8.17519 0.56956 8.54456 0.200195 9.00019 0.200195C9.45583 0.200195 9.82519 0.56956 9.82519 1.0252V1.57949H12.5752V1.0252C12.5752 0.56956 12.9446 0.200195 13.4002 0.200195C13.8558 0.200195 14.2252 0.56956 14.2252 1.0252V1.57949H14.7752C16.4459 1.57949 17.8002 2.93383 17.8002 4.60449V8.00762C17.8002 8.46326 17.4308 8.83262 16.9752 8.83262C16.5196 8.83262 16.1502 8.46326 16.1502 8.00762V4.60449C16.1502 3.8451 15.5346 3.22949 14.7752 3.22949H14.2252V3.77673C14.2252 4.23237 13.8558 4.60173 13.4002 4.60173C12.9446 4.60173 12.5752 4.23237 12.5752 3.77673V3.22949H9.82519V3.77673C9.82519 4.23237 9.45583 4.60173 9.00019 4.60173C8.54456 4.60173 8.17519 4.23237 8.17519 3.77673V3.22949H5.31448V3.77673C5.31448 4.23237 4.94511 4.60173 4.48948 4.60173C4.03384 4.60173 3.66448 4.23237 3.66448 3.77673V3.22949H3.2252C2.4658 3.22949 1.8502 3.8451 1.8502 4.60449V14.7795C1.8502 15.5389 2.4658 16.1545 3.2252 16.1545H8.00332C8.45895 16.1545 8.82832 16.5239 8.82832 16.9795C8.82832 17.4351 8.45895 17.8045 8.00332 17.8045H3.2252C1.55453 17.8045 0.200195 16.4502 0.200195 14.7795V4.60449C0.200195 2.93383 1.55453 1.57949 3.2252 1.57949H3.66448V1.0252C3.66448 0.56956 4.03384 0.200195 4.48948 0.200195ZM5.2822 7.40949C5.2822 7.83475 4.93746 8.17949 4.5122 8.17949C4.08694 8.17949 3.7422 7.83475 3.7422 7.40949C3.7422 6.98423 4.08694 6.63949 4.5122 6.63949C4.93746 6.63949 5.2822 6.98423 5.2822 7.40949ZM7.48219 8.17949C7.90745 8.17949 8.25219 7.83475 8.25219 7.40949C8.25219 6.98423 7.90745 6.63949 7.48219 6.63949C7.05693 6.63949 6.71219 6.98423 6.71219 7.40949C6.71219 7.83475 7.05693 8.17949 7.48219 8.17949ZM5.2822 10.4125C5.2822 10.8378 4.93746 11.1825 4.5122 11.1825C4.08694 11.1825 3.7422 10.8378 3.7422 10.4125C3.7422 9.98723 4.08694 9.64249 4.5122 9.64249C4.93746 9.64249 5.2822 9.98723 5.2822 10.4125ZM7.48219 11.1825C7.90745 11.1825 8.25219 10.8378 8.25219 10.4125C8.25219 9.98723 7.90745 9.64249 7.48219 9.64249C7.05693 9.64249 6.71219 9.98723 6.71219 10.4125C6.71219 10.8378 7.05693 11.1825 7.48219 11.1825ZM5.2822 13.3935C5.2822 13.8188 4.93746 14.1635 4.5122 14.1635C4.08694 14.1635 3.7422 13.8188 3.7422 13.3935C3.7422 12.9682 4.08694 12.6235 4.5122 12.6235C4.93746 12.6235 5.2822 12.9682 5.2822 13.3935ZM7.48219 14.1635C7.90745 14.1635 8.25219 13.8188 8.25219 13.3935C8.25219 12.9682 7.90745 12.6235 7.48219 12.6235C7.05693 12.6235 6.71219 12.9682 6.71219 13.3935C6.71219 13.8188 7.05693 14.1635 7.48219 14.1635ZM11.2552 7.40949C11.2552 7.83475 10.9105 8.17949 10.4852 8.17949C10.0599 8.17949 9.7152 7.83475 9.7152 7.40949C9.7152 6.98423 10.0599 6.63949 10.4852 6.63949C10.9105 6.63949 11.2552 6.98423 11.2552 7.40949ZM13.4552 8.17949C13.8805 8.17949 14.2252 7.83475 14.2252 7.40949C14.2252 6.98423 13.8805 6.63949 13.4552 6.63949C13.0299 6.63949 12.6852 6.98423 12.6852 7.40949C12.6852 7.83475 13.0299 8.17949 13.4552 8.17949Z" fill="#333333"/>
<path fill-rule="evenodd" clip-rule="evenodd" d="M16.15 13.4044C16.15 14.9232 14.9188 16.1544 13.4 16.1544C11.8812 16.1544 10.65 14.9232 10.65 13.4044C10.65 11.8856 11.8812 10.6544 13.4 10.6544C14.9188 10.6544 16.15 11.8856 16.15 13.4044ZM17.8 13.4044C17.8 15.8344 15.8301 17.8044 13.4 17.8044C10.9699 17.8044 9 15.8344 9 13.4044C9 10.9743 10.9699 9.00439 13.4 9.00439C15.8301 9.00439 17.8 10.9743 17.8 13.4044ZM13.62 12.3044C13.62 12.0006 13.3738 11.7544 13.07 11.7544C12.7662 11.7544 12.52 12.0006 12.52 12.3044V13.9544C12.52 14.2582 12.7662 14.5044 13.07 14.5044H14.39C14.6938 14.5044 14.94 14.2582 14.94 13.9544C14.94 13.6506 14.6938 13.4044 14.39 13.4044H13.62V12.3044Z" fill="#333333"/>
</svg>
