<svg width="160" height="160" viewBox="0 0 160 160" fill="none" xmlns="http://www.w3.org/2000/svg">
<circle cx="80" cy="80" r="80" fill="#E7E7E7"/>
<path d="M80 75.125C76.0232 75.125 72.8 78.401 72.8 82.4375C72.8 86.474 76.0232 89.75 80 89.75C83.9744 89.75 87.2 86.474 87.2 82.4375C87.2 78.401 83.9744 75.125 80 75.125ZM99.2 67.8125H93.44C92.648 67.8125 91.7936 67.1885 91.5464 66.4231L90.056 61.8869C89.804 61.124 88.9544 60.5 88.16 60.5H71.84C71.048 60.5 70.1936 61.124 69.9464 61.8845L68.4536 66.4231C68.204 67.1885 67.352 67.8125 66.56 67.8125H60.8C58.16 67.8125 56 70.0063 56 72.6875V94.625C56 97.3063 58.16 99.5 60.8 99.5H99.2C101.84 99.5 104 97.3063 104 94.625V72.6875C104 70.0063 101.84 67.8125 99.2 67.8125ZM80 94.625C73.3712 94.625 68 89.1699 68 82.4375C68 75.7051 73.3712 70.25 80 70.25C86.6264 70.25 92 75.7051 92 82.4375C92 89.1699 86.6264 94.625 80 94.625ZM98 75.6125C97.0712 75.6125 96.32 74.8471 96.32 73.9038C96.32 72.9654 97.0712 72.1976 98 72.1976C98.9288 72.1976 99.68 72.9629 99.68 73.9038C99.68 74.8471 98.9288 75.6125 98 75.6125Z" fill="#818181"/>
</svg>
