<svg width="16" height="16" viewBox="0 0 16 16" fill="none" xmlns="http://www.w3.org/2000/svg">
<path d="M5.32654 8.8228C5.32654 10.2989 6.52477 11.4971 8.00083 11.4971C9.47688 11.4971 10.6751 10.2989 10.6751 8.8228C10.6751 7.34674 9.47688 6.14851 8.00083 6.14851C6.52227 6.14851 5.32654 7.34674 5.32654 8.8228ZM13.7608 4.29708H10.8808C10.6751 3.47422 10.4694 2.65137 9.64654 2.65137H6.35511C5.53225 2.65137 5.32654 3.47422 5.12083 4.29708H2.24083C1.78831 4.29708 1.41797 4.66743 1.41797 5.11994V12.5257C1.41797 12.9782 1.78831 13.3485 2.24083 13.3485H13.7608C14.2133 13.3485 14.5837 12.9782 14.5837 12.5257V5.11994C14.5837 4.66743 14.2133 4.29708 13.7608 4.29708ZM8.00083 12.4742C5.98477 12.4742 4.3494 10.8389 4.3494 8.8228C4.3494 6.80674 5.98477 5.17137 8.00083 5.17137C10.0169 5.17137 11.6523 6.80674 11.6523 8.8228C11.6523 10.8389 10.0169 12.4742 8.00083 12.4742ZM13.7608 6.76565H12.1151V5.9428H13.7608V6.76565Z" fill="white"/>
</svg>
