<svg width="16" height="16" viewBox="0 0 16 16" fill="none" xmlns="http://www.w3.org/2000/svg">
<path fill-rule="evenodd" clip-rule="evenodd" d="M11.2505 0.5C13.7922 0.5 15.5 2.2835 15.5 4.937V11.063C15.5 13.7165 13.7923 15.5 11.2498 15.5H4.74875C2.207 15.5 0.5 13.7165 0.5 11.063V4.937C0.5 2.2835 2.207 0.5 4.74875 0.5H11.2505ZM11.2505 1.625H4.74875C2.85125 1.625 1.625 2.92475 1.625 4.937V11.063C1.625 13.0752 2.85125 14.375 4.74875 14.375H11.2498C13.148 14.375 14.375 13.0752 14.375 11.063V4.937C14.375 2.92475 13.1487 1.625 11.2505 1.625ZM7.99932 4.1627C8.30982 4.1627 8.56182 4.4147 8.56182 4.7252V7.6772L10.8313 9.02945C11.0976 9.1892 11.1853 9.5342 11.0263 9.8012C10.9206 9.97745 10.7338 10.0757 10.5426 10.0757C10.4443 10.0757 10.3453 10.0502 10.2546 9.99695L7.71132 8.4797C7.54182 8.3777 7.43682 8.19395 7.43682 7.9967V4.7252C7.43682 4.4147 7.68882 4.1627 7.99932 4.1627Z" fill="#818386"/>
</svg>
