<svg width="24" height="24" viewBox="0 0 24 24" fill="none" xmlns="http://www.w3.org/2000/svg">
<path fill-rule="evenodd" clip-rule="evenodd" d="M2 3C2 2.44772 2.44772 2 3 2H9.75C10.3023 2 10.75 2.44772 10.75 3V8.625C10.75 9.7986 9.7986 10.75 8.625 10.75H4.125C2.9514 10.75 2 9.79861 2 8.625V3ZM4 4V8.625C4 8.69404 4.05596 8.75 4.125 8.75H8.625C8.69404 8.75 8.75 8.69404 8.75 8.625V4H4ZM17.625 4C16.3133 4 15.25 5.06332 15.25 6.375C15.25 7.68668 16.3133 8.75 17.625 8.75C18.9367 8.75 20 7.68668 20 6.375C20 5.06332 18.9367 4 17.625 4ZM13.25 6.375C13.25 3.95875 15.2088 2 17.625 2C20.0412 2 22 3.95875 22 6.375C22 8.79125 20.0412 10.75 17.625 10.75C15.2088 10.75 13.25 8.79125 13.25 6.375ZM6.375 15.25C5.06332 15.25 4 16.3133 4 17.625C4 18.9367 5.06332 20 6.375 20C7.68668 20 8.75 18.9367 8.75 17.625C8.75 16.3133 7.68668 15.25 6.375 15.25ZM2 17.625C2 15.2088 3.95875 13.25 6.375 13.25C8.79125 13.25 10.75 15.2088 10.75 17.625C10.75 20.0412 8.79125 22 6.375 22C3.95875 22 2 20.0412 2 17.625ZM13.25 14.25C13.25 13.6977 13.6977 13.25 14.25 13.25H21C21.5523 13.25 22 13.6977 22 14.25V19.875C22 21.0486 21.0486 22 19.875 22H15.375C14.2014 22 13.25 21.0486 13.25 19.875V14.25ZM15.25 15.25V19.875C15.25 19.944 15.306 20 15.375 20H19.875C19.944 20 20 19.944 20 19.875V15.25H15.25Z" fill="white"/>
</svg>
