<svg width="18" height="18" viewBox="0 0 18 18" fill="none" xmlns="http://www.w3.org/2000/svg">
<g clip-path="url(#clip0_885_2588)">
<path fill-rule="evenodd" clip-rule="evenodd" d="M1.5 8.0357C1.5 4.42613 4.42613 1.5 8.0357 1.5C11.6453 1.5 14.5714 4.42613 14.5714 8.0357C14.5714 9.57027 14.0425 10.9813 13.1571 12.0965L16.2803 15.2197C16.5732 15.5126 16.5732 15.9874 16.2803 16.2803C15.9874 16.5732 15.5125 16.5732 15.2196 16.2803L12.0964 13.1571C10.9813 14.0425 9.57024 14.5714 8.0357 14.5714C4.42613 14.5714 1.5 11.6453 1.5 8.0357ZM8.0357 3C5.25456 3 3 5.25456 3 8.0357C3 10.8168 5.25456 13.0714 8.0357 13.0714C10.8168 13.0714 13.0714 10.8168 13.0714 8.0357C13.0714 5.25456 10.8168 3 8.0357 3Z" fill="#808281"/>
</g>
<defs>
<clipPath id="clip0_885_2588">
<rect width="18" height="18" fill="white"/>
</clipPath>
</defs>
</svg>
