<svg width="20" height="20" viewBox="0 0 20 20" fill="none" xmlns="http://www.w3.org/2000/svg">
<path fill-rule="evenodd" clip-rule="evenodd" d="M0 1C0 0.447715 0.447715 0 1 0H7.75C8.30228 0 8.75 0.447715 8.75 1V6.625C8.75 7.7986 7.7986 8.75 6.625 8.75H2.125C0.951395 8.75 0 7.79861 0 6.625V1ZM2 2V6.625C2 6.69404 2.05596 6.75 2.125 6.75H6.625C6.69404 6.75 6.75 6.69404 6.75 6.625V2H2ZM15.625 2C14.3133 2 13.25 3.06332 13.25 4.375C13.25 5.68668 14.3133 6.75 15.625 6.75C16.9367 6.75 18 5.68668 18 4.375C18 3.06332 16.9367 2 15.625 2ZM11.25 4.375C11.25 1.95875 13.2088 0 15.625 0C18.0412 0 20 1.95875 20 4.375C20 6.79125 18.0412 8.75 15.625 8.75C13.2088 8.75 11.25 6.79125 11.25 4.375ZM4.375 13.25C3.06332 13.25 2 14.3133 2 15.625C2 16.9367 3.06332 18 4.375 18C5.68668 18 6.75 16.9367 6.75 15.625C6.75 14.3133 5.68668 13.25 4.375 13.25ZM0 15.625C0 13.2088 1.95875 11.25 4.375 11.25C6.79125 11.25 8.75 13.2088 8.75 15.625C8.75 18.0412 6.79125 20 4.375 20C1.95875 20 0 18.0412 0 15.625ZM11.25 12.25C11.25 11.6977 11.6977 11.25 12.25 11.25H19C19.5523 11.25 20 11.6977 20 12.25V17.875C20 19.0486 19.0486 20 17.875 20H13.375C12.2014 20 11.25 19.0486 11.25 17.875V12.25ZM13.25 13.25V17.875C13.25 17.944 13.306 18 13.375 18H17.875C17.944 18 18 17.944 18 17.875V13.25H13.25Z" fill="#6F767E"/>
</svg>
