<svg width="19" height="18" viewBox="0 0 19 18" fill="none" xmlns="http://www.w3.org/2000/svg">
<path fill-rule="evenodd" clip-rule="evenodd" d="M12.1088 8.77933C12.3792 8.53312 12.798 8.55273 13.0442 8.82313C13.2905 9.09354 13.2709 9.51234 13.0004 9.75856L9.49847 12.9473L5.9965 9.75856C5.7261 9.51234 5.70649 9.09354 5.9527 8.82313C6.19892 8.55273 6.61772 8.53312 6.88812 8.77933L8.83631 10.5532V2.46197C8.83631 2.09627 9.13277 1.7998 9.49847 1.7998C9.86418 1.7998 10.1606 2.09627 10.1606 2.46197V10.5532L12.1088 8.77933ZM3.6089 12.9268C3.6089 12.5653 3.31585 12.2723 2.95435 12.2723C2.59285 12.2723 2.2998 12.5653 2.2998 12.9268V13.7995C2.2998 15.125 3.37432 16.1995 4.69981 16.1995H14.2998C15.6253 16.1995 16.6998 15.125 16.6998 13.7995V12.9268C16.6998 12.5653 16.4068 12.2723 16.0453 12.2723C15.6838 12.2723 15.3907 12.5653 15.3907 12.9268V13.7995C15.3907 14.402 14.9023 14.8904 14.2998 14.8904H4.69981C4.09731 14.8904 3.6089 14.402 3.6089 13.7995V12.9268Z" fill="#006CFF"/>
</svg>
