<svg width="61" height="56" viewBox="0 0 61 56" fill="none" xmlns="http://www.w3.org/2000/svg">
<path fill-rule="evenodd" clip-rule="evenodd" d="M35.1385 15.6082C35.6192 15.1705 36.3637 15.2054 36.8014 15.6861C37.2391 16.1668 37.2043 16.9114 36.7236 17.3491L30.4978 23.0179L24.2721 17.3491C23.7914 16.9114 23.7565 16.1668 24.1942 15.6861C24.632 15.2054 25.3765 15.1705 25.8572 15.6082L29.3206 18.7619V4.37738C29.3206 3.72724 29.8477 3.2002 30.4978 3.2002C31.148 3.2002 31.675 3.72724 31.675 4.37738V18.7619L35.1385 15.6082ZM20.0275 22.9815C20.0275 22.3389 19.5065 21.8179 18.8638 21.8179C18.2212 21.8179 17.7002 22.3389 17.7002 22.9815V24.533C17.7002 26.8895 19.6104 28.7997 21.9669 28.7997H39.0335C41.3899 28.7997 43.3002 26.8895 43.3002 24.533V22.9815C43.3002 22.3389 42.7792 21.8179 42.1366 21.8179C41.4939 21.8179 40.9729 22.3389 40.9729 22.9815V24.533C40.9729 25.6041 40.1046 26.4724 39.0335 26.4724H21.9669C20.8958 26.4724 20.0275 25.6041 20.0275 24.533V22.9815Z" fill="white"/>
<path d="M3.65525 42.66C4.54325 42.66 5.31925 42.832 5.98325 43.176C6.65525 43.512 7.17125 44 7.53125 44.64C7.89925 45.272 8.08325 46.012 8.08325 46.86C8.08325 47.708 7.89925 48.444 7.53125 49.068C7.17125 49.692 6.65525 50.172 5.98325 50.508C5.31925 50.836 4.54325 51 3.65525 51H0.93125V42.66H3.65525ZM3.65525 49.884C4.63125 49.884 5.37925 49.62 5.89925 49.092C6.41925 48.564 6.67925 47.82 6.67925 46.86C6.67925 45.892 6.41925 45.136 5.89925 44.592C5.37925 44.048 4.63125 43.776 3.65525 43.776H2.29925V49.884H3.65525ZM12.3071 51.108C11.6831 51.108 11.1191 50.968 10.6151 50.688C10.1111 50.4 9.71506 50 9.42706 49.488C9.13906 48.968 8.99506 48.368 8.99506 47.688C8.99506 47.016 9.14306 46.42 9.43906 45.9C9.73506 45.38 10.1391 44.98 10.6511 44.7C11.1631 44.42 11.7351 44.28 12.3671 44.28C12.9991 44.28 13.5711 44.42 14.0831 44.7C14.5951 44.98 14.9991 45.38 15.2951 45.9C15.5911 46.42 15.7391 47.016 15.7391 47.688C15.7391 48.36 15.5871 48.956 15.2831 49.476C14.9791 49.996 14.5631 50.4 14.0351 50.688C13.5151 50.968 12.9391 51.108 12.3071 51.108ZM12.3071 49.92C12.6591 49.92 12.9871 49.836 13.2911 49.668C13.6031 49.5 13.8551 49.248 14.0471 48.912C14.2391 48.576 14.3351 48.168 14.3351 47.688C14.3351 47.208 14.2431 46.804 14.0591 46.476C13.8751 46.14 13.6311 45.888 13.3271 45.72C13.0231 45.552 12.6951 45.468 12.3431 45.468C11.9911 45.468 11.6631 45.552 11.3591 45.72C11.0631 45.888 10.8271 46.14 10.6511 46.476C10.4751 46.804 10.3871 47.208 10.3871 47.688C10.3871 48.4 10.5671 48.952 10.9271 49.344C11.2951 49.728 11.7551 49.92 12.3071 49.92ZM25.9714 44.388L23.9194 51H22.4794L21.1474 46.116L19.8154 51H18.3754L16.3114 44.388H17.7034L19.0834 49.704L20.4874 44.388H21.9154L23.2594 49.68L24.6274 44.388H25.9714ZM30.3298 44.28C30.8498 44.28 31.3138 44.388 31.7218 44.604C32.1378 44.82 32.4618 45.14 32.6938 45.564C32.9258 45.988 33.0418 46.5 33.0418 47.1V51H31.6858V47.304C31.6858 46.712 31.5378 46.26 31.2418 45.948C30.9458 45.628 30.5418 45.468 30.0298 45.468C29.5178 45.468 29.1098 45.628 28.8058 45.948C28.5098 46.26 28.3618 46.712 28.3618 47.304V51H26.9938V44.388H28.3618V45.144C28.5858 44.872 28.8698 44.66 29.2138 44.508C29.5658 44.356 29.9378 44.28 30.3298 44.28ZM36.1547 42.12V51H34.7867V42.12H36.1547ZM40.8188 51.108C40.1948 51.108 39.6308 50.968 39.1268 50.688C38.6228 50.4 38.2268 50 37.9388 49.488C37.6508 48.968 37.5068 48.368 37.5068 47.688C37.5068 47.016 37.6548 46.42 37.9508 45.9C38.2468 45.38 38.6508 44.98 39.1628 44.7C39.6748 44.42 40.2468 44.28 40.8788 44.28C41.5108 44.28 42.0828 44.42 42.5948 44.7C43.1068 44.98 43.5108 45.38 43.8068 45.9C44.1028 46.42 44.2508 47.016 44.2508 47.688C44.2508 48.36 44.0988 48.956 43.7948 49.476C43.4908 49.996 43.0748 50.4 42.5468 50.688C42.0268 50.968 41.4508 51.108 40.8188 51.108ZM40.8188 49.92C41.1708 49.92 41.4988 49.836 41.8028 49.668C42.1148 49.5 42.3668 49.248 42.5588 48.912C42.7508 48.576 42.8468 48.168 42.8468 47.688C42.8468 47.208 42.7548 46.804 42.5708 46.476C42.3868 46.14 42.1428 45.888 41.8388 45.72C41.5348 45.552 41.2068 45.468 40.8548 45.468C40.5028 45.468 40.1748 45.552 39.8708 45.72C39.5748 45.888 39.3388 46.14 39.1628 46.476C38.9868 46.804 38.8988 47.208 38.8988 47.688C38.8988 48.4 39.0788 48.952 39.4388 49.344C39.8068 49.728 40.2668 49.92 40.8188 49.92ZM45.1471 47.664C45.1471 47 45.2831 46.412 45.5551 45.9C45.8351 45.388 46.2111 44.992 46.6831 44.712C47.1631 44.424 47.6911 44.28 48.2671 44.28C48.7871 44.28 49.2391 44.384 49.6231 44.592C50.0151 44.792 50.3271 45.044 50.5591 45.348V44.388H51.9391V51H50.5591V50.016C50.3271 50.328 50.0111 50.588 49.6111 50.796C49.2111 51.004 48.7551 51.108 48.2431 51.108C47.6751 51.108 47.1551 50.964 46.6831 50.676C46.2111 50.38 45.8351 49.972 45.5551 49.452C45.2831 48.924 45.1471 48.328 45.1471 47.664ZM50.5591 47.688C50.5591 47.232 50.4631 46.836 50.2711 46.5C50.0871 46.164 49.8431 45.908 49.5391 45.732C49.2351 45.556 48.9071 45.468 48.5551 45.468C48.2031 45.468 47.8751 45.556 47.5711 45.732C47.2671 45.9 47.0191 46.152 46.8271 46.488C46.6431 46.816 46.5511 47.208 46.5511 47.664C46.5511 48.12 46.6431 48.52 46.8271 48.864C47.0191 49.208 47.2671 49.472 47.5711 49.656C47.8831 49.832 48.2111 49.92 48.5551 49.92C48.9071 49.92 49.2351 49.832 49.5391 49.656C49.8431 49.48 50.0871 49.224 50.2711 48.888C50.4631 48.544 50.5591 48.144 50.5591 47.688ZM53.2799 47.664C53.2799 47 53.4159 46.412 53.6879 45.9C53.9679 45.388 54.3439 44.992 54.8159 44.712C55.2959 44.424 55.8279 44.28 56.4119 44.28C56.8439 44.28 57.2679 44.376 57.6839 44.568C58.1079 44.752 58.4439 45 58.6919 45.312V42.12H60.0719V51H58.6919V50.004C58.4679 50.324 58.1559 50.588 57.7559 50.796C57.3639 51.004 56.9119 51.108 56.3999 51.108C55.8239 51.108 55.2959 50.964 54.8159 50.676C54.3439 50.38 53.9679 49.972 53.6879 49.452C53.4159 48.924 53.2799 48.328 53.2799 47.664ZM58.6919 47.688C58.6919 47.232 58.5959 46.836 58.4039 46.5C58.2199 46.164 57.9759 45.908 57.6719 45.732C57.3679 45.556 57.0399 45.468 56.6879 45.468C56.3359 45.468 56.0079 45.556 55.7039 45.732C55.3999 45.9 55.1519 46.152 54.9599 46.488C54.7759 46.816 54.6839 47.208 54.6839 47.664C54.6839 48.12 54.7759 48.52 54.9599 48.864C55.1519 49.208 55.3999 49.472 55.7039 49.656C56.0159 49.832 56.3439 49.92 56.6879 49.92C57.0399 49.92 57.3679 49.832 57.6719 49.656C57.9759 49.48 58.2199 49.224 58.4039 48.888C58.5959 48.544 58.6919 48.144 58.6919 47.688Z" fill="white"/>
</svg>
