<svg width="30" height="31" viewBox="0 0 30 31" fill="none" xmlns="http://www.w3.org/2000/svg">
<path d="M0 14.2307C0 8.94287 0 6.29896 1.19021 4.35672C1.85619 3.26993 2.76993 2.35619 3.85672 1.69021C5.79896 0.5 8.44287 0.5 13.7307 0.5H16.2693C21.5571 0.5 24.201 0.5 26.1433 1.69021C27.2301 2.35619 28.1438 3.26993 28.8098 4.35672C30 6.29896 30 8.94287 30 14.2307V16.7693C30 22.0571 30 24.701 28.8098 26.6433C28.1438 27.7301 27.2301 28.6438 26.1433 29.3098C24.201 30.5 21.5571 30.5 16.2693 30.5H13.7307C8.44287 30.5 5.79896 30.5 3.85672 29.3098C2.76993 28.6438 1.85619 27.7301 1.19021 26.6433C0 24.701 0 22.0571 0 16.7693V14.2307Z" fill="#FDC8A6"/>
<path d="M18.8064 5.84863L15.8457 21.9212L17.9605 22.3442C22.4369 19.0662 24.3578 5.84863 18.8064 5.84863Z" fill="#4E1E30"/>
<path d="M18.8067 5.84862C18.0665 5.3992 14.1599 4.25783 11.1933 5.84862C7.54531 7.80483 4.35544 14.8013 9.50152 21.9212C9.50884 21.9313 13.3082 21.4983 13.3082 21.4983L18.8067 5.84862Z" fill="#4E1E30"/>
<path fill-rule="evenodd" clip-rule="evenodd" d="M18.8067 30.4872C17.8819 30.4997 16.8506 30.4997 15.6925 30.4997H13.1539C12.4558 30.4997 11.8038 30.4997 11.1934 30.497V22.6008C12.0353 21.9651 12.0393 20.9142 12.0393 19.9474V18.9604H17.9608V19.9484H17.9838C17.9838 20.9069 17.9863 21.9487 18.8067 22.5861V30.4872Z" fill="#FFD7A3"/>
<path fill-rule="evenodd" clip-rule="evenodd" d="M18.3839 30.4919C17.5701 30.4996 16.6772 30.4996 15.6926 30.4996H13.1539C12.9182 30.4996 12.6878 30.4996 12.4624 30.4995V27.5125C13.2324 27.7219 14.0907 27.8425 15.0002 27.8425C16.2593 27.8425 17.4243 27.6163 18.3839 27.2334V30.4919Z" fill="#FF9054"/>
<path d="M18.3835 24.4592C18.5378 24.5013 18.6768 24.5237 18.8065 24.5346V22.5863C17.9862 21.949 17.9835 20.9071 17.9835 19.9485L17.9829 19.924V18.936L13.308 18.9606L12.0391 19.3835C12.885 20.3353 15.4757 23.6661 18.3835 24.4592Z" fill="#FDC88E"/>
<path d="M20.9215 13.4617C20.9215 16.8488 17.5529 21.0751 15.0001 21.0751C12.4472 21.0751 9.07861 16.8488 9.07861 13.4617C9.07861 10.0746 11.7298 8.80908 15.0001 8.80908C18.2703 8.80908 20.9215 10.0746 20.9215 13.4617Z" fill="#FFE1B2"/>
<path d="M15.8457 6.69482C15.6081 6.69482 14.8365 6.96183 14.2059 7.1958L14.1539 7.11777C14.1539 7.11777 14.0668 7.18616 13.9162 7.30468C13.5654 7.43787 13.308 7.54071 13.308 7.54071L13.4069 7.70564C11.8015 8.97049 8.13877 11.8639 7.80942 12.1933C7.38648 12.6163 10.3472 23.4073 10.3472 17.2689C10.3472 12.1405 13.1964 11.1249 15.8457 10.5015C17.0441 10.2195 17.3966 9.51459 17.5375 8.80966C17.6786 8.10474 16.2687 6.69482 15.8457 6.69482Z" fill="#4E1E30"/>
<path d="M17.1149 9.2323C17.8904 12.0168 19.4412 13.2769 20.8952 13.647C21.6919 13.8498 21.3446 11.3471 21.3446 11.3471C21.3446 11.3471 20.2167 8.45686 20.0757 8.38642C19.9348 8.3159 18.8068 5.84863 18.8068 5.84863L16.269 7.96347L17.1149 9.2323Z" fill="#4E1E30"/>
<path fill-rule="evenodd" clip-rule="evenodd" d="M13.5896 30.4999C8.52599 30.4998 5.9144 30.4898 4.00293 29.3963V27.8429C4.00293 25.2733 6.08602 23.1903 8.65555 23.1903H8.79651C10.454 23.1903 11.2616 22.7378 11.6577 22.0942L13.5896 30.4999Z" fill="#37CFD1"/>
<path fill-rule="evenodd" clip-rule="evenodd" d="M25.9973 29.3963C24.0858 30.4898 21.4742 30.4998 16.4106 30.4999L18.3425 22.0942C18.7386 22.7378 19.5463 23.1903 21.2037 23.1903H21.3447C23.9142 23.1903 25.9973 25.2733 25.9973 27.8429V29.3963Z" fill="#37CFD1"/>
<path d="M20.2914 13.5006C20.9834 13.3419 21.4369 13.6809 21.4369 14.3465C21.4369 15.2277 20.5062 17.3866 19.5278 16.0384C18.5493 14.6901 20.2914 13.5006 20.2914 13.5006Z" fill="#FFE1B2"/>
</svg>
