<svg width="18" height="24" viewBox="0 0 18 24" fill="none" xmlns="http://www.w3.org/2000/svg">
<path fill-rule="evenodd" clip-rule="evenodd" d="M0 21C0 22.2428 1.00725 23.25 2.25 23.25H15.75C16.9928 23.25 18 22.2428 18 21C18 19.2495 18 16.3875 18 14.7518C18 13.6643 17.2223 12.7328 16.1528 12.5385C14.5673 12.2498 11.8335 11.7525 10.287 11.472C9.43575 11.3167 8.56425 11.3167 7.713 11.472C6.1665 11.7525 3.43275 12.2498 1.84725 12.5385C0.777748 12.7328 0 13.6643 0 14.7518V21ZM10.731 13.077L11.8567 17.3573C12.0045 17.919 11.8065 18.5153 11.352 18.8783C10.968 19.1843 10.3628 19.6673 9.94275 20.0033C9.3915 20.4428 8.6085 20.4428 8.05725 20.0033C7.63725 19.6673 7.032 19.1843 6.648 18.8783C6.1935 18.5153 5.9955 17.919 6.14325 17.3573L7.269 13.077L2.11575 14.0137C1.7595 14.079 1.5 14.3895 1.5 14.7518V21C1.5 21.414 1.836 21.75 2.25 21.75C5.388 21.75 12.612 21.75 15.75 21.75C16.164 21.75 16.5 21.414 16.5 21C16.5 19.2495 16.5 16.3875 16.5 14.7518C16.5 14.3895 16.2405 14.079 15.8843 14.0137L10.731 13.077ZM9.12225 12.8573C9.0405 12.855 8.9595 12.855 8.87775 12.8573L7.59975 17.7188L8.99325 18.8302C8.997 18.834 9.003 18.834 9.00675 18.8302L10.4002 17.7188L9.12225 12.8573ZM9 0.75C6.30975 0.75 4.125 2.93475 4.125 5.625C4.125 8.31525 6.30975 10.5 9 10.5C11.6903 10.5 13.875 8.31525 13.875 5.625C13.875 2.93475 11.6903 0.75 9 0.75ZM9 2.25C10.863 2.25 12.375 3.762 12.375 5.625C12.375 7.488 10.863 9 9 9C7.137 9 5.625 7.488 5.625 5.625C5.625 3.762 7.137 2.25 9 2.25Z" fill="#6F767E"/>
</svg>
