<svg width="121" height="20" viewBox="0 0 121 20" fill="none" xmlns="http://www.w3.org/2000/svg">
<path fill-rule="evenodd" clip-rule="evenodd" d="M10.285 2.05604C10.1971 2.01992 10.1009 2 10 2C9.80129 2 9.62063 2.07728 9.48643 2.20342C9.48011 2.20936 9.4739 2.21541 9.46779 2.22156L5.4419 6.24745C5.14901 6.54034 5.14901 7.01521 5.4419 7.30811C5.73479 7.601 6.20967 7.601 6.50256 7.30811L9.25 4.56067V12.4167C9.25 12.8309 9.58579 13.1667 10 13.1667C10.4142 13.1667 10.75 12.8309 10.75 12.4167V4.56065L13.4975 7.30811C13.7903 7.601 14.2652 7.601 14.5581 7.30811C14.851 7.01521 14.851 6.54034 14.5581 6.24745L10.5303 2.21967C10.4579 2.14719 10.3742 2.09265 10.285 2.05604ZM2.75 11.6667C3.16421 11.6667 3.5 12.0024 3.5 12.4167V15.6389C3.5 15.8673 3.59072 16.0863 3.75221 16.2478C3.9137 16.4093 4.13273 16.5 4.36111 16.5H15.6389C15.8673 16.5 16.0863 16.4093 16.2478 16.2478C16.4093 16.0863 16.5 15.8673 16.5 15.6389V12.4167C16.5 12.0024 16.8358 11.6667 17.25 11.6667C17.6642 11.6667 18 12.0024 18 12.4167V15.6389C18 16.2651 17.7512 16.8656 17.3084 17.3084C16.8657 17.7512 16.2651 18 15.6389 18H4.36111C3.73491 18 3.13435 17.7512 2.69155 17.3084C2.24876 16.8656 2 16.2651 2 15.6389V12.4167C2 12.0024 2.33579 11.6667 2.75 11.6667Z" fill="#0B1F22"/>
<path d="M35.095 3.35H36.805V9.635C36.805 10.585 37.015 11.315 37.435 11.825C37.865 12.325 38.455 12.575 39.205 12.575C39.955 12.575 40.535 12.32 40.945 11.81C41.365 11.3 41.575 10.575 41.575 9.635V3.35H43.285V9.62C43.285 11.08 42.925 12.205 42.205 12.995C41.495 13.785 40.48 14.18 39.16 14.18C37.85 14.18 36.845 13.79 36.145 13.01C35.445 12.23 35.095 11.1 35.095 9.62V3.35ZM45.0932 6.8L46.4582 6.725L46.6982 7.895L48.8282 6.62C49.0082 6.62 49.2232 6.655 49.4732 6.725C49.7232 6.795 50.0032 6.925 50.3132 7.115C50.6332 7.295 50.9182 7.525 51.1682 7.805C51.4282 8.075 51.6432 8.44 51.8132 8.9C51.9932 9.35 52.0832 9.855 52.0832 10.415C52.0832 10.965 52.0032 11.465 51.8432 11.915C51.6832 12.355 51.4782 12.715 51.2282 12.995C50.9782 13.265 50.6882 13.49 50.3582 13.67C50.0382 13.85 49.7182 13.975 49.3982 14.045C49.0882 14.125 48.7782 14.165 48.4682 14.165C48.1482 14.165 47.6132 14.08 46.8632 13.91V17.75H45.2732V8.675L45.0932 6.8ZM46.8632 8.99V12.62C47.5832 12.82 48.0532 12.92 48.2732 12.92C48.8532 12.92 49.3582 12.715 49.7882 12.305C50.2182 11.885 50.4332 11.285 50.4332 10.505C50.4332 9.715 50.2432 9.11 49.8632 8.69C49.4932 8.27 49.0882 8.04 48.6482 8L46.8632 8.99ZM53.6082 2.945H55.1982V14H53.6082V2.945ZM60.3327 6.62C61.3827 6.62 62.2527 6.985 62.9427 7.715C63.6327 8.435 63.9777 9.33 63.9777 10.4C63.9777 11.47 63.6327 12.37 62.9427 13.1C62.2527 13.82 61.3827 14.18 60.3327 14.18C59.2927 14.18 58.4277 13.82 57.7377 13.1C57.0477 12.37 56.7027 11.47 56.7027 10.4C56.7027 9.33 57.0477 8.435 57.7377 7.715C58.4277 6.985 59.2927 6.62 60.3327 6.62ZM61.7727 8.66C61.3927 8.19 60.9127 7.955 60.3327 7.955C59.7527 7.955 59.2727 8.19 58.8927 8.66C58.5227 9.12 58.3377 9.695 58.3377 10.385C58.3377 11.075 58.5227 11.655 58.8927 12.125C59.2727 12.585 59.7527 12.815 60.3327 12.815C60.9127 12.815 61.3927 12.585 61.7727 12.125C62.1527 11.655 62.3427 11.075 62.3427 10.385C62.3427 9.695 62.1527 9.12 61.7727 8.66ZM66.073 8.495L65.578 7.43C65.648 7.36 65.768 7.275 65.938 7.175C66.108 7.065 66.398 6.945 66.808 6.815C67.218 6.685 67.643 6.62 68.083 6.62C69.023 6.62 69.748 6.89 70.258 7.43C70.768 7.97 71.023 8.78 71.023 9.86V12.29L71.188 14L69.823 14.075L69.583 13.115L67.813 14.18C67.013 14.18 66.318 13.99 65.728 13.61C65.148 13.22 64.858 12.685 64.858 12.005C64.858 10.495 66.383 9.74 69.433 9.74C69.433 8.5 68.913 7.88 67.873 7.88C67.283 7.88 66.683 8.085 66.073 8.495ZM69.433 12.125V10.64C67.483 10.66 66.508 11.085 66.508 11.915C66.508 12.225 66.643 12.475 66.913 12.665C67.183 12.845 67.483 12.945 67.813 12.965L69.433 12.125ZM77.6848 2.945H79.2748V12.095L79.4548 14L78.0898 14.075L77.8348 12.89L75.7198 14.18C75.5398 14.18 75.3248 14.145 75.0748 14.075C74.8248 14.005 74.5398 13.875 74.2198 13.685C73.9098 13.495 73.6248 13.265 73.3648 12.995C73.1148 12.725 72.8998 12.36 72.7198 11.9C72.5498 11.44 72.4648 10.93 72.4648 10.37C72.4648 9.69 72.5798 9.095 72.8098 8.585C73.0498 8.065 73.3548 7.67 73.7248 7.4C74.1048 7.13 74.4898 6.935 74.8798 6.815C75.2698 6.685 75.6648 6.62 76.0648 6.62C76.4548 6.62 76.9948 6.71 77.6848 6.89V2.945ZM77.6848 11.75V8.12C77.6448 8.11 77.5548 8.085 77.4148 8.045C77.2848 8.005 77.1648 7.97 77.0548 7.94C76.9548 7.91 76.8298 7.885 76.6798 7.865C76.5298 7.835 76.3948 7.82 76.2748 7.82C75.6948 7.82 75.1898 8.03 74.7598 8.45C74.3298 8.86 74.1148 9.455 74.1148 10.235C74.1148 11.025 74.2998 11.63 74.6698 12.05C75.0498 12.47 75.4598 12.7 75.8998 12.74L77.6848 11.75ZM83.2341 3.35H85.2441L87.8541 10.7L88.1241 11.525H88.1691L88.4091 10.7L90.9741 3.35H92.8191L88.7691 14H87.3741L83.2341 3.35ZM94.6281 3.545C94.9081 3.545 95.1381 3.635 95.3181 3.815C95.5081 3.985 95.6031 4.2 95.6031 4.46C95.6031 4.73 95.5081 4.955 95.3181 5.135C95.1381 5.305 94.9081 5.39 94.6281 5.39C94.3381 5.39 94.0981 5.305 93.9081 5.135C93.7281 4.955 93.6381 4.73 93.6381 4.46C93.6381 4.2 93.7281 3.985 93.9081 3.815C94.0981 3.635 94.3381 3.545 94.6281 3.545ZM93.8031 6.8H95.4081V14H93.8031V6.8ZM102.148 2.945H103.738V12.095L103.918 14L102.553 14.075L102.298 12.89L100.183 14.18C100.003 14.18 99.7877 14.145 99.5377 14.075C99.2877 14.005 99.0027 13.875 98.6827 13.685C98.3727 13.495 98.0877 13.265 97.8277 12.995C97.5777 12.725 97.3627 12.36 97.1827 11.9C97.0127 11.44 96.9277 10.93 96.9277 10.37C96.9277 9.69 97.0427 9.095 97.2727 8.585C97.5127 8.065 97.8177 7.67 98.1877 7.4C98.5677 7.13 98.9527 6.935 99.3427 6.815C99.7327 6.685 100.128 6.62 100.528 6.62C100.918 6.62 101.458 6.71 102.148 6.89V2.945ZM102.148 11.75V8.12C102.108 8.11 102.018 8.085 101.878 8.045C101.748 8.005 101.628 7.97 101.518 7.94C101.418 7.91 101.293 7.885 101.143 7.865C100.993 7.835 100.858 7.82 100.738 7.82C100.158 7.82 99.6527 8.03 99.2227 8.45C98.7927 8.86 98.5777 9.455 98.5777 10.235C98.5777 11.025 98.7627 11.63 99.1327 12.05C99.5127 12.47 99.9227 12.7 100.363 12.74L102.148 11.75ZM111.833 10.415L106.973 10.97C107.073 11.55 107.288 12.015 107.618 12.365C107.958 12.705 108.408 12.875 108.968 12.875C109.368 12.875 109.818 12.765 110.318 12.545C110.818 12.325 111.138 12.125 111.278 11.945L111.788 12.935C111.588 13.185 111.193 13.455 110.603 13.745C110.023 14.025 109.363 14.165 108.623 14.165C107.663 14.165 106.863 13.805 106.223 13.085C105.583 12.365 105.263 11.47 105.263 10.4C105.263 9.3 105.578 8.395 106.208 7.685C106.848 6.975 107.708 6.62 108.788 6.62C109.708 6.62 110.443 6.945 110.993 7.595C111.553 8.245 111.833 9.185 111.833 10.415ZM108.653 7.805C108.173 7.805 107.768 8 107.438 8.39C107.108 8.78 106.928 9.31 106.898 9.98L110.183 9.62C110.173 9.1 110.028 8.67 109.748 8.33C109.478 7.98 109.113 7.805 108.653 7.805ZM116.524 6.62C117.574 6.62 118.444 6.985 119.134 7.715C119.824 8.435 120.169 9.33 120.169 10.4C120.169 11.47 119.824 12.37 119.134 13.1C118.444 13.82 117.574 14.18 116.524 14.18C115.484 14.18 114.619 13.82 113.929 13.1C113.239 12.37 112.894 11.47 112.894 10.4C112.894 9.33 113.239 8.435 113.929 7.715C114.619 6.985 115.484 6.62 116.524 6.62ZM117.964 8.66C117.584 8.19 117.104 7.955 116.524 7.955C115.944 7.955 115.464 8.19 115.084 8.66C114.714 9.12 114.529 9.695 114.529 10.385C114.529 11.075 114.714 11.655 115.084 12.125C115.464 12.585 115.944 12.815 116.524 12.815C117.104 12.815 117.584 12.585 117.964 12.125C118.344 11.655 118.534 11.075 118.534 10.385C118.534 9.695 118.344 9.12 117.964 8.66Z" fill="#0B1F22"/>
</svg>
