<svg width="357" height="357" viewBox="0 0 357 357" fill="none" xmlns="http://www.w3.org/2000/svg">
<path d="M126.325 267.928C129.3 266.875 132.349 266.039 135.446 265.429L135.821 266.804C135.863 266.966 135.961 267.107 136.099 267.202C136.237 267.298 136.404 267.339 136.571 267.322L148.833 265.894C152.207 258.2 158.401 246.544 158.49 246.366C158.401 243.456 158.49 241.011 158.49 238.226C151.475 240.832 138.498 245.777 131.715 248.936C131.562 249.034 131.443 249.18 131.376 249.35C131.309 249.519 131.296 249.705 131.341 249.882C131.341 249.882 131.466 250.328 131.626 250.971C128.306 250.971 118.364 250.489 115.972 252.756C115.6 253.274 115.417 253.904 115.454 254.541C115.311 257.004 116.543 276.139 118.506 281.762C119.524 284.707 121.666 284.386 123.13 281.566C124.824 277.319 125.911 272.854 126.36 268.303C126.36 268.071 126.307 268.089 126.325 267.928ZM124.272 251.953C126.45 251.774 127.128 251.81 131.805 251.667C132.644 254.844 134.375 261.378 135.268 264.715C132.118 265.203 129.01 265.925 125.968 266.875C125.02 261.952 124.453 256.963 124.272 251.953Z" fill="#141414"/>
<path d="M290.616 95.7295C291.062 95.1047 290.491 94.3015 290.009 93.6767C291.375 92.2728 292.889 91.0216 294.525 89.9461C297.287 88.5697 299.811 86.7623 302.004 84.5911C302.914 83.6451 304.628 81.6994 303.985 80.557C303.343 79.4146 302.2 79.3432 300.648 80.0036C301.32 79.2974 301.87 78.4825 302.272 77.5939C302.772 76.2016 301.594 75.077 299.041 76.1123C299.969 74.6308 300.183 73.0778 298.613 72.3281C297.345 71.7212 295.489 73.1671 294.418 74.1131C292.315 75.9507 290.341 77.9308 288.51 80.0393C287.385 77.6831 285.6 74.9699 283.369 75.8267C281.137 76.6835 282.869 80.5213 284.011 82.6097L279.959 85.4122C279.347 85.0815 278.655 84.9273 277.96 84.966C273.355 85.7514 252.203 101.852 250.061 101.852C248.418 101.852 224.964 90.6065 204.686 87.3578C204.647 87.2361 204.574 87.1284 204.476 87.0463C204.378 86.9642 204.259 86.9113 204.133 86.8937C200.595 86.2901 197.01 86.0214 193.423 86.0905C193.314 86.098 193.208 86.1288 193.113 86.181C193.017 86.2336 192.935 86.3063 192.869 86.394H191.37C191.013 84.9481 189.692 81.6101 189.228 80.3249C190.442 79.2718 192.12 78.7363 192.994 77.0406C194.601 73.8989 194.529 68.4368 194.083 64.9382C196.1 63.4031 196.154 60.9398 195.69 58.423C195.511 57.4055 194.958 55.1029 194.101 54.5317C193.619 54.2104 192.601 54.5317 191.727 54.853C190.852 52.8181 190.852 53.7463 191.209 52.9252C191.376 52.5468 191.472 52.1417 191.495 51.7292C192.441 52.0148 194.404 50.1227 193.726 47.6237C193.371 46.7293 192.935 45.8689 192.423 45.0533C192.673 44.4464 193.208 43.7146 191.53 41.4833C190.808 40.7038 189.869 40.1569 188.835 39.9125H188.014C187.422 39.0528 186.552 38.4226 185.551 38.1275C184.04 37.742 182.436 37.9666 181.088 38.7523C180.731 39.02 180.446 39.377 180.089 39.6269C179.281 39.1369 178.356 38.8779 177.411 38.8779C176.467 38.8779 175.541 39.1369 174.734 39.6269C174.261 39.8123 173.831 40.0914 173.469 40.4471C173.108 40.8031 172.821 41.2282 172.627 41.6975C171.753 41.3957 170.824 41.2795 169.902 41.3564C168.981 41.4334 168.085 41.7014 167.272 42.1438C164.189 43.8159 161.882 46.6287 160.846 49.9799C160.818 50.4853 160.818 50.9919 160.846 51.4972H160.65C157.972 51.1045 154.563 57.4591 157.294 62.4035C157.615 62.9926 158.026 63.5459 158.419 64.1885C159.561 65.9735 159.115 66.509 161.667 68.6867C162.417 69.3293 162.542 69.2758 163.006 69.6685C163.47 70.0612 163.292 69.8648 163.56 70.8644C163.705 71.4532 163.967 72.0075 164.329 72.4946C164.69 72.9818 165.145 73.3923 165.666 73.7026C165.856 75.4487 166.6 77.0876 167.79 78.3793C168.166 78.8012 168.607 79.1621 169.093 79.4503C169.224 79.5243 169.371 79.5671 169.521 79.5752C170.057 82.8953 170.717 87.215 171.003 89.0536L169.414 89.9104C167.336 90.7467 165.315 91.7188 163.363 92.8199C163.21 92.9261 163.102 93.0848 163.06 93.2662C161.168 94.2658 159.383 95.2118 158.365 95.8187C144.193 104.226 103.941 159.65 103.53 162.185C103.485 162.331 103.485 162.486 103.53 162.631C104.107 163.552 104.81 164.387 105.618 165.112C105.37 165.568 105.07 165.992 104.726 166.38C101.156 168.718 95.8013 172.199 92.9274 175.305C92.7255 175.485 92.5743 175.714 92.4886 175.97C92.4026 176.226 92.3848 176.499 92.437 176.764C92.4893 177.029 92.6097 177.276 92.7866 177.481C92.9634 177.685 93.1903 177.84 93.4447 177.929C93.9802 178.107 94.0698 178.054 97.5506 176.144C96.5938 176.983 95.8113 178.002 95.2479 179.143C95.0159 180.124 95.9084 180.695 97.0329 180.517C97.6655 180.351 98.2678 180.086 98.8179 179.732C98.4956 180.228 98.3246 180.809 98.3246 181.401C98.3246 181.993 98.4956 182.573 98.8179 183.07C100.603 185.319 105.28 178.232 107.743 176.483C108.743 177.75 110.099 180.713 112.259 179.928C114.133 179.232 112.08 175.108 112.259 173.912C112.985 173.215 113.761 172.571 114.579 171.985C115.956 173.005 117.531 173.729 119.202 174.109C122.148 174.109 152.885 143.086 155.224 140.604C154.385 148.494 150.154 182.356 151.047 188.942C151.457 191.923 158.615 192.352 161.632 192.512C160.721 213.932 160.114 246.384 159.954 246.723C155.224 256.915 153.938 259.7 152.35 262.788C149.458 268.321 137.284 288.742 135.91 293.383C135.714 294.114 135.696 294.4 136.463 295.757C134.163 298.175 132.028 300.746 130.073 303.45C129.092 305.235 133.304 321.871 136.285 327.762C136.963 329.083 138.07 331.117 139.551 331.066C144.014 330.903 143.996 314.874 143.871 310.394C143.87 310.255 143.82 310.123 143.728 310.019C144.537 308.811 145.419 307.655 146.37 306.556C146.938 306.947 147.534 307.292 148.155 307.591C148.762 307.859 149.44 307.395 149.94 306.984C155.884 302.308 187.943 262.359 194.815 243.51C197.939 234.906 202.098 223.018 203.276 214.593C203.996 209.266 204.063 203.871 203.472 198.528C203.472 198.452 203.502 198.379 203.556 198.325C203.609 198.272 203.682 198.242 203.758 198.242C203.834 198.242 203.907 198.272 203.96 198.325C204.014 198.379 204.043 198.452 204.043 198.528C204.937 203.901 205.111 209.37 204.561 214.789C203.24 226.481 194.012 250.846 189.085 259.807C193.333 259.021 201.973 257.308 206.15 256.058C220.073 251.828 232.925 239.208 234.049 225.035C234.414 218.358 234.414 211.667 234.049 204.989C233.929 195.771 232.731 186.599 230.479 177.661C234.263 175.608 237.726 173.199 238.851 170.985C241.261 166.255 234.888 139.034 233.496 131.394C241.118 132.233 254.095 133.75 260.146 129.02C267.072 123.451 282.03 107.778 290.616 95.7295ZM142.907 309.412C139.694 307.466 135.196 302.843 134.518 299.22C135.249 298.291 136.017 297.435 136.731 296.471C139.15 300.163 142.166 303.426 145.656 306.127C144.676 307.167 143.758 308.264 142.907 309.412ZM284.815 83.1095C284.907 83.0508 284.974 82.9586 284.999 82.8525C285.026 82.7461 285.011 82.6338 284.957 82.5383C284.333 81.3781 282.458 77.2905 283.761 76.8264C284.511 76.5407 285.172 77.0048 285.725 77.6296C286.57 78.7016 287.227 79.9086 287.671 81.1996C287.703 81.3044 287.764 81.3985 287.848 81.4716C287.93 81.5446 288.031 81.5936 288.138 81.614C288.246 81.6342 288.358 81.6244 288.462 81.5861C288.565 81.5478 288.655 81.482 288.724 81.3959C290.509 79.4146 294.686 74.8985 297.042 73.6847C298.827 72.7565 299.255 74.4701 294.882 78.4685C293.878 79.2345 292.913 80.0507 291.99 80.914C291.94 80.9841 291.911 81.0685 291.911 81.1551C291.911 81.2415 291.94 81.3258 291.99 81.3959C291.99 81.86 292.365 82.3777 293.008 81.8957C294.559 80.5336 296.2 79.2757 297.916 78.1294C298.793 77.5069 299.812 77.1139 300.88 76.987C300.344 78.6292 295.364 83.0917 294.936 83.5915C294.8 83.7135 294.717 83.8836 294.705 84.0657C294.695 84.2477 294.754 84.4272 294.873 84.5651C294.994 84.7031 295.162 84.7887 295.343 84.8037C295.526 84.8186 295.706 84.7615 295.846 84.6446C297.827 83.3594 301.29 80.3606 302.486 80.8069C303.682 81.2531 300.13 84.5732 299.237 85.3587C294.114 89.8033 295.435 86.9473 289.509 92.9806C286.93 90.1548 283.968 87.7035 280.709 85.6978L284.815 83.1095ZM207.256 168.486C206.953 166.023 206.578 163.363 206.114 160.596L206.881 159.579C210.451 154.991 211.522 147.691 211.183 141.961C213.093 150.333 214.611 158.562 215.771 166.737L207.256 168.486ZM180.713 107.368C176.019 103.798 168.468 97.6394 164.077 93.4268L171.217 89.8568C177.774 95.981 183.386 103.043 187.871 110.813C194.73 123.412 199.817 136.897 202.99 150.886L177.536 114.883L180.856 107.992C180.901 107.886 180.91 107.769 180.884 107.658C180.859 107.545 180.8 107.444 180.713 107.368ZM192.78 87.1258C192.887 87.3222 194.119 89.9461 195.993 94.5335C195.993 94.7299 195.654 99.1924 195.493 100.763C193.215 99.8603 191.066 98.6598 189.103 97.1932C189.496 95.6402 191.263 88.5895 191.388 87.0008L192.78 87.1258ZM186.443 106.297C186.568 105.975 186.693 105.547 186.836 105.047L188.032 105.672C188.71 106.118 188.442 104.762 189.049 108.689C189.049 109.349 189.228 110.081 189.264 110.884C188.442 109.403 187.425 107.814 186.461 106.297H186.443ZM185.444 104.797C182.072 100.014 178.232 95.5776 173.984 91.5526L187.425 97.3895C186.907 98.6212 186.158 102.388 185.461 104.797H185.444ZM199.17 115.257C197.385 110.384 196.011 104.94 195.333 103.512C195.373 103.067 195.373 102.619 195.333 102.173C195.592 102.269 195.861 102.329 196.136 102.352C196.308 102.354 196.475 102.293 196.606 102.182C196.738 102.07 196.824 101.915 196.85 101.745C196.993 101.156 197.225 98.1749 197.26 97.5145C202.453 110.625 206.788 124.058 210.237 137.731C200.152 116.275 201.705 122.487 199.188 115.257H199.17ZM213.932 149.333C209.862 129.823 202.705 105.493 194.565 87.465C197.555 87.4666 200.539 87.7054 203.49 88.1789C205.007 101.745 203.74 101.281 204.757 101.816C205.775 102.352 211.897 104.815 212.808 105.19C212.718 106.564 214.004 145.87 213.95 149.333H213.932ZM193.387 55.6741C194.318 57.7048 194.645 59.9597 194.333 62.1715C194.187 62.7346 193.89 63.2461 193.47 63.6491C193.051 64.0526 192.529 64.3317 191.961 64.4556C191.394 64.5796 190.802 64.5436 190.253 64.3515C189.704 64.1593 189.22 63.8186 188.853 63.3674C188.001 61.5734 187.361 59.6864 186.943 57.7447C187.425 57.1199 192.566 55.8704 193.387 55.6741ZM168.825 73.5241C168.174 73.2271 167.506 72.9652 166.826 72.7387C166.369 72.5511 165.963 72.2616 165.636 71.8923C165.309 71.5229 165.071 71.0838 164.94 70.6081C164.809 70.1326 164.788 69.6334 164.88 69.1486C164.973 68.664 165.174 68.2067 165.469 67.8121C166.594 66.866 167.611 66.9196 168.54 68.3298C169.129 69.4186 169.111 69.5078 169.379 69.6149C169.456 69.6487 169.539 69.6659 169.623 69.6649C169.706 69.664 169.789 69.6451 169.865 69.6098C169.941 69.5744 170.01 69.5228 170.063 69.4592C170.118 69.3956 170.158 69.3209 170.182 69.2401C170.447 68.123 170.488 66.9644 170.307 65.8307C170.093 64.5991 170.057 59.137 170.093 58.9585C170.615 59.2334 171.199 59.3629 171.788 59.3333C175.019 59.2084 175.662 57.5483 176.947 56.1917C178.429 56.3345 178.732 57.0485 180.41 56.1917C181.195 55.7448 181.917 55.1925 182.552 54.5495C183.065 54.7595 183.561 55.0104 184.033 55.2992C185.103 55.8136 186.31 55.9717 187.476 55.75C188.642 55.5284 189.707 54.9387 190.513 54.0676C190.709 54.4424 190.888 54.8173 191.049 55.21C189.408 55.7192 187.864 56.4971 186.479 57.5126C186.175 57.8875 186.622 59.9224 186.729 60.4043C185.234 60.5926 183.787 61.0586 182.463 61.7788C182.195 60.8506 181.606 59.1191 180.678 58.6372C180.398 58.5518 180.101 58.5518 179.821 58.6372C178.214 58.8871 172.449 60.6185 171.753 61.5646C171.146 62.225 172.877 67.3301 173.413 68.1691C175.465 71.3464 181.481 70.4182 182.605 66.7054C182.884 65.4595 182.884 64.1671 182.605 62.9212C183.123 62.9212 184.676 62.3678 184.855 62.3143C186.086 65.081 186.443 65.2417 187.871 68.2226C187.675 68.3833 187.354 68.651 187.086 68.8295C185.818 69.6685 185.551 69.5257 185.622 69.8827C185.643 69.9534 185.689 70.0145 185.752 70.0537C185.814 70.0933 185.889 70.1086 185.961 70.0969C186.711 69.9898 187.443 69.786 188.139 69.49C188.556 69.3345 188.899 69.0288 189.103 68.6332C189.603 67.5086 186.836 63.2782 185.747 62.0108C185.961 62.0108 186.461 61.6538 186.836 61.4575C187.336 63.4567 187.675 65.0275 189.603 65.8129C190.161 66.0232 190.754 66.1189 191.349 66.0946C191.944 66.0699 192.527 65.9255 193.066 65.6701C193.351 68.8117 193.298 73.9168 191.798 76.7014C191.031 78.1472 189.139 78.7006 187.925 79.8965C187.568 80.2357 187.8 80.7176 187.925 81.2353C189.906 86.7509 189.942 86.7331 189.835 87.4471C189.31 90.4105 188.576 93.3334 187.639 96.1936C187.193 95.9972 182.177 93.3376 172.36 89.5177C172.056 87.5006 170.432 76.7371 169.914 74.7557C169.95 74.0596 169.861 73.8989 168.825 73.4348V73.5241ZM181.32 66.2413C180.749 68.1869 178.054 69.0259 176.126 68.4904C174.198 67.9549 174.073 66.9731 173.163 64.6526C172.736 63.7663 172.441 62.8219 172.288 61.8502C172.877 61.2076 179.321 59.8867 180.124 59.7617C181.251 61.6892 181.674 63.9477 181.32 66.152V66.2413ZM111.474 173.413C110.795 174.073 111.705 176.233 111.848 178.107C111.848 178.268 111.848 178.964 111.741 179.018C110.759 179.339 109.849 177.857 109.296 176.965C108.742 176.072 108.189 174.859 107.314 175.18C105.529 176.019 101.388 181.517 99.7636 182.088C98.9425 180.517 103.637 176.037 103.798 175.787C103.867 175.672 103.903 175.54 103.902 175.407C103.902 175.274 103.864 175.141 103.794 175.028C103.724 174.914 103.624 174.822 103.506 174.759C103.387 174.698 103.253 174.671 103.12 174.68C102.798 174.68 102.584 174.966 102.084 175.412C100.564 176.895 98.8241 178.135 96.9255 179.089C98.6469 177.114 100.489 175.248 102.441 173.502C102.538 173.402 102.606 173.279 102.638 173.145C102.638 173.145 102.263 172.199 101.531 172.574C100.496 173.145 95.4618 176.055 93.8735 176.804C93.6593 176.661 93.7842 176.447 93.8735 176.233C96.39 173.145 101.924 169.396 105.315 167.022C105.713 166.612 106.045 166.143 106.297 165.63C108.646 167.815 111.151 169.826 113.794 171.646C112.98 172.18 112.204 172.77 111.474 173.413ZM153.01 189.638C152.617 189.388 152.332 189.156 152.278 188.835C151.297 181.552 156.759 140.283 156.669 138.659C156.669 138.563 156.65 138.469 156.613 138.381C156.577 138.294 156.522 138.214 156.454 138.148C156.385 138.081 156.305 138.029 156.216 137.994C156.128 137.959 156.033 137.942 155.938 137.945C155.027 137.945 156.634 137.945 133.893 159.722C132.394 161.132 120.934 172.092 119.024 172.824C116.4 172.627 106.529 164.755 104.922 162.274C108.028 155.991 145.692 104.298 158.722 96.3899C159.722 95.783 161.435 94.837 163.31 93.8374C163.958 94.4488 164.656 95.0038 165.398 95.4974C169.539 99.4244 175.305 104.315 179.678 107.992L176.269 114.758C176.217 114.847 176.19 114.949 176.19 115.052C176.19 115.155 176.217 115.257 176.269 115.347C203.954 155.063 203.544 154.617 203.722 154.617C205.497 163.794 206.6 173.088 207.024 182.427C207.024 184.944 207.024 184.73 207.131 184.551C207.238 184.373 207.131 184.676 207.131 184.676C202.812 189.388 160.061 193.78 153.01 189.638ZM251.685 130.501C243.599 131.626 234.46 129.948 232.693 129.877C231.711 125.118 229.754 120.615 226.945 116.65C226.902 116.592 226.839 116.552 226.768 116.539C226.698 116.526 226.625 116.54 226.564 116.578C226.503 116.617 226.458 116.677 226.439 116.746C226.421 116.816 226.429 116.89 226.463 116.953C227.498 119.059 230.961 128.145 231.818 130.358C231.55 131.215 239.886 165.684 237.53 170.325C235.424 174.519 223.161 179.803 218.734 181.32C217.859 171.382 216.428 161.502 214.45 151.725C215.057 146.584 214.271 116.025 214.039 104.726C214.032 104.595 213.989 104.468 213.913 104.361C213.837 104.253 213.733 104.17 213.611 104.119L205.596 100.745C205.561 96.5035 205.292 92.2666 204.793 88.054C224.803 91.5169 248.115 102.959 250.061 102.977C252.881 102.977 273.837 86.9116 278.174 86.269C280.102 85.9655 288.385 93.1948 289.348 95.194C280.888 107.011 266.019 122.54 259.128 127.913C256.909 129.397 254.346 130.288 251.685 130.501Z" fill="#141414"/>
<path d="M179.482 62.6713C179.459 62.5542 179.415 62.4425 179.349 62.3429C179.284 62.2429 179.199 62.1569 179.101 62.0898C179.001 62.0229 178.891 61.9758 178.774 61.9515C178.658 61.9272 178.537 61.9262 178.42 61.9486C178.302 61.9706 178.191 62.0158 178.091 62.0813C177.991 62.1469 177.905 62.2309 177.838 62.3296C177.771 62.4283 177.723 62.5393 177.7 62.6561C177.676 62.7729 177.674 62.8933 177.697 63.0105C178.054 64.7955 178.125 65.206 178.911 65.206C179.059 65.2064 179.205 65.17 179.336 65.0999C179.467 65.0295 179.578 64.9279 179.659 64.8036C179.74 64.6796 179.79 64.5372 179.803 64.3892C179.815 64.2412 179.791 64.0925 179.732 63.9565C179.678 63.6709 179.517 62.832 179.482 62.6713ZM184.944 74.488C186.104 74.8272 187.211 74.2738 187.175 73.9883C187.139 73.7026 187.175 73.8454 185.604 73.2564C184.551 72.8637 183.391 71.4714 182.98 71.6856C182.57 71.8998 183.195 73.0422 183.337 73.2564C183.72 73.8357 184.285 74.2696 184.944 74.488ZM217.592 57.5305C215.253 67.3302 213.54 75.6483 213.254 77.3083C213.063 78.0305 213.028 78.7847 213.147 79.5217C214.093 81.5388 226.32 85.5193 227.873 84.7339C229.426 83.9485 233.46 74.8629 238.155 65.4916C241.03 65.5835 243.908 65.3742 246.741 64.8669C249.723 64.3197 252.625 63.4022 255.38 62.1358C261.413 59.3512 268.018 47.4274 268.91 41.4298C269.58 34.9182 268.201 28.3601 264.965 22.6695C249.989 -3.30226 206.06 10.6743 209.63 39.5199C210.65 46.1202 213.397 52.3339 217.592 57.5305ZM228.48 78.7899C228.48 79.0755 228.159 79.0398 226.695 78.7899C223.701 78.4137 220.802 77.4878 218.145 76.0588C216.895 75.3805 216.556 75.2377 216.681 74.9343C216.806 74.6308 217.074 74.7379 219.002 75.2734C219.18 75.2734 224.714 77.0584 226.302 77.6118C228.355 78.54 228.48 78.54 228.48 78.7899ZM228.159 49.7479C230.064 49.8466 231.964 49.4536 233.674 48.6055C235.263 49.3754 236.982 49.8417 238.744 49.98C235.745 55.567 229.658 66.9553 227.695 73.0243L220.126 70.9359C221.911 66.5448 225.856 56.2632 228.123 49.7479H228.159ZM227.534 48.2664C226.201 48.0652 224.971 47.4323 224.034 46.4652C223.095 45.4977 222.5 44.2495 222.34 42.9114C221.84 39.3414 224.125 35.343 227.57 36.289C229.73 36.8781 229.997 38.5917 229.622 40.7515C229.301 42.3223 228.141 46.2672 227.498 48.195L227.534 48.2664ZM232.389 43.9824C232.58 42.8144 233.019 41.7005 233.674 40.7158C233.987 40.179 234.444 39.7406 234.992 39.4504C235.541 39.16 236.16 39.0295 236.78 39.0736C238.101 39.4663 238.672 41.9653 237.584 43.5361C236.536 44.9249 235.235 46.1004 233.746 46.999C233.233 46.6985 232.825 46.2484 232.576 45.709C232.328 45.1699 232.249 44.5672 232.354 43.9824H232.389ZM215.985 21.2951C223.982 11.6739 239.029 7.85399 249.9 11.8167C255.805 13.8438 260.772 17.9483 263.877 23.3657C266.954 28.7806 268.271 35.0188 267.643 41.2156C266.822 46.767 260.503 58.2981 254.952 60.8506C249.876 63.166 244.338 64.2892 238.762 64.135C238.155 64.135 237.512 64.135 237.28 64.5634C236.227 66.7054 234.299 70.8466 232.407 74.7379C231.099 74.107 229.746 73.5816 228.355 73.1671C230.426 67.2409 236.959 55.6027 240.065 49.9621C242.756 50.1926 245.461 49.7255 247.919 48.6055C248.582 48.256 249.133 47.7244 249.506 47.0727C249.878 46.4214 250.058 45.6772 250.022 44.9275C249.986 44.1781 249.736 43.4544 249.305 42.841C248.872 42.2279 248.274 41.7505 247.58 41.4655C244.813 40.1089 242.332 43.3576 240.886 46.0887C240.493 46.8027 240.047 47.6416 239.547 48.5877C238.103 48.4929 236.679 48.1986 235.317 47.713C236.673 46.7589 237.878 45.6035 238.887 44.2858C239.452 43.4323 239.738 42.4246 239.706 41.4016C239.674 40.3783 239.325 39.3904 238.708 38.5738C238.223 38.0108 237.549 37.6437 236.813 37.5418C236.077 37.4399 235.329 37.6103 234.71 38.0205C233.459 38.7887 232.458 39.9012 231.824 41.2247C231.192 42.5482 230.954 44.0265 231.14 45.4818C231.333 46.3032 231.776 47.0451 232.407 47.6059C231.236 48.0908 229.979 48.3339 228.712 48.3199C229.426 46.2136 230.586 42.4116 230.89 40.8586C231.08 39.9733 231.122 39.0626 231.015 38.1633C230.876 37.3915 230.518 36.6759 229.982 36.1028C229.449 35.5293 228.758 35.1233 227.998 34.9324C223.661 33.7008 220.465 38.5024 221.09 42.9828C221.266 44.5883 221.956 46.0942 223.055 47.2775C224.154 48.4608 225.606 49.2582 227.195 49.5516C224.91 55.9776 221.34 66.3484 219.555 70.7752L215.628 69.7578C218.145 57.12 218.448 57.4234 218.091 57.2628C214.035 52.0918 211.441 45.9277 210.576 39.4128C210.156 36.1823 210.42 32.8995 211.352 29.7781C212.283 26.6565 213.863 23.7661 215.985 21.2951ZM240.761 48.6948C242.01 46.4278 244.509 41.4655 246.937 42.6793C247.422 42.875 247.846 43.1996 248.16 43.6179C248.475 44.0363 248.668 44.5325 248.722 45.0534C248.686 48.195 243.795 48.7483 240.689 48.6948H240.761ZM309.091 56.5666C311.241 55.3016 313.782 54.8696 316.231 55.3528C318.92 55.4009 321.489 56.4761 323.411 58.3581C325.334 60.2402 326.46 62.7859 326.564 65.4738C324.948 64.5355 323.057 64.1824 321.211 64.4742C316.73 64.8669 310.876 67.2945 311.661 71.6142C312.304 75.1842 317.016 74.7022 320.586 73.7383C324.156 72.7744 326.993 71.0251 327.726 67.5801C332.062 70.7395 333.081 76.273 333.26 81.6816C333.26 81.7572 333.289 81.8299 333.344 81.8835C333.396 81.937 333.471 81.9672 333.545 81.9672C333.62 81.9672 333.694 81.937 333.746 81.8835C333.802 81.8299 333.831 81.7572 333.831 81.6816C333.954 75.6304 332.867 69.7042 327.921 66.2592C327.973 64.7095 327.707 63.1656 327.145 61.7207C326.584 60.2762 325.73 58.9608 324.646 57.8541C323.56 56.7477 322.259 55.8734 320.826 55.2837C319.392 54.6943 317.852 54.4019 316.302 54.4246C313.824 54.0628 311.298 54.5808 309.162 55.8883C308.502 56.2096 308.805 56.6916 309.091 56.5666ZM325.37 69.3651C323.353 72.0069 317.641 73.3813 314.999 72.9351C314.017 72.7744 313.214 72.3639 313 71.3464C312.357 67.7764 318.515 65.8308 322.193 65.7058C323.689 65.591 325.182 65.9739 326.441 66.7947C326.305 67.7281 325.938 68.6121 325.37 69.3651ZM300.915 35.7C302.825 33.3438 301.54 29.2383 296.203 29.2205C294.132 29.2205 293.133 31.3268 293.276 33.3438C293.597 38.1454 299.005 38.0026 300.915 35.7ZM294.525 33.2545C294.525 32.0765 295.078 30.5414 296.31 30.5592C299.184 30.5592 300.505 31.898 300.505 33.3795C300.433 36.7531 294.293 38.5024 294.525 33.2545ZM293.793 235.62C278.103 229.355 270.82 259.682 258.004 285.743C257.922 286.837 257.959 287.94 258.111 289.027C258.111 291.758 258.415 309.84 260.003 311.893C260.432 312.714 262.234 311.893 263.073 311.375C270.198 306.965 276.913 301.922 283.137 296.31C283.19 296.249 283.229 296.179 283.254 296.102C283.278 296.024 283.287 295.944 283.28 295.864C286.6 291.134 299.041 266.5 302.058 254.148C304.164 245.402 302.076 238.887 293.793 235.62ZM299.398 258.29C290.998 257.213 282.876 254.56 275.461 250.471C279.638 242.564 284.797 233.549 293.311 236.941C302.79 240.707 302.593 248.508 299.398 258.236V258.29ZM269.696 304.7C269.147 304.24 268.549 303.844 267.911 303.521C265.498 302.296 262.712 302.027 260.11 302.772C259.932 300.648 258.914 286.832 258.914 286.707C272.284 291.598 268.161 289.473 281.405 296.06C280.013 297.381 274.783 301.04 269.696 304.664V304.7ZM278.906 253.042C280.647 253.992 282.435 254.856 284.261 255.63C280.169 262.056 276.555 268.775 273.444 275.729C270.445 281.994 270.552 281.959 267.5 288.795C265.715 288.224 263.93 287.688 262.145 287.153C264.073 283.315 277.782 255.255 278.906 253.006V253.042ZM268.196 288.974C273.998 278.567 279.906 265.626 284.975 255.862C286.76 256.612 288.545 257.218 290.33 257.754C289.384 259.539 286.617 264.287 285.886 265.662C285.154 267.036 277.817 281.495 277.3 282.601C276.479 284.386 274.23 289.366 273.533 290.955C271.713 290.152 269.963 289.545 268.125 288.938L268.196 288.974ZM274.176 291.187C275.265 289.206 279.745 280.888 280.299 279.817C281.138 278.157 290.491 259.039 291.009 257.932C292.651 258.397 294.382 258.789 295.489 259.004C292.222 267.928 282.815 285.118 279.424 293.597C276.336 292.151 275.64 291.794 274.105 291.151L274.176 291.187ZM275.265 250.989L278.46 252.774C272.021 263.74 266.413 275.171 261.681 286.974L259.004 286.153C269.374 264.055 269.856 261.163 275.194 250.953L275.265 250.989ZM282.619 295.15L279.924 293.865C282.833 288.153 291.937 273.498 296.096 259.128C297.095 259.307 298.077 259.468 299.023 259.593C294.436 271.832 288.929 283.707 282.548 295.114L282.619 295.15ZM226.695 306.734C227.406 306.145 227.915 305.348 228.148 304.454C228.382 303.56 228.33 302.616 227.998 301.754C227.846 300.511 227.277 299.355 226.381 298.479C225.486 297.603 224.318 297.057 223.071 296.933C221.825 296.809 220.572 297.112 219.522 297.793C218.471 298.474 217.682 299.495 217.288 300.683C215.003 299.202 212.522 297.631 210.148 296.132C211.933 293.757 217.181 294.811 217.717 296.756C217.729 296.832 217.77 296.901 217.831 296.945C217.893 296.99 217.971 297.009 218.047 296.997C218.123 296.985 218.189 296.944 218.236 296.883C218.28 296.82 218.3 296.743 218.288 296.667C218.02 293.561 211.558 291.74 208.952 295.4C206.65 293.99 203.793 292.276 201.402 290.973C203.454 289.188 208.042 290.187 208.542 292.044C208.565 292.108 208.61 292.16 208.669 292.194C208.728 292.227 208.797 292.239 208.863 292.225C208.93 292.212 208.989 292.176 209.032 292.123C209.074 292.071 209.097 292.004 209.095 291.937C208.863 289.045 202.883 287.099 200.17 290.277C199.033 289.64 197.837 289.114 196.6 288.706C196.374 288.612 196.125 288.586 195.884 288.63C195.643 288.675 195.42 288.788 195.243 288.956C190.727 294.579 175.501 309.18 168.468 310.876C168.291 310.903 168.125 310.975 167.985 311.087C167.845 311.199 167.738 311.344 167.673 311.511C167.607 311.678 167.586 311.859 167.613 312.035C167.641 312.211 167.714 312.378 167.826 312.518C169.37 314.086 171.138 315.415 173.074 316.463C171.289 318.248 169.896 319.854 168.861 321.014C168.326 321.586 168.04 332.51 168.504 334.921C168.573 335.155 168.726 335.359 168.932 335.492C171.182 337.027 200.152 349.558 203.115 347.88C205.097 346.754 228.748 322.139 229.123 321.389C229.694 320.211 229.497 312.357 229.462 309.216C229.319 308.27 227.552 307.252 226.695 306.734ZM169.575 330.316V326.334C176.983 329.904 193.94 337.187 200.366 339.221C202.008 339.757 202.151 339.686 203.008 339.221C207.917 336.08 225.249 316.552 228.426 313.571V317.337C218.788 326.996 202.419 343.918 202.116 342.954C200.348 342.847 171.11 331.03 169.575 330.316ZM226.249 300.719C226.89 301.8 227.235 303.032 227.248 304.289C227.243 304.689 227.144 305.082 226.961 305.439C226.778 305.795 226.517 306.104 226.195 306.342C224.696 305.342 221.858 303.486 218.502 301.308C220.34 297.684 224.428 297.631 226.177 300.719H226.249ZM169.129 312.143C176.733 309.894 191.174 295.971 196.029 289.938C197.196 290.263 198.324 290.725 199.385 291.312C197.6 294.632 199.509 298.273 200.188 297.756C200.563 297.47 199.884 297.363 199.777 295.614C199.731 294.336 200.021 293.069 200.616 291.937C203.079 293.222 205.971 294.9 208.417 296.31C206.917 299.648 208.72 302.95 209.345 302.468C209.97 301.986 209.059 302.093 208.952 300.344C208.909 299.197 209.128 298.055 209.595 297.006C212.112 298.488 214.682 300.023 217.038 301.469C216.675 302.358 216.531 303.322 216.617 304.279C216.705 305.235 217.02 306.157 217.538 306.966C217.562 306.996 217.59 307.023 217.624 307.042C217.657 307.06 217.694 307.074 217.731 307.078C217.77 307.083 217.809 307.081 217.846 307.071C217.883 307.06 217.917 307.044 217.949 307.02C217.978 306.996 218.005 306.968 218.023 306.934C218.042 306.901 218.056 306.864 218.06 306.825C218.064 306.788 218.063 306.749 218.053 306.712C218.042 306.675 218.026 306.639 218.002 306.609C217.681 305.9 217.523 305.128 217.538 304.35C217.553 303.572 217.742 302.807 218.091 302.111C222.25 304.646 225.606 306.77 226.642 307.466C226.445 307.645 207.828 324.21 201.491 329.138C197.332 328.047 175.501 317.212 169.129 312.143ZM169.807 322.085C177.893 325.655 196.261 333.938 200.491 334.743C201.223 334.885 201.509 334.937 202.901 333.831C208.845 329.066 228.177 308.841 228.355 309.055C228.364 309.108 228.364 309.162 228.355 309.216V312.786C224.375 315.981 202.241 339.221 201.884 338.115C200.099 338.115 171.092 326.282 169.611 325.62C169.575 324.87 169.736 322.871 169.807 322.085ZM202.312 346.683C200.527 347.702 173.341 336.651 169.7 334.402C169.563 333.263 169.498 332.12 169.504 330.975C177.322 334.83 200.063 344.434 202.151 344.346C205.204 344.184 226.784 319.89 228.319 318.194C228.337 319.106 228.246 320.016 228.052 320.907C227.748 321.496 203.49 346.024 202.312 346.683ZM54.424 246.062C54.549 247.972 54.6382 249.632 54.6382 251.185C54.6382 251.422 54.7324 251.649 54.8995 251.816C55.067 251.984 55.2938 252.078 55.5307 252.078C55.7673 252.078 55.9945 251.984 56.1617 251.816C56.3291 251.649 56.4232 251.422 56.4232 251.185C56.4232 249.525 56.334 247.883 56.209 245.937C56.1925 245.701 56.0825 245.481 55.9033 245.325C55.7242 245.168 55.4908 245.091 55.2539 245.107C55.0173 245.124 54.7969 245.234 54.6412 245.412C54.4854 245.592 54.4075 245.826 54.424 246.062ZM326.405 210.273C326.288 210.28 326.175 210.31 326.068 210.361C325.964 210.413 325.87 210.484 325.795 210.574C325.717 210.661 325.659 210.764 325.623 210.874C325.587 210.986 325.574 211.103 325.584 211.219C325.691 212.861 325.798 214.628 325.798 216.342C325.798 216.579 325.892 216.806 326.061 216.973C326.227 217.141 326.454 217.234 326.691 217.234C326.928 217.234 327.155 217.141 327.32 216.973C327.489 216.806 327.583 216.579 327.583 216.342C327.583 214.557 327.476 212.772 327.35 211.094C327.343 210.978 327.314 210.864 327.262 210.76C327.21 210.654 327.139 210.56 327.051 210.484C326.963 210.407 326.86 210.349 326.749 210.313C326.639 210.278 326.522 210.263 326.405 210.273ZM49.8009 241.618C50.0375 241.618 50.2647 241.524 50.4318 241.356C50.5993 241.189 50.6934 240.962 50.6934 240.725C50.6934 240.488 50.5993 240.261 50.4318 240.094C50.2647 239.926 50.0375 239.833 49.8009 239.833C47.641 239.833 45.8382 239.993 44.0532 239.958C43.8146 239.958 43.5858 240.051 43.4158 240.218C43.2454 240.385 43.1474 240.612 43.1428 240.85C43.1428 241.087 43.237 241.314 43.4041 241.481C43.5716 241.649 43.7984 241.743 44.0353 241.743C45.8739 241.778 47.8909 241.707 49.8009 241.618ZM320.872 204.989C318.73 204.989 316.927 205.114 315.124 205.132C314.887 205.132 314.66 205.226 314.493 205.394C314.325 205.561 314.231 205.788 314.231 206.025C314.231 206.261 314.325 206.489 314.493 206.655C314.66 206.823 314.887 206.917 315.124 206.917C317.052 206.917 319.051 206.917 320.979 206.774C321.215 206.759 321.437 206.652 321.594 206.476C321.751 206.298 321.831 206.065 321.818 205.828C321.803 205.592 321.696 205.37 321.519 205.213C321.34 205.055 321.108 204.974 320.872 204.989ZM53.9421 230.586C54.0492 232.229 54.1563 233.996 54.1563 235.709C54.1608 235.944 54.2562 236.169 54.4227 236.336C54.5889 236.502 54.8135 236.597 55.0488 236.602C55.2854 236.602 55.5126 236.508 55.6797 236.34C55.8472 236.173 55.9413 235.946 55.9413 235.709C55.9413 233.924 55.8342 232.139 55.7271 230.461C55.7105 230.225 55.6005 230.005 55.4214 229.849C55.2422 229.693 55.0089 229.615 54.7719 229.631C54.5354 229.648 54.315 229.758 54.1592 229.936C54.0034 230.116 53.9255 230.35 53.9421 230.586ZM327.1 200.866C327.1 199.081 326.993 197.296 326.869 195.618C326.853 195.382 326.743 195.162 326.564 195.005C326.386 194.849 326.152 194.772 325.915 194.788C325.678 194.805 325.457 194.915 325.302 195.093C325.146 195.273 325.068 195.507 325.084 195.743C325.191 197.385 325.298 199.152 325.298 200.866C325.298 201.103 325.393 201.33 325.561 201.497C325.727 201.665 325.954 201.759 326.191 201.759C326.428 201.759 326.658 201.665 326.827 201.498C326.999 201.332 327.096 201.104 327.1 200.866ZM67.1154 241.386C67.2325 241.381 67.3478 241.353 67.4542 241.304C67.5607 241.255 67.6567 241.185 67.7362 241.099C67.8158 241.012 67.8777 240.913 67.918 240.801C67.9585 240.691 67.9771 240.575 67.9722 240.457C67.954 240.224 67.8485 240.005 67.6762 239.846C67.5042 239.689 67.2783 239.601 67.044 239.601C64.8841 239.69 63.0813 239.761 61.2784 239.725C61.0415 239.725 60.8147 239.819 60.6472 239.987C60.4801 240.154 60.3859 240.381 60.3859 240.618C60.3859 240.855 60.4801 241.082 60.6472 241.249C60.8147 241.417 61.0415 241.51 61.2784 241.51C63.1884 241.546 65.1876 241.475 67.1154 241.386ZM338.186 204.757C336.401 204.847 334.418 204.9 332.438 204.9C332.322 204.896 332.205 204.915 332.091 204.957C331.981 204.999 331.883 205.062 331.796 205.143C331.711 205.224 331.643 205.323 331.598 205.431C331.552 205.54 331.526 205.657 331.526 205.775C331.526 206.013 331.621 206.242 331.789 206.413C331.955 206.583 332.182 206.681 332.419 206.685C334.454 206.685 336.096 206.685 338.258 206.542C338.374 206.538 338.488 206.51 338.595 206.461C338.702 206.412 338.8 206.341 338.877 206.255C338.959 206.169 339.02 206.07 339.059 205.958C339.101 205.848 339.118 205.732 339.114 205.614C339.092 205.382 338.985 205.167 338.813 205.009C338.644 204.85 338.42 204.76 338.186 204.757ZM26.096 188.496C26.328 188.675 76.6651 181.213 78.825 179.892C78.9447 179.805 79.0402 179.688 79.1025 179.555C79.1648 179.421 79.1924 179.272 79.182 179.125C79.182 176.822 76.1653 155.206 74.7195 149.815C74.541 149.155 74.3625 148.494 73.9519 148.262C71.2209 146.62 23.0972 155.688 20.2233 157.544C20.1455 157.59 20.0781 157.653 20.0259 157.726C19.9736 157.8 19.9376 157.883 19.9199 157.973C19.313 160.132 24.543 187.425 26.096 188.496ZM21.0087 158.401C24.4359 156.848 68.115 148.851 73.113 149.476C74.3268 152.6 77.5755 175.483 77.7897 178.839C75.3085 179.571 26.7743 187.907 26.5958 187.943C26.4173 187.978 26.3994 188.193 26.0246 187.068C24.4538 182.356 20.9195 162.435 21.0087 158.401Z" fill="#141414"/>
<path d="M82.7519 181.481C82.8489 181.301 82.8924 181.096 82.8768 180.892C82.8768 178.054 78.807 146.548 77.3611 144.032C77.2479 143.846 77.0876 143.694 76.8961 143.59C76.7049 143.487 76.4897 143.436 76.2723 143.443C70.2926 142.711 19.8484 152.564 16.5283 154.867C16.0642 155.188 16.1356 155.991 16.1892 156.848C16.4748 161.542 21.5442 192.423 23.3292 192.244C23.5255 192.244 23.4541 192.102 22.99 193.048C20.2054 198.778 14.9218 217.127 15.0289 220.822C15.0289 222.375 15.3859 224.392 16.921 224.285C27.9345 222.929 81.9308 214.361 97.4603 211.165C98.0672 211.04 98.4599 210.487 98.442 209.577C98.2586 208.06 97.7991 206.59 97.0854 205.239C94.9077 201.152 85.8756 184.962 82.7519 181.481ZM23.4363 191.691C22.044 189.906 16.921 159.151 17.3137 155.741C21.2407 153.706 71.0065 144.085 76.2188 144.871C77.6468 148.798 81.3417 177.161 81.5738 180.571C75.2549 182.748 31.5045 189.817 23.4363 191.691ZM24.2217 192.227C25.7211 191.852 76.79 183.302 81.4667 182.07C84.0192 184.444 95.5503 204.954 96.3 206.703C86.0541 208.488 25.2748 218.645 16.332 220.001C16.4569 214.593 22.0083 195.689 24.2217 192.227Z" fill="#141414"/>
<path d="M30.9345 210.737C32.4874 210.505 65.4385 206.542 77.3445 203.312C77.4178 203.292 77.4808 203.245 77.5194 203.181C77.5577 203.115 77.5687 203.036 77.5499 202.964C77.5307 202.891 77.4837 202.827 77.4181 202.789C77.3529 202.751 77.275 202.739 77.2016 202.758C74.8633 203.24 46.339 207.042 30.8988 210.184C30.8561 210.176 30.8122 210.178 30.7706 210.19C30.7289 210.202 30.6904 210.222 30.6581 210.252C30.6256 210.281 30.6004 210.316 30.5839 210.356C30.5675 210.397 30.5603 210.44 30.5632 210.483C30.566 210.526 30.5785 210.569 30.6001 210.606C30.6215 210.643 30.6513 210.676 30.687 210.7C30.7228 210.725 30.7637 210.742 30.8066 210.748C30.8494 210.754 30.8931 210.75 30.9345 210.737ZM55.0141 86.5368C54.3472 88.0427 53.7867 89.5937 53.3362 91.1778C53.3096 91.4319 53.3797 91.687 53.5326 91.8918C55.3354 94.605 73.8102 115.436 78.6297 118.363C79.2901 118.774 80.0755 119.06 80.5575 118.47C84.0583 114.114 88.6276 110.738 93.82 108.671C98.0462 107.176 102.477 106.339 106.958 106.19C110.528 105.868 111.152 105.511 112.527 103.173C114.148 100.096 116.299 97.3283 118.881 94.9977C122.174 92.119 125.828 89.6826 129.752 87.7506C129.929 87.6507 130.067 87.4942 130.144 87.3066C130.222 87.1191 130.235 86.911 130.18 86.7153C129.577 85.1799 128.779 83.7282 127.806 82.3956C128.449 82.1814 129.163 81.9851 129.163 81.3425C129.163 79.5575 113.598 57.0308 109.278 52.7825C108.832 52.3362 108.189 51.7472 107.6 51.7829C98.6752 52.2827 89.9823 60.7079 84.9486 68.0621C79.183 67.8479 75.4524 67.3302 68.8836 70.097C64.2461 72.0653 60.0653 74.9703 56.6027 78.6293C56.0672 79.1826 52.4259 83.0382 52.3723 83.3417C52.3188 83.6451 52.4258 83.6451 55.0141 86.5368ZM126.414 86.037C118.971 87.3044 114.223 93.4983 110.724 100.228C109.171 103.227 109.314 103.369 107.672 103.334C104.8 103.171 101.919 103.279 99.0679 103.655C96.9762 103.968 94.9199 104.482 92.9275 105.19C88.3936 106.797 83.1993 111.937 80.4325 115.757C80.3738 115.836 80.2988 115.901 80.2131 115.949C80.1274 115.996 80.0327 116.025 79.9346 116.034C79.837 116.042 79.7386 116.03 79.6458 115.998C79.5533 115.965 79.4686 115.914 79.3972 115.847C73.596 109.867 63.3322 99.371 58.1736 93.3377C57.9237 93.0699 58.3521 92.6772 58.602 92.9628C61.9399 96.5328 70.5614 105.083 79.8078 114.383C82.9315 110.402 87.751 105.583 92.517 103.905C95.1159 102.978 97.8204 102.378 100.567 102.12C103.14 101.924 105.724 101.924 108.296 102.12C109.349 100.906 114.562 87.1259 126.378 85.5908C126.413 85.6161 126.441 85.6489 126.461 85.6868C126.482 85.7248 126.493 85.7667 126.495 85.8095C126.497 85.8524 126.488 85.8952 126.472 85.9345C126.454 85.9741 126.429 86.0088 126.396 86.037H126.414ZM107.582 53.2287C111.152 55.7277 125.682 77.237 127.574 81.0033C124.291 82.0435 121.122 83.4131 118.114 85.091C115.266 86.519 112.772 88.5639 110.814 91.0775C108.856 93.5911 107.484 96.5098 106.797 99.6209C100.389 89.1965 91.446 77.7189 85.5019 69.2759C85.8589 69.0438 95.8906 53.9249 107.582 53.2287ZM69.2763 71.0787C75.7915 68.4548 79.3972 69.0617 84.7879 69.2937C90.1429 78.4329 99.7641 91.3206 106.101 99.7637C100.252 98.3798 94.0978 99.2262 88.8399 102.138C85.6804 103.923 81.8248 108.207 79.4508 110.866C76.0236 108.117 56.2458 87.0545 53.0685 83.4845C57.9594 77.951 62.4754 73.7919 69.2763 71.0073V71.0787ZM36.6108 116.471C36.1697 116.162 35.6481 115.987 35.1094 115.968C34.5707 115.949 34.0381 116.086 33.5763 116.364C33.24 116.514 32.9362 116.729 32.6831 116.996C32.4295 117.264 32.2314 117.578 32.0996 117.922C31.9678 118.266 31.9051 118.633 31.915 119.001C31.9248 119.369 32.0071 119.732 32.1572 120.068C32.3071 120.404 32.5221 120.708 32.7892 120.961C33.0567 121.215 33.3711 121.413 33.7152 121.545C34.0592 121.677 34.4256 121.739 34.7939 121.729C35.162 121.719 35.5248 121.637 35.8611 121.487C36.3985 121.37 36.8876 121.092 37.2631 120.69C37.6389 120.288 37.8836 119.782 37.9648 119.238C38.0462 118.694 37.9602 118.138 37.7184 117.644C37.4766 117.15 37.0904 116.741 36.6108 116.471ZM35.4327 120.041C34.1832 120.434 33.4335 120.041 33.13 119.434C32.5588 118.167 33.2728 116.221 35.1292 116.793C36.4323 117.275 37.4854 119.47 35.4327 120.131V120.041ZM127.378 34.7897C127.896 35.8428 130.305 35.4501 131.359 35.111C131.912 34.9325 132.269 34.7361 132.322 34.2006C132.483 32.8619 132.662 21.2594 132.055 20.1348C131.992 20.0169 131.896 19.9202 131.778 19.8567C131.661 19.7932 131.527 19.7656 131.394 19.7778C129.49 19.7725 127.595 20.0493 125.772 20.599C125.04 21.0452 126.735 33.6116 127.378 34.7897ZM126.146 21.0274C127.795 20.7914 129.463 20.7138 131.126 20.7953C131.234 22.1162 130.948 33.558 130.93 33.7365C130.176 34.0069 129.371 34.1046 128.574 34.0221C128.449 33.6116 128.235 32.5049 127.967 31.1126C127.18 27.7858 126.573 24.4191 126.146 21.0274ZM34.8793 101.406C35.0507 101.494 35.2402 101.539 35.4327 101.539C35.6251 101.539 35.8146 101.494 35.986 101.406C36.6757 100.98 37.2225 100.359 37.5568 99.6209C37.6022 99.5027 37.6162 99.3749 37.5974 99.2499C37.5785 99.1246 37.5279 99.0065 37.4497 98.9069C36.5929 97.8894 27.2395 87.0545 26.0971 87.7328C24.6944 88.6408 23.3637 89.6554 22.1166 90.7673C22.0663 90.8124 22.026 90.8672 21.9983 90.9286C21.9706 90.9902 21.9562 91.0568 21.9559 91.1243C21.9202 92.0525 32.3089 100.371 34.8793 101.406ZM26.3113 88.1969C27.6144 89.1429 32.0055 94.5693 36.0753 99.371C35.9003 99.6465 35.6835 99.8935 35.4327 100.103C31.1537 97.3643 27.0683 94.3344 23.2054 91.035C24.1738 90.0182 25.2116 89.0699 26.3113 88.1969ZM54.3537 48.8198C54.7464 41.894 58.7804 38.681 62.993 37.8599C61.7971 42.251 61.9935 47.963 66.331 48.6948C68.4016 49.034 69.4191 47.963 70.9185 46.7135C77.3266 41.3585 72.1501 36.0035 64.9208 36.3783C67.6162 28.9885 73.8459 22.973 82.1104 22.7767C82.186 22.7767 82.2587 22.7466 82.3123 22.693C82.3658 22.6394 82.396 22.5668 82.396 22.491C82.396 22.4153 82.3658 22.3426 82.3123 22.2891C82.2587 22.2355 82.186 22.2055 82.1104 22.2055C73.1854 22.027 66.1704 28.453 63.4036 36.4854C58.6377 37.3065 53.9074 40.8765 53.7825 48.7127C53.7753 48.7503 53.7756 48.7886 53.7838 48.8259C53.7915 48.8633 53.8068 48.8986 53.8282 48.9304C53.85 48.9619 53.8772 48.9889 53.9094 49.0096C53.9412 49.0304 53.9772 49.045 54.0145 49.0518C54.0522 49.059 54.0904 49.0583 54.1278 49.0505C54.1651 49.0427 54.2005 49.0275 54.2323 49.0061C54.2638 48.9843 54.2907 48.9571 54.3115 48.9249C54.3322 48.8931 54.3465 48.8574 54.3537 48.8198ZM64.5103 37.6457C67.17 37.4672 71.1326 38.2883 72.2215 40.698C72.8462 42.0725 72.2215 43.7682 70.0081 45.6246C69.407 46.2267 68.7216 46.7378 67.9732 47.1419C65.2957 48.2843 62.3326 44.982 64.5103 37.6457ZM69.6154 290.098C67.8908 289.636 66.0915 289.524 64.3227 289.768C62.5539 290.012 60.852 290.607 59.3169 291.519C57.7818 292.429 56.4444 293.638 55.3838 295.075C54.3228 296.511 53.5598 298.144 53.1399 299.88C52.347 303.486 53.0185 307.258 55.007 310.367C56.9955 313.477 60.1377 315.67 63.7428 316.463C67.3478 317.256 71.1203 316.585 74.2298 314.596C77.3399 312.607 79.5325 309.465 80.3254 305.86C80.6642 304.121 80.6555 302.333 80.2994 300.597C79.9437 298.861 79.2479 297.215 78.2525 295.749C77.2568 294.284 75.981 293.03 74.4988 292.06C73.0163 291.09 71.3566 290.424 69.6154 290.098ZM75.1311 304.646C74.4148 307.502 72.7002 310.008 70.2973 311.71C67.8943 313.413 64.9614 314.2 62.0292 313.928C59.3374 312.876 57.1026 310.908 55.7184 308.372C54.3342 305.834 53.8886 302.891 54.4608 300.059C55.1287 297.133 56.8273 294.545 59.2462 292.768C61.665 290.992 64.6424 290.146 67.6341 290.384C70.3524 291.507 72.5876 293.552 73.9458 296.161C75.304 298.77 75.6987 301.775 75.0597 304.646H75.1311Z" fill="#141414"/>
<path d="M93.3911 295.185C91.8372 294.65 90.1716 294.52 88.5538 294.811C87.8829 293.273 87.0579 291.807 86.0905 290.437C87.2507 289.384 90.428 286.457 89.6605 285.082C86.9288 281.814 83.6856 279.012 80.0569 276.782C78.5419 275.933 76.8737 275.393 75.1484 275.193C74.006 275.354 71.2925 279.799 70.6856 280.798C70.2929 280.798 68.9009 280.352 68.7938 280.299C68.7938 279.013 68.419 274.372 67.2587 273.837C65.9612 273.359 64.614 273.029 63.2425 272.855C61.9751 272.659 50.569 274.747 49.73 276.282C49.1767 277.318 50.4619 281.227 50.8367 282.316C49.8741 282.845 48.9495 283.442 48.07 284.101C46.285 285.368 46.7669 285.314 46.4456 285.172C46.0571 284.986 45.6411 284.865 45.214 284.815C43.7879 283.979 42.1162 283.663 40.4837 283.922C38.8415 284.458 34.9681 293.275 34.3433 295.542C34.1389 296.114 34.0837 296.728 34.1827 297.327C34.6111 298.506 37.4671 299.452 38.663 299.826C38.3326 302.123 38.3326 304.455 38.663 306.752C37.0922 307.181 33.8254 308.145 34.0039 309.751C34.1824 311.358 38.3593 321.96 40.0907 322.799C41.0393 323.33 42.0883 323.656 43.1703 323.757C44.2523 323.858 45.3435 323.733 46.3742 323.388C46.9545 323.098 47.5153 322.771 48.0521 322.407C48.7661 322.942 49.5158 323.424 50.2834 323.888C49.73 325.263 48.4984 328.333 48.8911 329.725C49.0874 330.459 49.6765 330.689 50.4976 330.994C52.7645 331.815 64.9739 334.743 66.8303 334.421C67.5265 334.314 67.9013 333.581 68.1155 332.886C68.5121 331.299 68.7455 329.68 68.8114 328.047C69.7282 327.956 70.6398 327.82 71.5427 327.638C72.0941 328.606 72.7994 329.482 73.6312 330.225C74.5415 330.868 75.3091 330.546 76.3444 329.887C76.8442 330.53 77.5939 331.423 78.3971 331.51C80.4142 331.744 88.7501 323.888 89.6069 322.282C90.3209 320.943 87.7148 318.551 86.5546 317.498C87.8096 315.609 88.7949 313.555 89.482 311.393C90.7694 311.587 92.0725 311.66 93.3733 311.607C93.9623 311.607 94.6406 311.393 94.8905 310.84C95.9794 308.359 95.6581 298.952 94.8905 296.56C94.7834 295.864 93.9802 295.4 93.3911 295.185ZM93.8195 296.828C94.4264 299.148 94.6224 307.913 93.7299 310.179C92.1867 310.331 90.6296 310.26 89.1068 309.965C88.9445 309.937 88.7774 309.971 88.6388 310.06C88.4999 310.15 88.3996 310.288 88.3574 310.447C87.6467 312.86 86.5429 315.14 85.0905 317.194C84.9873 317.331 84.9406 317.501 84.9607 317.672C84.9805 317.842 85.0659 317.996 85.198 318.105C86.4504 319.097 87.5143 320.306 88.3396 321.675C87.4471 323.139 80.4677 329.53 78.5399 330.066C78.2543 330.066 77.4689 328.995 77.2726 328.709C76.6131 327.716 76.0172 326.687 75.4876 325.62C75.4103 325.464 75.2776 325.344 75.116 325.282C74.954 325.217 74.7746 325.217 74.6126 325.282C69.4361 327.226 67.4729 326.084 67.4729 327.369C67.4752 329.294 67.1617 331.205 66.5444 333.029C62.3497 332.571 58.2192 331.65 54.2282 330.28C54.421 328.372 54.9526 326.515 55.799 324.799C56.3345 323.603 54.1925 323.942 50.1941 319.872C50.0653 319.753 49.8965 319.686 49.7213 319.686C49.5457 319.686 49.3769 319.753 49.2481 319.872C47.4631 321.336 45.1426 322.764 44.6785 322.532C43.7681 322.085 39.5734 312.571 39.3235 310.644C40.5931 309.759 42.0344 309.15 43.5539 308.859C43.7159 308.812 43.8558 308.71 43.9479 308.568C44.0394 308.427 44.0774 308.257 44.0537 308.091C43.6162 305.564 43.6162 302.978 44.0537 300.451C44.081 300.295 44.0482 300.136 43.9622 300.004C43.8759 299.871 43.7428 299.776 43.5896 299.737C42.2437 299.385 40.9485 298.863 39.734 298.184C39.3413 297.899 39.377 297.917 39.4127 297.613C40.5681 293.447 42.4209 289.505 44.8927 285.957C45.8566 285.689 48.4627 287.599 49.3552 288.277C49.4483 288.368 49.5733 288.419 49.7031 288.419C49.8332 288.419 49.9582 288.368 50.0513 288.277C50.8715 287.427 51.7545 286.64 52.6931 285.921C55.4063 283.869 56.1382 284.136 55.9061 283.422C55.0854 281.631 54.6245 279.696 54.5495 277.728C54.826 277.498 55.1402 277.318 55.4777 277.193C57.1443 276.534 58.8562 275.997 60.6007 275.586C62.7151 274.997 64.8883 274.643 67.0802 274.533C67.4551 274.694 67.7942 276.318 67.8835 276.818C68.5439 280.388 68.0977 281.12 68.6153 281.173C73.7026 281.673 74.7379 283.083 75.0949 282.458C76.0847 280.727 77.2385 279.095 78.5399 277.585C78.9148 277.211 78.8969 277.032 80.0215 277.675C83.3812 279.87 86.39 282.56 88.9465 285.654C89.2142 286.118 86.8937 288.581 85.198 290.027C84.6089 290.544 85.4479 290.777 86.983 293.704C88.5181 296.631 88.1608 297.452 88.9818 297.274C90.565 296.895 92.1939 296.744 93.8195 296.828ZM341.558 147.673C337.816 146.145 333.896 145.107 329.887 144.585C326.96 144.121 323.513 143.657 320.604 143.282C323.406 139.319 331.705 129.288 333.097 126.842C333.49 126.182 332.743 125.253 332.188 124.7C329.083 121.38 323.085 120.13 318.48 119.416C315.838 118.988 304.807 117.632 302.932 118.524C300.683 119.595 284.047 144.585 283.547 148.387C283.547 149.03 283.761 149.28 284.386 149.512C287.01 150.476 298.845 151.975 301.486 152.6C297.916 158.847 282.048 179.964 280.495 182.945C280.12 183.694 280.352 184.141 280.798 184.283C282.405 184.921 284.057 185.435 285.743 185.819C286.385 186.015 287.795 185.14 289.848 183.891C299.059 178.357 338.579 152.26 341.613 148.887C341.698 148.808 341.762 148.712 341.808 148.604C341.85 148.498 341.87 148.383 341.863 148.268C341.86 148.153 341.827 148.04 341.775 147.937C341.724 147.835 341.649 147.745 341.558 147.673ZM303.2 169.093C288.027 179.107 282.905 182.034 282.726 182.159C285.172 178.429 300.362 157.615 302.968 152.635C303.012 152.539 303.036 152.434 303.036 152.327C303.036 152.222 303.011 152.116 302.965 152.021C302.919 151.924 302.852 151.841 302.769 151.774C302.687 151.707 302.59 151.659 302.486 151.636C300.701 150.993 287.706 149.601 284.636 148.512C285.029 145.192 301.237 120.095 303.2 119.095C305.163 118.096 324.209 120.363 327.781 122.915C325.905 126.574 315.552 139.391 313.874 142.372C313.535 142.979 313.428 143.568 314.089 143.728C314.749 143.889 331.526 145.852 335.187 147.048C330.725 150.779 308.198 165.737 303.2 169.022V169.093ZM188.692 59.9582C188.692 60.1188 188.799 60.3152 189.067 61.3505C189.137 61.575 189.292 61.7636 189.498 61.8769C189.704 61.9898 189.946 62.0187 190.174 61.9574C190.401 61.8911 190.593 61.7373 190.706 61.5296C190.821 61.3222 190.848 61.0778 190.781 60.8507C190.602 60.1545 190.442 59.5654 190.334 59.2798C190.23 59.0838 190.058 58.9336 189.848 58.8586C189.64 58.7833 189.411 58.7885 189.205 58.8732C189 58.9579 188.833 59.116 188.74 59.3165C188.645 59.5171 188.627 59.7459 188.692 59.9582Z" fill="#141414"/>
</svg>
