<svg width="72" height="72" viewBox="0 0 72 72" fill="none" xmlns="http://www.w3.org/2000/svg">
<rect width="72" height="72" rx="8" fill="#141414"/>
<path d="M49.3331 26.8334H22.6664C22.4453 26.8334 22.2334 26.9212 22.0771 27.0775C21.9208 27.2337 21.833 27.4457 21.833 27.6667V48.5C21.8343 49.6047 22.2737 50.6638 23.0548 51.4449C23.8359 52.226 24.895 52.6654 25.9997 52.6667H45.9997C47.1044 52.6654 48.1635 52.226 48.9446 51.4449C49.7257 50.6638 50.1651 49.6047 50.1664 48.5V27.6667C50.1663 27.4457 50.0785 27.2337 49.9223 27.0775C49.766 26.9212 49.5541 26.8334 49.3331 26.8334Z" fill="#00CF66"/>
<path d="M41.8374 44.5006L39.735 46.8536L40.0528 49.9932C40.0675 50.1382 40.0439 50.2845 39.9843 50.4175C39.9248 50.5506 39.8314 50.6656 39.7135 50.7513C39.5956 50.837 39.4573 50.8902 39.3123 50.9057C39.1674 50.9212 39.021 50.8984 38.8876 50.8396L36 49.5671L33.1124 50.8396C32.979 50.8984 32.8326 50.9212 32.6877 50.9057C32.5427 50.8902 32.4044 50.8369 32.2865 50.7513C32.1686 50.6656 32.0752 50.5505 32.0157 50.4175C31.9562 50.2845 31.9326 50.1382 31.9472 49.9932L32.2651 46.8536L30.1625 44.5006C30.0654 44.3919 29.9985 44.2596 29.9685 44.117C29.9385 43.9744 29.9465 43.8264 29.9915 43.6877C30.0366 43.5491 30.1172 43.4248 30.2254 43.3271C30.3335 43.2294 30.4654 43.1617 30.6078 43.1309L33.692 42.463L35.2801 39.7364C35.3535 39.6105 35.4586 39.506 35.5849 39.4334C35.7113 39.3607 35.8545 39.3225 36.0002 39.3225C36.146 39.3225 36.2892 39.3607 36.4155 39.4334C36.5419 39.506 36.647 39.6105 36.7203 39.7364L38.3085 42.463L41.3926 43.1309C41.535 43.1618 41.6668 43.2295 41.7749 43.3272C41.883 43.425 41.9636 43.5493 42.0086 43.6879C42.0536 43.8265 42.0615 43.9745 42.0314 44.1171C42.0014 44.2597 41.9345 44.3919 41.8374 44.5006Z" fill="#00B157"/>
<path d="M41.8374 42.4173L39.7349 44.7704L40.0527 47.9099C40.0674 48.0549 40.0438 48.2012 39.9843 48.3343C39.9247 48.4673 39.8313 48.5824 39.7134 48.6681C39.5955 48.7537 39.4572 48.807 39.3123 48.8225C39.1673 48.838 39.0209 48.8152 38.8875 48.7564L36 47.4839L33.1124 48.7564C32.979 48.8152 32.8326 48.8379 32.6877 48.8224C32.5427 48.8069 32.4044 48.7537 32.2865 48.668C32.1686 48.5823 32.0752 48.4673 32.0157 48.3342C31.9562 48.2012 31.9326 48.0549 31.9472 47.9099L32.2651 44.7704L30.1625 42.4173C30.0654 42.3086 29.9985 42.1764 29.9685 42.0337C29.9385 41.8911 29.9465 41.7431 29.9915 41.6045C30.0366 41.4659 30.1172 41.3415 30.2254 41.2438C30.3335 41.1461 30.4654 41.0785 30.6078 41.0476L33.692 40.3798L35.2801 37.6532C35.3535 37.5272 35.4586 37.4227 35.5849 37.3501C35.7113 37.2775 35.8545 37.2393 36.0002 37.2393C36.146 37.2393 36.2892 37.2775 36.4155 37.3501C36.5419 37.4227 36.647 37.5272 36.7203 37.6532L38.3085 40.3798L41.3926 41.0476C41.535 41.0785 41.6668 41.1462 41.7749 41.244C41.883 41.3417 41.9636 41.4661 42.0086 41.6047C42.0536 41.7433 42.0615 41.8913 42.0314 42.0339C42.0014 42.1764 41.9345 42.3087 41.8374 42.4173Z" fill="#FAC100"/>
<path d="M50.1664 36.3374V27.6666C50.1664 27.4456 50.0786 27.2336 49.9223 27.0773C49.766 26.9211 49.554 26.8333 49.333 26.8333H22.6664C22.4453 26.8333 22.2334 26.9211 22.0771 27.0773C21.9208 27.2336 21.833 27.4456 21.833 27.6666V36.3374C22.8836 36.7104 24.0288 36.7209 25.086 36.3672C26.1432 36.0136 27.0516 35.3162 27.6664 34.3862C28.122 35.0745 28.7409 35.6392 29.468 36.0299C30.1951 36.4205 31.0077 36.625 31.833 36.625C32.6584 36.625 33.471 36.4205 34.1981 36.0299C34.9252 35.6392 35.5441 35.0745 35.9997 34.3862C36.4553 35.0745 37.0743 35.6392 37.8014 36.0299C38.5285 36.4205 39.341 36.625 40.1664 36.625C40.9918 36.625 41.8043 36.4205 42.5314 36.0299C43.2585 35.6392 43.8775 35.0745 44.3331 34.3862C44.9478 35.3162 45.8562 36.0136 46.9135 36.3672C47.9707 36.7209 49.1159 36.7104 50.1665 36.3374H50.1664Z" fill="#00B157"/>
<path d="M53.1587 28.0579H53.1583L50.5177 20.9615C50.3385 20.4845 50.0184 20.0732 49.5999 19.7824C49.1814 19.4916 48.6844 19.335 48.1747 19.3335H23.8244C23.3148 19.335 22.8177 19.4916 22.3992 19.7825C21.9807 20.0733 21.6606 20.4846 21.4815 20.9617L18.8408 28.058C18.5127 28.9419 18.4815 29.8799 18.753 30.6994C19.0482 31.5896 19.5878 32.3788 20.3103 32.9768C21.0327 33.5748 21.9088 33.9576 22.8384 34.0814C23.7681 34.2052 24.7138 34.065 25.5675 33.6769C26.4213 33.2887 27.1487 32.6683 27.6665 31.8864C28.1221 32.5747 28.7411 33.1394 29.4682 33.53C30.1953 33.9207 31.0078 34.1252 31.8332 34.1252C32.6586 34.1252 33.4712 33.9207 34.1982 33.53C34.9253 33.1394 35.5443 32.5747 35.9999 31.8864C36.4555 32.5747 37.0745 33.1394 37.8016 33.53C38.5287 33.9207 39.3412 34.1252 40.1666 34.1252C40.992 34.1252 41.8045 33.9207 42.5316 33.53C43.2587 33.1394 43.8777 32.5747 44.3333 31.8864C44.8512 32.6682 45.5786 33.2886 46.4323 33.6767C47.286 34.0648 48.2317 34.2049 49.1613 34.0811C50.0909 33.9573 50.9669 33.5745 51.6893 32.9765C52.4117 32.3785 52.9514 31.5894 53.2466 30.6993C53.5185 29.8797 53.4872 28.9417 53.1587 28.0579Z" fill="#FD3730"/>
<path d="M18.8408 28.0579C18.5127 28.9417 18.4815 29.8798 18.753 30.6993C19.0482 31.5895 19.5878 32.3786 20.3103 32.9767C21.0327 33.5747 21.9088 33.9575 22.8384 34.0813C23.7681 34.205 24.7138 34.0649 25.5675 33.6767C26.4213 33.2886 27.1487 32.6681 27.6665 31.8862C28.1221 32.5745 28.7411 33.1392 29.4682 33.5299C30.1953 33.9205 31.0078 34.125 31.8332 34.125C32.6586 34.125 33.4712 33.9205 34.1982 33.5299C34.9253 33.1392 35.5443 32.5745 35.9999 31.8862C36.4555 32.5745 37.0745 33.1392 37.8016 33.5299C38.5287 33.9205 39.3412 34.125 40.1666 34.125C40.992 34.125 41.8045 33.9205 42.5316 33.5299C43.2587 33.1392 43.8777 32.5745 44.3333 31.8862C44.8512 32.6681 45.5785 33.2885 46.4323 33.6766C47.286 34.0647 48.2317 34.2049 49.1613 34.0811C50.0909 33.9573 50.9669 33.5745 51.6894 32.9765C52.4118 32.3785 52.9514 31.5894 53.2467 30.6993C53.5185 29.8798 53.4872 28.9415 53.1588 28.0579H53.1584L53.013 27.6669H18.9864L18.8408 28.0579Z" fill="#D3241F"/>
<path d="M53.1584 28.0577L50.5178 20.9614C50.3386 20.4844 50.0185 20.0731 49.6 19.7823C49.1815 19.4915 48.6844 19.3349 48.1748 19.3334H42.8623L44.2314 27.0919C44.299 27.4744 44.3329 27.8621 44.333 28.2505V31.8863C44.8509 32.6682 45.5783 33.2887 46.432 33.6769C47.2858 34.065 48.2315 34.2052 49.1612 34.0814C50.0909 33.9576 50.9669 33.5748 51.6894 32.9767C52.4118 32.3787 52.9515 31.5895 53.2467 30.6993C53.5185 29.8798 53.4871 28.9415 53.1588 28.0579L53.1584 28.0577Z" fill="#EAEFF0"/>
<path d="M44.3332 28.2504V31.8862C44.8511 32.6681 45.5785 33.2885 46.4322 33.6767C47.286 34.0648 48.2317 34.205 49.1613 34.0812C50.0909 33.9574 50.967 33.5746 51.6894 32.9766C52.4118 32.3786 52.9515 31.5894 53.2468 30.6993C53.5186 29.8798 53.4872 28.9415 53.1589 28.0579H53.1585L53.013 27.6669H44.3076C44.3246 27.8607 44.3331 28.0552 44.3332 28.2504Z" fill="#D9E1E2"/>
<path d="M29.1372 19.3334L27.7681 27.0919C27.7006 27.4744 27.6666 27.8621 27.6665 28.2505V31.8863C28.1221 32.5746 28.7411 33.1393 29.4682 33.53C30.1953 33.9206 31.0078 34.1251 31.8332 34.1251C32.6586 34.1251 33.4711 33.9206 34.1982 33.53C34.9253 33.1393 35.5443 32.5746 35.9999 31.8863V19.3334H29.1372Z" fill="#EAEFF0"/>
<path d="M27.6922 27.6666C27.6751 27.8606 27.6666 28.0552 27.6665 28.2504V31.8862C28.1221 32.5745 28.7411 33.1392 29.4682 33.5299C30.1953 33.9205 31.0078 34.125 31.8332 34.125C32.6586 34.125 33.4711 33.9205 34.1982 33.5299C34.9253 33.1392 35.5443 32.5745 35.9999 31.8862V27.6667L27.6922 27.6666Z" fill="#D9E1E2"/>
</svg>
