<svg width="15" height="16" viewBox="0 0 15 16" fill="none" xmlns="http://www.w3.org/2000/svg">
<g clip-path="url(#clip0_148_3350)">
<path d="M14.9926 8.1497C14.9926 7.49419 14.9416 7.01584 14.8311 6.51978H7.6499V9.47843H11.8651C11.7802 10.2137 11.3212 11.321 10.3014 12.0651L10.2871 12.1641L12.5577 13.9976L12.715 14.0139C14.1597 12.6232 14.9926 10.5769 14.9926 8.1497Z" fill="#4285F4"/>
<path d="M7.64971 15.9451C9.71482 15.9451 11.4485 15.2364 12.7148 14.014L10.3012 12.0651C9.65535 12.5346 8.78848 12.8623 7.64971 12.8623C5.62708 12.8623 3.91039 11.4716 3.29844 9.54932L3.20875 9.55726L0.84777 11.4618L0.816895 11.5513C2.07466 14.1556 4.65821 15.9451 7.64971 15.9451Z" fill="#34A853"/>
<path d="M3.29786 9.54936C3.13639 9.0533 3.04295 8.52176 3.04295 7.97257C3.04295 7.42332 3.1364 6.89184 3.28937 6.39577L3.28509 6.29013L0.894537 4.35498L0.816322 4.39376C0.297938 5.47449 0.000488281 6.68811 0.000488281 7.97257C0.000488281 9.25703 0.297938 10.4706 0.816322 11.5513L3.29786 9.54936Z" fill="#FBBC05"/>
<path d="M7.64969 3.08269C9.0859 3.08269 10.0547 3.72934 10.6071 4.26974L12.7657 2.07286C11.44 0.788397 9.71479 0 7.64969 0C4.6582 0 2.07466 1.78937 0.816895 4.39371L3.28994 6.39573C3.91038 4.47347 5.62706 3.08269 7.64969 3.08269Z" fill="#EB4335"/>
</g>
<defs>
<clipPath id="clip0_148_3350">
<rect width="15" height="16" fill="white"/>
</clipPath>
</defs>
</svg>
