<svg width="72" height="72" viewBox="0 0 72 72" fill="none" xmlns="http://www.w3.org/2000/svg">
<rect width="72" height="72" rx="8" fill="#F7F7F7"/>
<path d="M38.5 37.25H33.5C30.5163 37.25 27.6548 38.4353 25.545 40.545C23.4353 42.6548 22.25 45.5163 22.25 48.5V49.75C22.25 50.7446 22.6451 51.6984 23.3483 52.4017C24.0516 53.1049 25.0054 53.5 26 53.5H46C46.9946 53.5 47.9484 53.1049 48.6517 52.4017C49.3549 51.6984 49.75 50.7446 49.75 49.75V48.5C49.75 45.5163 48.5647 42.6548 46.455 40.545C44.3452 38.4353 41.4837 37.25 38.5 37.25Z" fill="#2D4A60"/>
<path d="M36 36C40.8325 36 44.75 32.0825 44.75 27.25C44.75 22.4175 40.8325 18.5 36 18.5C31.1675 18.5 27.25 22.4175 27.25 27.25C27.25 32.0825 31.1675 36 36 36Z" fill="#FFD188"/>
<path d="M27.4448 25.4175C28.5907 25.8018 29.7912 25.9985 30.9998 26C33.7694 26.0025 36.4416 24.9782 38.4998 23.125C40.211 24.6616 42.3532 25.6351 44.6361 25.9138C44.3241 23.8934 43.314 22.0462 41.7814 20.6932C40.2488 19.3403 38.2905 18.5671 36.2471 18.5082C34.2036 18.4492 32.204 19.1081 30.5959 20.3704C28.9878 21.6326 27.8729 23.4185 27.4448 25.4175Z" fill="#E67244"/>
<path d="M33.5001 37.25L34.7501 39.75L32.6539 47.085C32.5313 47.5138 32.5257 47.9675 32.6376 48.3992C32.7494 48.8308 32.9747 49.2247 33.2901 49.54L35.1164 51.3663C35.3508 51.6006 35.6687 51.7322 36.0001 51.7322C36.3316 51.7322 36.6494 51.6006 36.8839 51.3663L38.7101 49.54C39.0255 49.2247 39.2508 48.8308 39.3626 48.3992C39.4745 47.9675 39.4689 47.5138 39.3464 47.085L37.2501 39.75L38.5001 37.25H33.5001Z" fill="#FD3730"/>
<path d="M47.875 53.5C44.6687 53.5 42.25 51.8875 42.25 49.75V39.75C42.25 37.6125 44.6687 36 47.875 36C51.0813 36 53.5 37.6125 53.5 39.75V49.75C53.5 51.8875 51.0813 53.5 47.875 53.5Z" fill="#FF9500"/>
<path d="M47.875 43.5C50.9816 43.5 53.5 41.8211 53.5 39.75C53.5 37.6789 50.9816 36 47.875 36C44.7684 36 42.25 37.6789 42.25 39.75C42.25 41.8211 44.7684 43.5 47.875 43.5Z" fill="#FAC100"/>
<path d="M42.25 46C42.25 48.0712 44.7688 49.75 47.875 49.75C50.9812 49.75 53.5 48.0712 53.5 46V43.5C53.5 45.5712 50.9812 47.25 47.875 47.25C44.7688 47.25 42.25 45.5712 42.25 43.5V46Z" fill="#FF7F00"/>
</svg>
