<svg width="18" height="10" viewBox="0 0 18 10" fill="none" xmlns="http://www.w3.org/2000/svg">
<path d="M0.52187 0.991029C0.882119 0.713964 1.39837 0.780518 1.67665 1.13927L1.67945 1.14279C1.68317 1.14743 1.69039 1.15634 1.70112 1.16917C1.72259 1.19485 1.75806 1.23615 1.80768 1.29036C1.90698 1.39885 2.06247 1.5585 2.27516 1.74761C2.70088 2.12612 3.35263 2.61984 4.23897 3.05849C5.40241 3.63427 6.97929 4.11999 8.99982 4.11999C11.0204 4.11999 12.5972 3.63427 13.7607 3.05849C14.647 2.61984 15.2988 2.12612 15.7245 1.74761C15.9372 1.5585 16.0927 1.39885 16.192 1.29036C16.2416 1.23615 16.2771 1.19484 16.2985 1.16917C16.3093 1.15634 16.3165 1.14743 16.3202 1.14279L16.3219 1.14065L16.3227 1.1397C16.6009 0.780931 17.1175 0.713958 17.4778 0.991029C17.8389 1.2688 17.9066 1.78677 17.6288 2.14794L17.6274 2.14976L17.6256 2.15202L17.6211 2.15784L17.6078 2.17461C17.597 2.18801 17.5825 2.20581 17.5643 2.22766C17.5277 2.27134 17.4761 2.33124 17.4091 2.40443C17.2751 2.55074 17.0796 2.75067 16.8208 2.9807C16.434 3.32465 15.9043 3.73742 15.227 4.13882L16.5703 6.76984C16.7775 7.17564 16.6165 7.67257 16.2107 7.87976C15.8049 8.08695 15.308 7.92594 15.1008 7.52014L13.7489 4.87244C12.6707 5.31259 11.3644 5.65411 9.82482 5.74569V8.24499C9.82482 8.70062 9.45546 9.06999 8.99982 9.06999C8.54419 9.06999 8.17482 8.70062 8.17482 8.24499V5.74569C6.6352 5.65411 5.32892 5.31259 4.25072 4.87244L2.89888 7.52014C2.69169 7.92594 2.19476 8.08695 1.78896 7.87976C1.38316 7.67257 1.22215 7.17564 1.42934 6.76984L2.77266 4.13882C2.09537 3.73742 1.56565 3.32465 1.17881 2.9807C0.920091 2.75067 0.724502 2.55074 0.590573 2.40443C0.523577 2.33124 0.471904 2.27134 0.435374 2.22766C0.417105 2.20581 0.402612 2.18801 0.391871 2.1746L0.378568 2.15784L0.374018 2.15202L0.372268 2.14976L0.371524 2.1488C0.0937497 1.78762 0.160699 1.2688 0.52187 0.991029Z" fill="#333333"/>
</svg>
