<svg width="24" height="24" viewBox="0 0 24 24" fill="none" xmlns="http://www.w3.org/2000/svg">
<g clip-path="url(#clip0_918_2309)">
<path fill-rule="evenodd" clip-rule="evenodd" d="M12 4C10.3386 4 9 5.34457 9 7.00451C9 8.61526 10.251 9.91907 11.8302 9.99846C11.9388 9.99171 12.0526 9.99132 12.1627 9.99836C13.7397 9.91802 14.9922 8.61546 15 7.00242C14.9989 5.34491 13.6532 4 12 4ZM7 7.00451C7 4.24506 9.22897 2 12 2C14.7606 2 17 4.24359 17 7.00451V7.00867H17C16.9888 9.70611 14.8639 11.909 12.1778 11.9994C12.1333 12.0009 12.0888 11.9995 12.0445 11.995C12.0236 11.9929 11.9794 11.9921 11.9375 11.9959C11.8962 11.9996 11.8547 12.0008 11.8132 11.9994C9.1278 11.9091 7 9.70592 7 7.00451ZM12.0066 13C13.7398 13 15.5275 13.4001 16.9272 14.2625C18.1894 15.0376 19 16.1815 19 17.4939C19 18.8058 18.19 19.9514 16.9288 20.7304L16.9286 20.7306C15.5248 21.5973 13.7346 22 12 22C10.2658 22 8.47598 21.5975 7.07236 20.7311C5.81042 19.956 5 18.8122 5 17.5C5 16.1881 5.81005 15.0425 7.07123 14.2635L7.07487 14.2612L7.07487 14.2612C8.48188 13.4004 10.2727 13 12.0066 13ZM8.12058 15.9661C7.25413 16.5019 7 17.085 7 17.5C7 17.9145 7.25358 18.4956 8.11996 19.0275L8.12213 19.0288C9.13772 19.6558 10.5411 20 12 20C13.4589 20 14.8623 19.6558 15.8779 19.0288C16.7456 18.4927 17 17.9092 17 17.4939C17 17.0794 16.7464 16.4983 15.88 15.9665L15.8786 15.9655C14.8678 15.3426 13.4666 15 12.0066 15C10.5478 15 9.14157 15.342 8.12058 15.9661Z" fill="#6F767E"/>
</g>
<defs>
<clipPath id="clip0_918_2309">
<rect width="24" height="24" fill="white"/>
</clipPath>
</defs>
</svg>
