<svg width="68" height="53" viewBox="0 0 68 53" fill="none" xmlns="http://www.w3.org/2000/svg">
<g clip-path="url(#clip0_148_2680)">
<path d="M12.3613 52.7368V49.2289C12.3613 47.8839 11.5447 47.0072 10.1452 47.0072C9.4455 47.0072 8.68741 47.241 8.16253 48.0011C7.75453 47.3579 7.17148 47.0072 6.29678 47.0072C5.71347 47.0072 5.13069 47.1824 4.66398 47.8256V47.1241H3.43945V52.7368H4.66398V49.638C4.66398 48.6443 5.18886 48.1764 6.00539 48.1764C6.82139 48.1764 7.22992 48.7026 7.22992 49.638V52.7368H8.45445V49.638C8.45445 48.6443 9.03723 48.1764 9.79533 48.1764C10.6119 48.1764 11.0199 48.7026 11.0199 49.638V52.7368H12.3613ZM30.4957 47.1241H28.5134V45.4286H27.2889V47.1241H26.1809V48.2347H27.2886V50.8074C27.2886 52.0938 27.8135 52.8537 29.213 52.8537C29.7379 52.8537 30.3207 52.6784 30.7292 52.4446L30.3791 51.392C30.0293 51.6259 29.6213 51.6845 29.3297 51.6845C28.7466 51.6845 28.5134 51.3337 28.5134 50.7489V48.2347H30.4957V47.1241ZM40.8753 47.0069C40.1757 47.0069 39.7092 47.3579 39.4176 47.8256V47.1241H38.193V52.7368H39.4176V49.5797C39.4176 48.6443 39.8256 48.118 40.5837 48.118C40.8169 48.118 41.1085 48.1766 41.3418 48.235L41.6916 47.0658C41.4584 47.0072 41.1085 47.0072 40.8753 47.0072V47.0069ZM25.1896 47.5918C24.6063 47.1824 23.79 47.0072 22.9153 47.0072C21.516 47.0072 20.5832 47.7087 20.5832 48.8195C20.5832 49.7552 21.2828 50.2812 22.5073 50.4567L23.0904 50.5153C23.7319 50.6319 24.0817 50.8075 24.0817 51.0999C24.0817 51.509 23.6153 51.8014 22.7987 51.8014C21.9825 51.8014 21.341 51.509 20.9327 51.2168L20.3497 52.1522C20.9912 52.6198 21.8659 52.8537 22.7403 52.8537C24.3731 52.8537 25.3062 52.0938 25.3062 51.0413C25.3062 50.0473 24.5481 49.5211 23.3818 49.3458L22.7987 49.2872C22.2739 49.2286 21.8659 49.112 21.8659 48.7612C21.8659 48.3519 22.2739 48.118 22.9153 48.118C23.6153 48.118 24.3149 48.4102 24.6647 48.5857L25.1896 47.5918ZM57.7274 47.0072C57.0274 47.0072 56.561 47.3579 56.2693 47.8256V47.1241H55.0448V52.7368H56.2693V49.5797C56.2693 48.6443 56.6776 48.118 57.4354 48.118C57.6689 48.118 57.9606 48.1766 58.1938 48.235L58.5436 47.0658C58.3104 47.0072 57.9606 47.0072 57.7274 47.0072ZM42.0998 49.9304C42.0998 51.6259 43.2659 52.8537 45.0738 52.8537C45.89 52.8537 46.4731 52.6784 47.0561 52.2107L46.4731 51.2168C46.0067 51.5676 45.5402 51.7428 45.0153 51.7428C44.024 51.7428 43.3244 51.0413 43.3244 49.9304C43.3244 48.8781 44.024 48.1764 45.0153 48.118C45.5402 48.118 46.0067 48.2933 46.4731 48.6443L47.0561 47.6504C46.4731 47.1824 45.89 47.0072 45.0738 47.0072C43.2659 47.0072 42.0998 48.235 42.0998 49.9304ZM53.4123 49.9304V47.1241H52.1878V47.8256C51.7795 47.2996 51.1964 47.0072 50.4383 47.0072C48.864 47.0072 47.6395 48.235 47.6395 49.9304C47.6395 51.6259 48.864 52.8537 50.4383 52.8537C51.2546 52.8537 51.8379 52.5615 52.1878 52.0352V52.7368H53.4123V49.9304ZM48.9222 49.9304C48.9222 48.9365 49.5636 48.118 50.6131 48.118C51.6044 48.118 52.3044 48.8781 52.3044 49.9304C52.3044 50.9244 51.6044 51.7428 50.6131 51.7428C49.5636 51.6842 48.9222 50.9244 48.9222 49.9304ZM34.2862 47.0072C32.6534 47.0072 31.4871 48.1764 31.4871 49.9304C31.4871 51.6845 32.6532 52.8537 34.3444 52.8537C35.1607 52.8537 35.9772 52.6198 36.6187 52.0938L36.0354 51.2168C35.5689 51.5676 34.9859 51.8014 34.4028 51.8014C33.6447 51.8014 32.8866 51.4506 32.7116 50.4564H36.8519V49.989C36.9103 48.1764 35.8608 47.0072 34.2862 47.0072ZM34.2862 48.0594C35.044 48.0594 35.5692 48.5274 35.6855 49.4044H32.77C32.8866 48.6443 33.4115 48.0594 34.2862 48.0594ZM64.6663 49.9304V44.9023H63.4418V47.8256C63.0335 47.2996 62.4504 47.0072 61.6923 47.0072C60.118 47.0072 58.8935 48.235 58.8935 49.9304C58.8935 51.6259 60.118 52.8537 61.6923 52.8537C62.5089 52.8537 63.0919 52.5615 63.4418 52.0352V52.7368H64.6663V49.9304ZM60.1764 49.9304C60.1764 48.9365 60.8176 48.118 61.8674 48.118C62.8587 48.118 63.5584 48.8781 63.5584 49.9304C63.5584 50.9244 62.8587 51.7428 61.8674 51.7428C60.8176 51.6842 60.1764 50.9244 60.1764 49.9304ZM19.2418 49.9304V47.1241H18.0172V47.8256C17.609 47.2996 17.0259 47.0072 16.2678 47.0072C14.6935 47.0072 13.4689 48.235 13.4689 49.9304C13.4689 51.6259 14.6935 52.8537 16.2678 52.8537C17.0843 52.8537 17.6674 52.5615 18.0172 52.0352V52.7368H19.2418V49.9304ZM14.6935 49.9304C14.6935 48.9365 15.3349 48.118 16.3844 48.118C17.3757 48.118 18.0757 48.8781 18.0757 49.9304C18.0757 50.9244 17.3757 51.7428 16.3844 51.7428C15.3349 51.6842 14.6935 50.9244 14.6935 49.9304Z" fill="black"/>
<path d="M24.7832 4.50195H43.1512V37.5939H24.7832V4.50195Z" fill="#FF5F00"/>
<path d="M25.9486 21.0479C25.9486 14.3244 29.0974 8.36068 33.937 4.5018C30.3803 1.69547 25.8905 0 20.9923 0C9.38798 0 0 9.41296 0 21.0479C0 32.6826 9.38798 42.0958 20.9921 42.0958C25.8902 42.0958 30.3801 40.4004 33.937 37.5938C29.0974 33.7935 25.9486 27.7715 25.9486 21.0479Z" fill="#EB001B"/>
<path d="M67.9331 21.0479C67.9331 32.6826 58.5452 42.0958 46.9411 42.0958C42.0429 42.0958 37.5531 40.4004 33.9961 37.5938C38.8942 33.7352 41.9848 27.7715 41.9848 21.0479C41.9848 14.3244 38.8358 8.36068 33.9961 4.5018C37.5528 1.69547 42.0429 0 46.9411 0C58.5452 0 67.9331 9.47155 67.9331 21.0479Z" fill="#F79E1B"/>
</g>
<defs>
<clipPath id="clip0_148_2680">
<rect width="68" height="53" fill="white"/>
</clipPath>
</defs>
</svg>
