<svg width="24" height="24" viewBox="0 0 24 24" fill="none" xmlns="http://www.w3.org/2000/svg">
<g clip-path="url(#clip0_954_2360)">
<path fill-rule="evenodd" clip-rule="evenodd" d="M6.58649 4.58506C6.24552 4.9232 6 5.61893 6 7.375V14.3376C6.46113 14.1208 6.97576 14 7.51471 14H19V7.375C19 5.61893 18.7545 4.9232 18.4135 4.58506C18.0696 4.24404 17.3611 4 15.5882 4H9.41176C7.63886 4 6.93038 4.24404 6.58649 4.58506ZM21 7.375C21 5.63107 20.8043 4.1393 19.8218 3.16494C18.8421 2.19346 17.3447 2 15.5882 2H9.41176C7.65526 2 6.15785 2.19346 5.17821 3.16494C4.19566 4.1393 4 5.63107 4 7.375V17C4 17.0529 4.00411 17.1048 4.01202 17.1555C4.00406 17.2502 4 17.346 4 17.4429V18C4 20.2337 5.86053 22 8.08824 22H16.9118C19.1395 22 21 20.2337 21 18V16.1593C21 16.1517 21 16.1442 21 16.1368V7.375ZM19 16.6266V18C19 19.0749 18.0899 20 16.9118 20H8.08824C6.91006 20 6 19.0749 6 18V17.4429C6 16.6766 6.65417 16 7.51471 16H19V16.125C19 16.2534 18.9996 16.34 18.9938 16.4207C18.9887 16.4907 18.991 16.5596 19 16.6266ZM8 7C8 6.44772 8.44772 6 9 6H16C16.5523 6 17 6.44772 17 7C17 7.55228 16.5523 8 16 8H9C8.44772 8 8 7.55228 8 7ZM8 11C8 10.4477 8.44772 10 9 10H13C13.5523 10 14 10.4477 14 11C14 11.5523 13.5523 12 13 12H9C8.44772 12 8 11.5523 8 11Z" fill="white"/>
</g>
<defs>
<clipPath id="clip0_954_2360">
<rect width="24" height="24" fill="white"/>
</clipPath>
</defs>
</svg>
