<svg width="17" height="20" viewBox="0 0 17 20" fill="none" xmlns="http://www.w3.org/2000/svg">
<path fill-rule="evenodd" clip-rule="evenodd" d="M2.58649 2.58506C2.24552 2.9232 2 3.61893 2 5.375V12.3376C2.46113 12.1208 2.97576 12 3.51471 12H15V5.375C15 3.61893 14.7545 2.9232 14.4135 2.58506C14.0696 2.24404 13.3611 2 11.5882 2H5.41176C3.63886 2 2.93038 2.24404 2.58649 2.58506ZM17 5.375C17 3.63107 16.8043 2.1393 15.8218 1.16494C14.8421 0.193464 13.3447 0 11.5882 0H5.41176C3.65526 0 2.15785 0.193464 1.17821 1.16494C0.195659 2.1393 0 3.63107 0 5.375V15C0 15.0529 0.00410742 15.1048 0.0120206 15.1555C0.00406206 15.2502 0 15.346 0 15.4429V16C0 18.2337 1.86053 20 4.08824 20H12.9118C15.1395 20 17 18.2337 17 16V14.1593C17 14.1517 17 14.1442 17 14.1368V5.375ZM15 14.6266V16C15 17.0749 14.0899 18 12.9118 18H4.08824C2.91006 18 2 17.0749 2 16V15.4429C2 14.6766 2.65417 14 3.51471 14H15V14.125C15 14.2534 14.9996 14.34 14.9938 14.4207C14.9887 14.4907 14.991 14.5596 15 14.6266ZM4 5C4 4.44772 4.44772 4 5 4H12C12.5523 4 13 4.44772 13 5C13 5.55228 12.5523 6 12 6H5C4.44772 6 4 5.55228 4 5ZM4 9C4 8.44772 4.44772 8 5 8H9C9.55229 8 10 8.44772 10 9C10 9.55229 9.55229 10 9 10H5C4.44772 10 4 9.55229 4 9Z" fill="#6F767E"/>
</svg>
