<svg width="11" height="20" viewBox="0 0 11 20" fill="none" xmlns="http://www.w3.org/2000/svg">
<path d="M7.84468 9.12166C7.09125 8.70529 6.29023 8.38805 5.49715 8.05892C5.03716 7.86858 4.59699 7.64652 4.20838 7.33721C3.44305 6.72654 3.58977 5.73518 4.48596 5.3426C4.73975 5.23157 5.00543 5.19588 5.27508 5.18002C6.31403 5.1245 7.30142 5.31484 8.24123 5.7669C8.70915 5.99293 8.8638 5.92155 9.02242 5.4338C9.18897 4.9183 9.32776 4.39486 9.48241 3.87539C9.58551 3.52643 9.45862 3.29643 9.12949 3.14971C8.52674 2.88403 7.90813 2.69369 7.2578 2.59059C6.4092 2.45973 6.4092 2.45576 6.40523 1.60319C6.40127 0.401665 6.40127 0.401665 5.19577 0.401665C5.02129 0.401665 4.84681 0.397699 4.67234 0.401665C4.10924 0.417527 4.01407 0.516662 3.99821 1.08372C3.99028 1.33751 3.99821 1.5913 3.99425 1.84905C3.99028 2.60248 3.98632 2.59059 3.26461 2.8523C1.51981 3.48677 0.441215 4.6764 0.326218 6.57981C0.223116 8.26512 1.10344 9.40321 2.48738 10.232C3.33995 10.7435 4.28372 11.0449 5.18784 11.4454C5.54077 11.6001 5.87783 11.7785 6.17127 12.0244C7.0397 12.7421 6.88108 13.9357 5.85007 14.3878C5.29887 14.6297 4.71596 14.6891 4.11717 14.6138C3.19323 14.4988 2.30894 14.2569 1.47619 13.8247C0.988445 13.5709 0.845689 13.6383 0.679141 14.1657C0.536385 14.6217 0.409492 15.0817 0.282598 15.5417C0.112084 16.1603 0.175531 16.307 0.766381 16.5965C1.51981 16.9613 2.3248 17.1477 3.14564 17.2786C3.78804 17.3817 3.80787 17.4094 3.8158 18.0756C3.81977 18.377 3.81977 18.6823 3.82373 18.9837C3.8277 19.3644 4.01011 19.5864 4.40269 19.5944C4.84682 19.6023 5.29491 19.6023 5.73904 19.5904C6.10386 19.5825 6.29023 19.3842 6.29023 19.0154C6.29023 18.603 6.31006 18.1866 6.2942 17.7742C6.27437 17.3539 6.45678 17.1398 6.86126 17.0287C7.79313 16.775 8.58622 16.2753 9.1969 15.5298C10.8941 13.4678 10.2477 10.4501 7.84468 9.12166Z" fill="#6F767E"/>
</svg>
