<svg width="24" height="24" viewBox="0 0 24 24" fill="none" xmlns="http://www.w3.org/2000/svg">
<path d="M14.8447 11.1217C14.0913 10.7053 13.2902 10.3881 12.4971 10.0589C12.0372 9.86858 11.597 9.64652 11.2084 9.33721C10.4431 8.72654 10.5898 7.73518 11.486 7.3426C11.7397 7.23157 12.0054 7.19588 12.2751 7.18002C13.314 7.1245 14.3014 7.31484 15.2412 7.7669C15.7092 7.99293 15.8638 7.92155 16.0224 7.4338C16.189 6.9183 16.3278 6.39486 16.4824 5.87539C16.5855 5.52643 16.4586 5.29643 16.1295 5.14971C15.5267 4.88403 14.9081 4.69369 14.2578 4.59059C13.4092 4.45973 13.4092 4.45576 13.4052 3.60319C13.4013 2.40166 13.4013 2.40166 12.1958 2.40166C12.0213 2.40166 11.8468 2.3977 11.6723 2.40166C11.1092 2.41753 11.0141 2.51666 10.9982 3.08372C10.9903 3.33751 10.9982 3.5913 10.9942 3.84905C10.9903 4.60248 10.9863 4.59059 10.2646 4.8523C8.51981 5.48677 7.44122 6.6764 7.32622 8.57981C7.22312 10.2651 8.10344 11.4032 9.48738 12.232C10.3399 12.7435 11.2837 13.0449 12.1878 13.4454C12.5408 13.6001 12.8778 13.7785 13.1713 14.0244C14.0397 14.7421 13.8811 15.9357 12.8501 16.3878C12.2989 16.6297 11.716 16.6891 11.1172 16.6138C10.1932 16.4988 9.30894 16.2569 8.47619 15.8247C7.98845 15.5709 7.84569 15.6383 7.67914 16.1657C7.53639 16.6217 7.40949 17.0817 7.2826 17.5417C7.11208 18.1603 7.17553 18.307 7.76638 18.5965C8.51981 18.9613 9.3248 19.1477 10.1456 19.2786C10.788 19.3817 10.8079 19.4094 10.8158 20.0756C10.8198 20.377 10.8198 20.6823 10.8237 20.9837C10.8277 21.3644 11.0101 21.5864 11.4027 21.5944C11.8468 21.6023 12.2949 21.6023 12.739 21.5904C13.1039 21.5825 13.2902 21.3842 13.2902 21.0154C13.2902 20.603 13.3101 20.1866 13.2942 19.7742C13.2744 19.3539 13.4568 19.1398 13.8613 19.0287C14.7931 18.775 15.5862 18.2753 16.1969 17.5298C17.8941 15.4678 17.2477 12.4501 14.8447 11.1217Z" fill="white"/>
</svg>
