<svg width="60" height="60" viewBox="0 0 60 60" fill="none" xmlns="http://www.w3.org/2000/svg">
<g clip-path="url(#clip0_148_2036)">
<rect x="16.25" y="17.5" width="26.25" height="26.25" fill="#FFFF00"/>
<path d="M22.5 21.975V38.025C22.5 39.175 23.025 40.05 24.075 40.65C25.125 41.25 26.15 41.2 27.15 40.5L39.6 32.55C40.55 31.95 41.025 31.1 41.025 30C41.025 28.9 40.55 28.05 39.6 27.45L27.15 19.5C26.15 18.8 25.125 18.75 24.075 19.35C23.025 19.95 22.5 20.825 22.5 21.975ZM30 60C25.85 60 21.95 59.212 18.3 57.636C14.65 56.062 11.475 53.925 8.775 51.225C6.075 48.525 3.938 45.35 2.364 41.7C0.788 38.05 0 34.15 0 30C0 25.85 0.788 21.95 2.364 18.3C3.938 14.65 6.075 11.475 8.775 8.775C11.475 6.075 14.65 3.937 18.3 2.361C21.95 0.787 25.85 0 30 0C34.15 0 38.05 0.787 41.7 2.361C45.35 3.937 48.525 6.075 51.225 8.775C53.925 11.475 56.062 14.65 57.636 18.3C59.212 21.95 60 25.85 60 30C60 34.15 59.212 38.05 57.636 41.7C56.062 45.35 53.925 48.525 51.225 51.225C48.525 53.925 45.35 56.062 41.7 57.636C38.05 59.212 34.15 60 30 60Z" fill="white" fill-opacity="0.25"/>
<path d="M23.75 23.3125V36.6875C23.75 37.6458 24.1875 38.375 25.0625 38.875C25.9375 39.375 26.7917 39.3333 27.625 38.75L38 32.125C38.7917 31.625 39.1875 30.9167 39.1875 30C39.1875 29.0833 38.7917 28.375 38 27.875L27.625 21.25C26.7917 20.6667 25.9375 20.625 25.0625 21.125C24.1875 21.625 23.75 22.3542 23.75 23.3125ZM30 55C26.5417 55 23.2917 54.3433 20.25 53.03C17.2083 51.7183 14.5625 49.9375 12.3125 47.6875C10.0625 45.4375 8.28167 42.7917 6.97 39.75C5.65667 36.7083 5 33.4583 5 30C5 26.5417 5.65667 23.2917 6.97 20.25C8.28167 17.2083 10.0625 14.5625 12.3125 12.3125C14.5625 10.0625 17.2083 8.28083 20.25 6.9675C23.2917 5.65583 26.5417 5 30 5C33.4583 5 36.7083 5.65583 39.75 6.9675C42.7917 8.28083 45.4375 10.0625 47.6875 12.3125C49.9375 14.5625 51.7183 17.2083 53.03 20.25C54.3433 23.2917 55 26.5417 55 30C55 33.4583 54.3433 36.7083 53.03 39.75C51.7183 42.7917 49.9375 45.4375 47.6875 47.6875C45.4375 49.9375 42.7917 51.7183 39.75 53.03C36.7083 54.3433 33.4583 55 30 55Z" fill="white"/>
</g>
<defs>
<clipPath id="clip0_148_2036">
<rect width="60" height="60" fill="white"/>
</clipPath>
</defs>
</svg>
