<svg width="20" height="20" viewBox="0 0 20 20" fill="none" xmlns="http://www.w3.org/2000/svg">
<path d="M10.0003 1.66663C14.5933 1.66663 18.3337 5.40517 18.3337 10.0048C18.3337 14.5947 14.5933 18.3333 10.0003 18.3333C5.40734 18.3333 1.66699 14.5947 1.66699 10.0048C1.66699 5.40517 5.40734 1.66663 10.0003 1.66663ZM9.05116 6.69155C8.8742 6.69155 8.70528 6.73175 8.5444 6.81215C8.34331 6.92471 8.18244 7.10158 8.09395 7.31062C8.03765 7.45534 7.94917 7.88949 7.94917 7.89753C7.86069 8.37188 7.81242 9.14371 7.81242 9.99594C7.81242 10.8088 7.86069 11.5476 7.93308 12.03C7.94112 12.0381 8.0296 12.5767 8.12613 12.7617C8.30309 13.0993 8.64897 13.3084 9.01899 13.3084H9.05116C9.29247 13.3003 9.79923 13.0913 9.79923 13.0833C10.6519 12.7295 12.333 11.628 13.0087 10.8964L13.057 10.8482C13.1454 10.7597 13.258 10.623 13.2822 10.5909C13.4109 10.4221 13.4752 10.213 13.4752 10.0048C13.4752 9.77082 13.4028 9.55375 13.2661 9.37687C13.2339 9.34471 13.1133 9.20803 13.0006 9.09547C12.3411 8.38796 10.6197 7.23022 9.71879 6.87647C9.58205 6.82099 9.23617 6.69959 9.05116 6.69155Z" fill="#FF7477"/>
</svg>
