<svg width="117" height="13" viewBox="0 0 117 13" fill="none" xmlns="http://www.w3.org/2000/svg">
<path d="M3.05817 11.55L3.9113 7.86183L1.05005 5.3812L4.83005 5.05308L6.30005 1.57495L7.77005 5.05308L11.55 5.3812L8.6888 7.86183L9.54192 11.55L6.30005 9.59433L3.05817 11.55Z" fill="#FFD400"/>
<path d="M31.0582 11.55L31.9113 7.86183L29.05 5.3812L32.83 5.05308L34.3 1.57495L35.77 5.05308L39.55 5.3812L36.6888 7.86183L37.5419 11.55L34.3 9.59433L31.0582 11.55Z" fill="#FFD400"/>
<path d="M17.0582 11.55L17.9113 7.86183L15.05 5.3812L18.83 5.05308L20.3 1.57495L21.77 5.05308L25.55 5.3812L22.6888 7.86183L23.5419 11.55L20.3 9.59433L17.0582 11.55Z" fill="#FFD400"/>
<path d="M45.0582 11.55L45.9113 7.86183L43.05 5.3812L46.83 5.05308L48.3 1.57495L49.77 5.05308L53.55 5.3812L50.6888 7.86183L51.5419 11.55L48.3 9.59433L45.0582 11.55Z" fill="#FFD400"/>
<path d="M62.3 4.26558V8.36058L63.9538 9.3712L63.5207 7.4812L64.9775 6.2212L63.0613 6.05058L62.3 4.26558ZM59.0582 11.55L59.9113 7.86183L57.05 5.3812L60.83 5.05308L62.3 1.57495L63.77 5.05308L67.55 5.3812L64.6888 7.86183L65.5419 11.55L62.3 9.59433L59.0582 11.55Z" fill="#FFD400"/>
<path d="M71.6562 2.33905H72.548C72.5116 2.38152 72.4631 2.44218 72.4024 2.52105C72.3478 2.59385 72.2477 2.76068 72.1021 3.02155C71.9565 3.28242 71.8261 3.55238 71.7108 3.83145C71.6016 4.10445 71.5015 4.45328 71.4105 4.87795C71.3195 5.30262 71.274 5.72728 71.274 6.15195C71.274 6.58268 71.3195 7.00735 71.4105 7.42595C71.5015 7.84455 71.6107 8.19945 71.7381 8.49065C71.8655 8.77578 71.9929 9.03058 72.1203 9.25505C72.2538 9.47952 72.366 9.64635 72.457 9.75555L72.5935 9.91935H71.6471C71.5318 9.77982 71.4166 9.61905 71.3013 9.43705C71.1921 9.25505 71.0556 9.00328 70.8918 8.68175C70.7341 8.36022 70.6067 7.97802 70.5096 7.53515C70.4125 7.09228 70.364 6.63425 70.364 6.16105C70.364 5.68178 70.4125 5.21768 70.5096 4.76875C70.6127 4.31982 70.7432 3.93155 70.9009 3.60395C71.0647 3.27028 71.2012 3.01245 71.3104 2.83045C71.4257 2.64845 71.5409 2.48465 71.6562 2.33905ZM75.4113 8.80005V7.34405H72.6631L72.5812 6.49775L75.4477 2.33905H76.4032V6.44315H77.5134V7.34405H76.4032V8.80005H75.4113ZM75.4113 6.44315V3.74955L73.5913 6.44315H75.4113ZM78.3589 8.70905C78.2497 8.59985 78.1951 8.46335 78.1951 8.29955C78.1951 8.13575 78.2497 8.00228 78.3589 7.89915C78.4681 7.78995 78.6107 7.73535 78.7866 7.73535C78.9626 7.73535 79.1051 7.78995 79.2143 7.89915C79.3235 8.00228 79.3781 8.13575 79.3781 8.29955C79.3781 8.46335 79.3235 8.59985 79.2143 8.70905C79.1051 8.81218 78.9626 8.86375 78.7866 8.86375C78.6107 8.86375 78.4681 8.81218 78.3589 8.70905ZM84.8166 3.95885C84.8166 4.54125 84.5648 5.03265 84.0613 5.43305C84.7529 5.77885 85.0987 6.29452 85.0987 6.98005C85.0987 7.56245 84.8833 8.02958 84.4526 8.38145C84.0218 8.73332 83.4152 8.90925 82.6326 8.90925C81.8196 8.90925 81.2039 8.73028 80.7853 8.37235C80.3667 8.00835 80.1574 7.55335 80.1574 7.00735C80.1574 6.31575 80.4971 5.73638 81.1766 5.26925C80.758 4.95378 80.5487 4.52912 80.5487 3.99525C80.5487 3.42498 80.7549 2.98818 81.1675 2.68485C81.58 2.38152 82.0835 2.22985 82.6781 2.22985C83.2787 2.22985 83.7852 2.38455 84.1978 2.69395C84.6103 3.00335 84.8166 3.42498 84.8166 3.95885ZM82.3323 5.80615L82.0502 5.71515C81.8136 5.84862 81.6134 6.02758 81.4496 6.25205C81.2918 6.47045 81.213 6.70705 81.213 6.96185C81.213 7.26518 81.3343 7.52605 81.577 7.74445C81.8196 7.96285 82.1806 8.07205 82.6599 8.07205C83.0663 8.07205 83.3909 7.98408 83.6336 7.80815C83.8762 7.63222 83.9976 7.37742 83.9976 7.04375C83.9976 6.87388 83.9551 6.72525 83.8702 6.59785C83.7913 6.47045 83.6791 6.36428 83.5335 6.27935C83.3879 6.19442 83.2271 6.11858 83.0512 6.05185C82.8813 5.98512 82.6932 5.91838 82.487 5.85165C82.4627 5.84558 82.4445 5.84255 82.4324 5.84255C82.4202 5.83648 82.4051 5.83042 82.3869 5.82435C82.3687 5.81828 82.3505 5.81222 82.3323 5.80615ZM81.5588 3.94065C81.5588 4.05592 81.577 4.15905 81.6134 4.25005C81.6498 4.34105 81.7135 4.42598 81.8045 4.50485C81.9015 4.57765 81.9834 4.63832 82.0502 4.68685C82.123 4.73538 82.2443 4.78998 82.4142 4.85065C82.584 4.91132 82.7054 4.95378 82.7782 4.97805C82.851 5.00232 82.9905 5.04478 83.1968 5.10545C83.6457 4.79605 83.8702 4.43205 83.8702 4.01345C83.8702 3.73438 83.761 3.50082 83.5426 3.31275C83.3302 3.11862 83.039 3.02155 82.669 3.02155C82.3414 3.02155 82.0744 3.10648 81.8682 3.27635C81.6619 3.44015 81.5588 3.66158 81.5588 3.94065ZM88.333 8.80005V2.33905C88.9761 2.27838 89.5706 2.24805 90.1166 2.24805C91.7425 2.24805 92.5554 2.88808 92.5554 4.16815C92.5554 4.99928 92.1702 5.55438 91.3997 5.83345L93.4199 8.80005H92.2096L90.4533 6.17015C90.3016 6.18835 90.1409 6.19745 89.971 6.19745H89.3522V8.80005H88.333ZM89.3522 3.07615V5.35115H90.1166C90.5898 5.35115 90.9386 5.24498 91.1631 5.03265C91.3936 4.81425 91.5089 4.52002 91.5089 4.14995C91.5089 3.79808 91.3876 3.52508 91.1449 3.33095C90.9083 3.13682 90.5595 3.03975 90.0984 3.03975L89.3522 3.07615ZM94.3365 5.46035L94.0362 4.81425C94.0786 4.77178 94.1514 4.72022 94.2546 4.65955C94.3577 4.59282 94.5336 4.52002 94.7824 4.44115C95.0311 4.36228 95.2889 4.32285 95.5559 4.32285C96.1261 4.32285 96.566 4.48665 96.8754 4.81425C97.1848 5.14185 97.3395 5.63325 97.3395 6.28845V7.76265L97.4396 8.80005L96.6115 8.84555L96.4659 8.26315L95.3921 8.90925C94.9067 8.90925 94.4851 8.79398 94.1272 8.56345C93.7753 8.32685 93.5994 8.00228 93.5994 7.58975C93.5994 6.67368 94.5245 6.21565 96.3749 6.21565C96.3749 5.46338 96.0594 5.08725 95.4285 5.08725C95.0705 5.08725 94.7065 5.21162 94.3365 5.46035ZM96.3749 7.66255V6.76165C95.1919 6.77378 94.6004 7.03162 94.6004 7.53515C94.6004 7.72322 94.6823 7.87488 94.8461 7.99015C95.0099 8.09935 95.1919 8.16002 95.3921 8.17215L96.3749 7.66255ZM98.0425 4.43205H98.6431V3.14895L99.6077 2.88505V4.43205H101.1V5.17825H99.6077V7.08925C99.6077 7.38045 99.6653 7.61098 99.7806 7.78085C99.8959 7.95072 100.063 8.03565 100.281 8.03565C100.427 8.03565 100.587 7.99622 100.763 7.91735C100.945 7.83242 101.079 7.75355 101.164 7.68075L101.382 8.31775C100.988 8.68175 100.533 8.86375 100.017 8.86375C99.5683 8.86375 99.2255 8.72422 98.9889 8.44515C98.7584 8.16002 98.6431 7.75962 98.6431 7.24395V5.17825H98.0425V4.43205ZM102.569 2.45735C102.739 2.45735 102.878 2.51195 102.987 2.62115C103.103 2.72428 103.16 2.85472 103.16 3.01245C103.16 3.17625 103.103 3.31275 102.987 3.42195C102.878 3.52508 102.739 3.57665 102.569 3.57665C102.393 3.57665 102.247 3.52508 102.132 3.42195C102.023 3.31275 101.968 3.17625 101.968 3.01245C101.968 2.85472 102.023 2.72428 102.132 2.62115C102.247 2.51195 102.393 2.45735 102.569 2.45735ZM102.068 4.43205H103.042V8.80005H102.068V4.43205ZM104.128 4.43205L104.956 4.38655L105.101 5.09635L106.394 4.32285C106.551 4.32285 106.724 4.35318 106.912 4.41385C107.1 4.47452 107.291 4.57158 107.486 4.70505C107.68 4.83245 107.84 5.02355 107.968 5.27835C108.095 5.53315 108.159 5.82738 108.159 6.16105V8.80005H107.194V6.28845C107.194 5.94872 107.106 5.68178 106.93 5.48765C106.761 5.28745 106.545 5.17825 106.284 5.16005L105.201 5.76065V8.80005H104.237V5.58775L104.128 4.43205ZM111.123 4.32285C111.426 4.32285 111.717 4.37138 111.996 4.46845C112.36 3.89212 112.818 3.58272 113.37 3.54025L113.452 4.30465C113.082 4.34712 112.755 4.48968 112.469 4.73235C112.827 5.01142 113.006 5.37845 113.006 5.83345C113.006 6.28845 112.827 6.65548 112.469 6.93455C112.112 7.21362 111.657 7.35315 111.104 7.35315C110.807 7.35315 110.531 7.31068 110.276 7.22575L109.903 7.60795C109.921 7.71108 109.979 7.81118 110.076 7.90825C110.173 8.00532 110.31 8.05385 110.486 8.05385H111.896C112.369 8.05385 112.736 8.18428 112.997 8.44515C113.258 8.70602 113.389 9.03968 113.389 9.44615C113.389 9.93755 113.191 10.347 112.797 10.6746C112.403 11.0022 111.851 11.166 111.141 11.166C110.783 11.166 110.452 11.1175 110.149 11.0204C109.846 10.9294 109.606 10.8172 109.43 10.6837C109.26 10.5503 109.115 10.4168 108.993 10.2833C108.872 10.1499 108.787 10.0376 108.738 9.94665L108.675 9.80105L109.612 8.61805C109.424 8.50278 109.275 8.35112 109.166 8.16305C109.057 7.96892 109.002 7.77782 109.002 7.58975L109.739 6.93455C109.394 6.65548 109.221 6.29452 109.221 5.85165C109.221 5.39058 109.4 5.02052 109.758 4.74145C110.116 4.46238 110.571 4.32285 111.123 4.32285ZM111.569 8.80005H110.386L109.694 9.71915L109.721 9.75555C109.733 9.77982 109.746 9.80105 109.758 9.81925C109.776 9.84352 109.8 9.87082 109.83 9.90115C109.867 9.93755 109.9 9.97092 109.931 10.0012C109.961 10.0316 110 10.0649 110.049 10.1013C110.103 10.1438 110.155 10.1772 110.204 10.2014C110.258 10.2318 110.319 10.2621 110.386 10.2924C110.458 10.3228 110.531 10.347 110.604 10.3652C110.683 10.3895 110.771 10.4077 110.868 10.4198C110.965 10.432 111.065 10.438 111.168 10.438C111.563 10.438 111.869 10.3531 112.087 10.1832C112.312 10.0194 112.424 9.80105 112.424 9.52805C112.424 9.30358 112.348 9.12462 112.196 8.99115C112.051 8.86375 111.842 8.80005 111.569 8.80005ZM110.386 6.48865C110.58 6.65852 110.822 6.74345 111.114 6.74345C111.405 6.74345 111.647 6.65852 111.842 6.48865C112.042 6.31878 112.142 6.10038 112.142 5.83345C112.142 5.56652 112.045 5.34812 111.851 5.17825C111.657 5.00232 111.411 4.91435 111.114 4.91435C110.822 4.91435 110.58 5.00232 110.386 5.17825C110.191 5.35418 110.094 5.57258 110.094 5.83345C110.094 6.10038 110.191 6.31878 110.386 6.48865ZM113.663 2.33905H114.545C114.661 2.48465 114.773 2.64845 114.882 2.83045C114.997 3.01245 115.137 3.27028 115.301 3.60395C115.464 3.93762 115.595 4.32892 115.692 4.77785C115.795 5.22678 115.847 5.68785 115.847 6.16105C115.847 6.63425 115.795 7.09228 115.692 7.53515C115.595 7.97802 115.467 8.36022 115.31 8.68175C115.152 9.00328 115.015 9.25505 114.9 9.43705C114.785 9.62512 114.67 9.78588 114.554 9.91935H113.617C113.653 9.87688 113.699 9.81925 113.754 9.74645C113.814 9.67365 113.92 9.50985 114.072 9.25505C114.224 9.00632 114.357 8.74545 114.472 8.47245C114.588 8.19945 114.691 7.85365 114.782 7.43505C114.879 7.01038 114.927 6.58268 114.927 6.15195C114.927 5.72728 114.882 5.30565 114.791 4.88705C114.706 4.46845 114.603 4.11355 114.482 3.82235C114.36 3.52508 114.236 3.26118 114.108 3.03065C113.987 2.80012 113.881 2.62722 113.79 2.51195L113.663 2.33905Z" fill="#141414"/>
</svg>
