<svg width="399" height="399" viewBox="0 0 399 399" fill="none" xmlns="http://www.w3.org/2000/svg">
<path fill-rule="evenodd" clip-rule="evenodd" d="M231.799 373.881C236.188 369.634 250.812 353.933 255.54 350.262C255.684 350.108 255.881 350.008 256.092 349.983C256.301 349.958 256.514 350.009 256.692 350.126C256.868 350.244 256.998 350.42 257.058 350.623C257.118 350.827 257.102 351.045 257.016 351.24C254.662 355.489 234.133 374.781 232.936 375.916C232.118 376.935 228.607 381.165 227.65 382.043C227.679 382.837 227.472 383.62 227.053 384.295C226.632 384.973 226.02 385.507 225.295 385.833C222.725 386.707 220.208 387.726 217.754 388.884C217.395 389.203 216.976 388.884 217.076 388.546C218.306 387.005 219.339 385.314 220.148 383.519C220.323 382.329 220.926 381.245 221.846 380.468C222.764 379.696 223.934 379.282 225.136 379.308C225.276 379.05 230.562 374.701 231.799 373.881ZM225.076 379.627C223.999 379.688 222.978 380.138 222.203 380.889C221.427 381.64 220.945 382.641 220.847 383.718C220.398 385.071 219.723 386.341 218.852 387.469C223.899 385.372 225.615 385.673 226.712 383.976C227.059 383.414 227.277 382.779 227.35 382.122C225.954 381.741 224.976 379.387 225.076 379.627ZM231.4 374.621C229.844 376.036 228.228 377.552 225.854 379.609C226.203 380.301 226.725 380.893 227.37 381.324L232.577 375.756C232.118 375.463 231.724 375.075 231.42 374.621H231.4ZM222.522 351.12C224.797 349.624 255.659 329.315 255.959 330.312C256.258 331.31 225.675 354.452 225.415 354.611C224.118 356.088 215.44 365.444 214.303 365.843C212.856 365.789 211.485 365.183 210.473 364.146C209.086 362.731 208.059 360.999 207.48 359.1C207.101 357.743 221.286 351.639 222.522 351.12ZM208.458 359.998C208.85 361.263 209.561 362.405 210.522 363.315C211.482 364.229 212.661 364.878 213.944 365.205C212.508 363.848 209.475 360.955 208.458 359.998ZM214.443 355.389C212.253 356.433 210.15 357.655 208.158 359.04C208.418 359.898 208.158 359.04 210.153 360.696C211.773 361.966 213.192 363.471 214.363 365.165C215.36 364.425 219.41 360.397 219.171 360.616C217.676 358.784 216.077 357.039 214.383 355.389H214.443ZM222.602 351.399C219.31 352.935 217.116 354.013 214.622 355.23C216.601 356.493 218.207 358.264 219.271 360.357C220.468 359.16 224.537 355.03 225.136 354.372C224.557 353.813 223.041 352.078 222.542 351.439L222.602 351.399ZM270.941 328.596C271.959 319.659 273.455 308.547 274.672 308.487C275.889 308.427 274.572 319.659 273.315 328.656C277.305 328.995 282.053 331.19 281.295 334.98C281.332 335.656 281.244 336.332 281.036 336.975C283.031 350.522 281.255 353.315 281.395 353.095C280.233 354.495 278.78 355.622 277.135 356.402C275.491 357.18 273.697 357.59 271.879 357.604C270.053 357.614 268.246 357.233 266.577 356.492C264.91 355.748 263.418 354.658 262.203 353.295C260.547 350.801 261.604 340.267 261.924 337.335C261.747 336.718 261.646 336.081 261.624 335.439C261.383 334.39 261.52 333.29 262.009 332.33C262.497 331.371 263.307 330.615 264.298 330.192C266.338 329.098 268.627 328.548 270.941 328.596ZM280.657 346.113C279.081 349.344 274.672 350.362 271.121 350.362C271.072 351.318 270.966 352.271 270.801 353.215C270.642 353.973 270.462 354.631 269.684 354.611C268.562 354.383 267.573 353.725 266.931 352.776C266.412 351.998 266.532 351.599 267.19 349.883C266.326 349.657 265.521 349.246 264.833 348.678C264.143 348.109 263.586 347.398 263.2 346.591C263.209 348.373 263.39 350.151 263.739 351.898C264.16 352.691 264.762 353.374 265.495 353.893C270.003 357.564 275.47 356.526 280.038 352.596C280.238 351.12 280.517 348.227 280.657 346.113ZM262.343 338.133C262.203 340.547 261.664 350.741 263.021 352.736C264.065 353.95 265.385 354.894 266.871 355.489C265.313 354.729 264.047 353.482 263.26 351.938C262.918 349.801 262.803 347.635 262.921 345.474C262.795 344.869 262.818 344.242 262.989 343.647C263.159 343.053 263.471 342.51 263.899 342.063C265.315 340.427 265.654 341.364 264.358 340.467C263.51 339.895 262.816 339.12 262.343 338.212V338.133ZM267.709 349.903C267.468 350.55 267.287 351.218 267.171 351.898C267.171 352.576 268.966 354.093 269.764 354.013C270.043 354.013 270.123 353.594 270.223 353.095C270.401 352.192 270.52 351.28 270.582 350.362C269.613 350.342 268.65 350.215 267.709 349.983V349.903ZM280.796 337.654C280.112 338.917 279.062 339.946 277.784 340.606C280.078 341.325 281.594 342.861 280.976 345.195C280.976 346.452 280.976 347.689 280.856 348.806C280.657 352.975 280.517 352.796 280.717 352.497C281.654 348.945 281.175 341.484 280.796 337.734V337.654ZM277.445 340.786C275.579 341.689 273.533 342.159 271.46 342.162C271.463 343.354 271.309 344.542 271.001 345.694C271.083 347.022 271.083 348.355 271.001 349.684C273.5 349.768 275.97 349.138 278.123 347.868C281.295 345.873 281.794 342.262 277.445 340.866V340.786ZM269.205 345.773C269.086 346.053 268.088 348.826 267.909 349.325C268.803 349.542 269.721 349.655 270.642 349.664C270.642 348.686 270.841 346.811 270.821 345.833C270.289 345.95 269.741 345.956 269.205 345.853V345.773ZM265.475 341.145C261.644 343.778 263.26 347.968 267.47 349.245C267.889 348.187 268.547 346.711 269.026 345.694C269.081 344.502 269.214 343.316 269.425 342.143C268.062 342.038 266.725 341.7 265.475 341.145ZM269.604 342.162L269.425 345.394C269.764 345.394 270.861 345.554 270.742 345.394C270.622 345.235 271.001 343.519 271.141 342.202C270.622 342.242 270.103 342.222 269.604 342.182V342.162ZM280.457 336.876C276.906 341.325 266.173 341.384 262.502 336.876C262.89 337.875 263.529 338.759 264.358 339.439C265.185 340.121 266.175 340.578 267.23 340.766C271.779 342.003 278.622 341.005 280.457 336.896V336.876ZM273.016 330.731C272.417 334.861 271.899 338.212 271.719 339.31C274.732 339.31 278.761 338.212 280.158 335.778C279.719 332.666 276.168 331.05 273.016 330.751V330.731ZM270.702 330.731C269.054 330.812 267.46 331.335 266.083 332.244C264.708 333.153 263.603 334.415 262.881 335.898C264.158 337.893 267.37 338.99 269.844 339.23C269.944 338.133 270.263 334.821 270.702 330.751V330.731ZM270.901 328.976C268.727 329.055 266.607 329.679 264.737 330.791C262.961 331.928 261.764 333.684 262.742 335.579C263.422 334.008 264.532 332.66 265.943 331.689C267.355 330.718 269.011 330.166 270.722 330.093L270.901 328.976ZM273.315 329.175C273.315 329.514 273.215 329.853 273.156 330.192C276.447 330.492 279.899 332.187 280.437 335.379C281.155 333.564 279.958 331.928 278.283 330.871C276.768 329.955 275.074 329.376 273.315 329.175ZM292.427 337.275C291.49 332.626 283.909 297.993 286.442 295.978C287.342 295.483 288.321 295.145 289.335 294.981C292.128 294.382 309.943 291.988 310.761 294.402C311.579 296.816 306.771 333.584 306.412 335.559C306.412 336.896 305.913 340.626 305.913 340.626C305.397 341.709 304.628 342.651 303.676 343.379C302.721 344.107 301.609 344.598 300.429 344.813C299.25 345.027 298.035 344.957 296.888 344.611C295.739 344.266 294.688 343.652 293.824 342.821C293.157 341.029 292.69 339.168 292.427 337.275ZM309.744 298.831C302.105 298.932 294.482 299.599 286.941 300.826C287.559 309.205 291.19 328.756 292.766 337.095C294.843 338.231 297.21 338.724 299.568 338.515C301.927 338.305 304.169 337.403 306.013 335.918C306.233 334.222 309.584 301.065 309.744 298.831ZM307.948 310.402C307.948 310.402 308.068 309.045 306.392 309.385C304.716 309.724 301.664 312.597 297.913 312.277C294.163 311.958 290.592 309.863 289.475 311.26C288.357 312.656 293.086 317.065 299.21 316.028C306.233 314.851 308.088 311.958 307.948 310.402ZM288.198 296.238C287.899 296.238 287.081 296.557 287.001 296.816C286.831 298.081 286.831 299.361 287.001 300.627L288.996 300.248C288.545 298.954 288.276 297.604 288.198 296.238ZM291.649 295.499C290.632 295.679 289.435 295.898 288.457 296.158C288.753 297.474 288.974 298.806 289.116 300.148C289.874 300.008 291.988 299.649 292.607 299.589C292.547 299.45 292.068 297.794 291.649 295.499ZM295.46 295.001C294.203 295.14 293.006 295.3 291.909 295.46C292.397 296.794 292.693 298.191 292.786 299.609L296.138 299.19C296.018 298.532 295.599 296.457 295.46 295.001ZM299.19 294.642C298.512 294.642 297.076 294.801 295.719 294.961C296.14 296.324 296.347 297.744 296.337 299.17L299.928 298.831C299.869 298.492 299.45 296.696 299.25 294.642H299.19ZM303.18 294.382L299.45 294.622C299.88 295.976 300.108 297.388 300.128 298.811C301.285 298.811 302.562 298.652 303.699 298.612C303.699 298.572 303.24 294.642 303.24 294.382H303.18ZM308.008 294.382C307.937 295.78 307.784 297.172 307.549 298.552H309.764C309.764 298.053 310.103 294.701 309.764 294.562C309.185 294.447 308.598 294.394 308.008 294.402V294.382ZM307.749 294.382H303.46C303.845 295.757 303.993 297.187 303.898 298.612H307.37C307.31 297.192 307.438 295.769 307.749 294.382ZM157.605 321.853C160.218 321.853 162.353 322.811 162.353 324.028C162.353 325.245 160.218 326.202 157.605 326.202C154.991 326.202 152.877 325.225 152.877 324.028C152.877 322.831 154.912 321.853 157.605 321.853ZM107.171 310.362C107.171 310.801 106.353 311.2 105.316 311.24C104.278 311.28 103.321 310.941 103.321 310.482C103.361 309.425 107.131 309.225 107.171 310.362Z" fill="#141414"/>
<path d="M126.064 360.716C127.342 360.716 128.378 360.099 128.378 359.339C128.378 358.58 127.342 357.963 126.064 357.963C124.786 357.963 123.75 358.58 123.75 359.339C123.75 360.099 124.786 360.716 126.064 360.716Z" fill="#141414"/>
<path fill-rule="evenodd" clip-rule="evenodd" d="M225.694 293.265C227.689 293.265 229.405 293.844 229.405 294.542C229.405 295.24 227.749 295.839 225.694 295.839C223.64 295.839 222.004 295.26 222.004 294.542C222.004 293.824 223.659 293.265 225.694 293.265ZM98.6731 242.333C98.6731 242.831 98.3738 246.602 98.5334 252.108C98.5334 252.846 98.6731 255.36 98.6731 255.36C98.6731 255.36 98.9125 255.5 98.9125 255.36C98.9125 255.22 99.0322 252.846 99.0521 252.108C99.1718 247.52 98.9125 242.133 98.9125 242.333C98.9125 242.301 98.9002 242.271 98.8773 242.248C98.8548 242.226 98.8243 242.213 98.7928 242.213C98.7609 242.213 98.7308 242.226 98.7083 242.248C98.6858 242.271 98.6731 242.301 98.6731 242.333ZM181.764 24.3391C184.258 25.0174 188.667 26.4339 190.263 28.4887C190.321 28.5641 190.353 28.656 190.353 28.7508C190.353 28.8455 190.325 28.938 190.268 29.0142C190.212 29.0906 190.132 29.1467 190.042 29.1742C189.951 29.2018 189.854 29.1993 189.764 29.167C181.784 25.9152 169.076 30.0648 161.017 33.4164C157.825 34.753 176.976 13.1471 190.742 16.5386C190.837 16.5673 190.918 16.6255 190.978 16.7044C191.036 16.7836 191.068 16.8792 191.068 16.9776C191.068 17.0758 191.036 17.1716 190.978 17.2506C190.918 17.3297 190.837 17.3877 190.742 17.4165C187.613 18.1503 184.541 19.1036 181.545 20.2693C183.839 20.3691 189.126 20.7082 190.902 22.2643C190.973 22.3252 191.023 22.4051 191.05 22.4948C191.075 22.5842 191.075 22.6791 191.046 22.7681C191.018 22.8568 190.967 22.9358 190.895 22.9952C190.822 23.0545 190.735 23.0918 190.642 23.1022C187.665 23.3611 184.7 23.7739 181.764 24.3391ZM188.388 17.0973C184.469 17.083 180.616 18.1013 177.216 20.0499C171.133 23.2775 165.717 27.6304 161.256 32.8777C168.897 29.566 179.769 25.8154 187.929 27.6907C185.355 26.376 182.619 25.41 179.789 24.8179C179.686 24.7962 179.595 24.7396 179.528 24.6578C179.462 24.5762 179.425 24.4741 179.425 24.369C179.425 24.2638 179.462 24.1619 179.528 24.0801C179.595 23.9985 179.686 23.942 179.789 23.9202C182.83 23.1011 185.932 22.5405 189.066 22.2444C186.007 21.5229 182.873 21.1613 179.73 21.1671C179.628 21.1699 179.527 21.1385 179.445 21.0778C179.362 21.017 179.302 20.9304 179.274 20.8318C179.248 20.733 179.254 20.6279 179.292 20.5333C179.332 20.4386 179.402 20.3598 179.49 20.3092C182.326 18.9087 185.312 17.8313 188.388 17.0973ZM53.6659 183.979C51.6818 184.238 49.6817 184.36 47.6809 184.338C47.5793 184.341 47.4792 184.312 47.3983 184.25C47.3174 184.189 47.2601 184.1 47.2365 184.001C47.213 183.902 47.2246 183.798 47.2692 183.707C47.3138 183.615 47.3889 183.542 47.4814 183.5C49.9552 182.164 55.7806 180.847 58.7731 178.772L66.1745 173.824C66.1894 173.808 66.2079 173.795 66.2286 173.785C66.2493 173.775 66.2717 173.77 66.2942 173.77C66.3171 173.77 66.3392 173.775 66.3599 173.785C66.3806 173.795 66.3991 173.808 66.4139 173.824C66.6334 174.084 66.1745 174.104 63.6808 177.395C62.0253 179.434 60.6807 181.706 59.6908 184.139C58.6211 186.682 57.682 189.279 56.8778 191.919C56.8778 192.518 55.4414 192.956 55.8404 189.685C56.0058 188.464 56.2318 187.253 56.5187 186.054C54.449 187.549 52.2683 188.882 49.9951 190.044C49.9131 190.091 49.8188 190.112 49.7249 190.104C49.6309 190.094 49.5417 190.057 49.4699 189.996C49.3977 189.934 49.3465 189.853 49.3226 189.761C49.2986 189.67 49.3037 189.573 49.3367 189.485C50.3571 187.354 51.8352 185.474 53.6659 183.979ZM64.9576 175.141C55.1821 182.024 59.5511 179.53 49.7956 183.42C51.6625 183.415 53.5183 183.135 55.3018 182.582L55.5212 182.403C55.9601 182.064 56.7382 182.742 55.8803 183.301C53.963 184.809 52.2697 186.583 50.8529 188.567C53.0623 187.437 55.1313 186.05 57.0175 184.438C57.0879 184.357 57.1843 184.301 57.2906 184.285C57.3969 184.267 57.5057 184.287 57.5986 184.341C57.6911 184.396 57.7618 184.483 57.7977 184.584C57.8336 184.686 57.8333 184.795 57.7955 184.897C57.3828 186.401 57.0501 187.926 56.798 189.465C58.3752 184.124 61.1678 179.221 64.9576 175.141ZM66.3142 165.824C69.6973 160.343 74.5307 155.903 80.2792 152.997C88.0198 149.346 90.8527 153.236 87.3415 160.219C84.3515 165.797 80.0775 170.583 74.8727 174.184C75.4589 176.23 75.6947 178.361 75.571 180.488C75.0523 182.483 65.2967 185.834 63.9601 185.675C63.8589 185.67 63.7606 185.638 63.6764 185.582C63.5923 185.525 63.5248 185.447 63.4813 185.355C63.2818 184.897 63.7406 184.478 64.1795 184.139C66.6152 182.36 69.1678 180.747 71.8204 179.311L71.6807 175.999L70.5436 176.558C70.4696 176.577 70.3912 176.577 70.3172 176.556C70.2436 176.536 70.1769 176.494 70.1246 176.438L63.8404 170.313C63.811 170.28 63.7947 170.238 63.7947 170.194C63.7947 170.149 63.811 170.107 63.8404 170.074C63.8404 170.074 64.0399 169.655 64.4588 168.917H60.9676C60.4489 169.994 56.9776 177.016 55.8604 177.495C55.7802 177.534 55.6917 177.554 55.6028 177.55C55.5136 177.549 55.4262 177.525 55.3482 177.482C55.2699 177.439 55.2035 177.377 55.1538 177.304C55.1041 177.229 55.0725 177.144 55.0624 177.056C54.823 175.56 57.7756 165.805 59.7307 165.226C61.9016 165.026 64.0903 165.175 66.2144 165.665C66.246 165.678 66.2725 165.7 66.2902 165.728C66.3084 165.757 66.3167 165.791 66.3142 165.824ZM74.4338 174.323C73.642 174.852 72.823 175.337 71.98 175.779L72.3989 179.55C72.3989 179.849 72.3989 179.67 68.4089 182.303C67.192 183.081 65.9551 183.899 65.1172 184.518C68.1445 183.683 71.0637 182.498 73.8154 180.986C74.0348 180.847 74.6134 180.448 74.6932 180.188C74.9039 178.232 74.8165 176.254 74.4338 174.323ZM65.6359 167.8C64.8578 168.957 64.379 169.794 64.1995 170.134L70.384 175.859C71.1022 175.5 71.8802 175.061 72.6982 174.563C70.1214 172.553 67.7553 170.287 65.6359 167.8ZM66.1346 166.104C64.0769 165.812 61.9879 165.812 59.9302 166.104C59.2319 166.343 58.0349 169.515 57.8155 170.094C57.1111 171.972 56.5445 173.899 56.1197 175.859C57.3167 174.084 60.5885 168.278 60.4489 168.558C60.4761 168.501 60.5185 168.455 60.5718 168.423C60.6248 168.391 60.6861 168.377 60.7481 168.378L64.6384 168.578C65.0374 167.819 65.5162 167.041 66.1346 166.104ZM77.1271 155.75C72.605 158.819 68.7619 162.785 65.8354 167.401C68.4844 169.434 70.9059 171.748 73.0573 174.303C77.6095 171.302 81.5168 167.424 84.5485 162.892L77.1271 155.75ZM73.556 160.757C73.1723 161.159 72.8716 161.633 72.6706 162.151C72.47 162.67 72.3735 163.223 72.3866 163.779C72.3993 164.334 72.5215 164.882 72.7464 165.391C72.971 165.899 73.2934 166.358 73.6957 166.742C74.0979 167.126 74.5717 167.427 75.09 167.628C75.6087 167.828 76.1611 167.924 76.7172 167.913C77.2729 167.899 77.8206 167.776 78.3292 167.552C78.8377 167.328 79.2969 167.005 79.6807 166.603C80.4558 165.79 80.8766 164.704 80.8505 163.581C80.8244 162.459 80.3532 161.393 79.541 160.617C78.7289 159.842 77.6422 159.422 76.5195 159.448C75.3972 159.474 74.3312 159.945 73.556 160.757ZM79.1221 161.076C79.7641 161.736 80.1236 162.62 80.1236 163.54C80.1236 164.461 79.7641 165.345 79.1221 166.004C78.4924 166.588 77.6636 166.91 76.805 166.904C75.946 166.897 75.1219 166.564 74.5009 165.971C73.8796 165.378 73.5082 164.57 73.4625 163.712C73.4167 162.854 73.6997 162.011 74.2543 161.356C74.8716 160.688 75.7241 160.285 76.632 160.233C77.5399 160.181 78.4325 160.483 79.1221 161.076ZM78.0248 162.214C78.2965 162.495 78.4793 162.851 78.5504 163.236C78.6212 163.621 78.5776 164.018 78.4246 164.378C78.2715 164.738 78.0158 165.046 77.6893 165.262C77.3625 165.478 76.9798 165.593 76.5884 165.593C76.1971 165.593 75.814 165.478 75.4876 165.262C75.1615 165.046 74.9057 164.738 74.7527 164.378C74.5992 164.018 74.5553 163.621 74.6268 163.236C74.6975 162.851 74.8803 162.495 75.152 162.214C75.3381 162.021 75.5612 161.867 75.8082 161.762C76.0549 161.657 76.3204 161.603 76.5884 161.603C76.8565 161.603 77.122 161.657 77.3687 161.762C77.6157 161.867 77.8388 162.021 78.0248 162.214Z" fill="#141414"/>
<path fill-rule="evenodd" clip-rule="evenodd" d="M141.186 26.7131C141.003 26.5584 140.86 26.3625 140.768 26.1419C140.676 25.9211 140.637 25.6817 140.655 25.4433C140.673 25.2048 140.747 24.9738 140.871 24.7695C140.996 24.565 141.166 24.393 141.37 24.2673C141.573 24.1414 141.804 24.0656 142.042 24.046C142.28 24.0264 142.521 24.0633 142.742 24.1541C142.963 24.2447 143.16 24.3863 143.316 24.5677C143.472 24.7489 143.583 24.9645 143.64 25.1969C143.654 25.448 143.609 25.6989 143.508 25.9293C143.407 26.1596 143.253 26.3629 143.058 26.5223C142.864 26.6817 142.634 26.7929 142.389 26.847C142.143 26.901 141.888 26.896 141.645 26.8328C141.645 27.0323 141.346 29.2468 140.747 31.8403C143.519 31.8508 146.195 32.8561 148.288 34.6732C148.318 34.6175 148.368 34.575 148.428 34.5535C163.989 32.359 165.604 37.506 160.597 41.6357C154.971 46.284 137.694 51.6107 128.158 50.3538C125.665 50.0546 121.794 48.8975 121.754 46.5434C121.754 43.511 129.874 40.1394 130.194 39.9798C131.494 36.6863 134.007 34.016 137.216 32.5186C135.799 30.9825 134.323 28.748 133.984 28.369C132.288 29.2867 130.692 27.1121 131.989 25.9949C132.275 25.7444 132.647 25.6156 133.027 25.6358C133.343 25.5717 133.671 25.6161 133.959 25.7617C134.247 25.9074 134.478 26.1457 134.614 26.4385C134.75 26.7311 134.783 27.0611 134.709 27.3752C134.634 27.6892 134.456 27.969 134.203 28.1695C134.875 28.653 135.473 29.2308 135.979 29.8852C138.852 33.3565 136.418 32.1595 139.969 31.8802C140.075 30.1007 140.486 28.3527 141.186 26.7131ZM129.854 40.5384C128.059 41.4162 122.273 44.5284 122.353 46.5234C122.353 47.1818 122.931 47.8401 123.989 48.4187C131.41 52.4087 153.495 46.1444 159.899 40.9374C163.55 38.0048 163.171 35.1919 156.228 34.6931C153.566 34.5725 150.898 34.6524 148.248 34.9325C147.749 36.0896 142.941 45.1868 129.854 40.5384ZM127.859 45.2865C127.772 45.4712 127.725 45.6721 127.721 45.876C127.717 46.0798 127.755 46.2826 127.834 46.4705C127.914 46.6584 128.031 46.8278 128.179 46.9678C128.328 47.1074 128.504 47.2144 128.697 47.2815C128.889 47.329 129.087 47.3385 129.282 47.3091C129.477 47.2797 129.664 47.2122 129.833 47.1103C130.002 47.0084 130.148 46.8738 130.265 46.715C130.382 46.5561 130.466 46.3758 130.512 46.1843C130.632 45.8324 130.606 45.4476 130.441 45.1146C130.277 44.7816 129.986 44.5277 129.635 44.4087C129.283 44.2898 128.898 44.3151 128.565 44.4798C128.232 44.6445 127.978 44.9347 127.859 45.2865ZM129.495 44.7279C130.373 45.1269 129.774 46.7229 128.936 46.4835C128.098 46.2441 128.538 44.5484 129.495 44.7279ZM143.26 43.5908C143.119 43.4856 142.957 43.4138 142.784 43.3797C142.611 43.3459 142.433 43.351 142.263 43.3953C142.093 43.4392 141.934 43.5208 141.8 43.6339C141.665 43.7475 141.557 43.8893 141.485 44.0496C141.332 44.4073 141.317 44.8088 141.442 45.1773C141.567 45.5455 141.824 45.8546 142.164 46.0446C142.325 46.1451 142.508 46.2079 142.698 46.2285C142.887 46.2492 143.078 46.2271 143.258 46.1636C143.438 46.1005 143.602 45.9978 143.737 45.8636C143.872 45.7291 143.975 45.5658 144.039 45.3863C144.151 45.0435 144.133 44.6717 143.99 44.3413C143.847 44.0105 143.587 43.7435 143.26 43.5908ZM143.101 43.8701C143.899 44.4686 143.381 45.8651 142.543 45.3863C141.705 44.9075 142.144 43.4711 143.101 43.89V43.8701ZM153.775 38.1644C153.658 38.0559 153.519 37.9747 153.368 37.9275C153.216 37.88 153.056 37.8673 152.899 37.8902C152.741 37.9134 152.592 37.9714 152.46 38.0603C152.328 38.1491 152.218 38.2667 152.139 38.4038C151.984 38.7233 151.952 39.0879 152.047 39.4296C152.143 39.7713 152.36 40.0662 152.657 40.2591C152.79 40.3676 152.945 40.4448 153.112 40.4858C153.278 40.5268 153.452 40.5301 153.62 40.496C153.788 40.4615 153.946 40.3901 154.084 40.2871C154.221 40.184 154.333 40.052 154.413 39.9C154.486 39.7444 154.528 39.5758 154.536 39.4038C154.543 39.2319 154.517 39.06 154.458 38.8985C154.398 38.7368 154.307 38.5888 154.19 38.4625C154.072 38.3367 153.931 38.2351 153.775 38.1644ZM153.615 38.4237C154.213 38.9823 153.794 40.0995 153.096 39.6207C152.398 39.1419 152.797 38.0247 153.615 38.4237ZM133.027 25.9351C133.284 25.9446 133.53 26.05 133.714 26.2309C133.899 26.4116 134.009 26.6546 134.024 26.9126C134.013 27.1437 133.914 27.3619 133.747 27.5218C133.58 27.6816 133.358 27.7707 133.126 27.7705C133.006 27.777 132.885 27.7597 132.771 27.7196C132.657 27.6796 132.552 27.6176 132.462 27.5369C132.281 27.3742 132.172 27.1461 132.159 26.9027C132.145 26.6593 132.229 26.4206 132.392 26.239C132.555 26.0576 132.783 25.9482 133.027 25.9351ZM141.864 24.2393C142.122 24.2489 142.367 24.3542 142.552 24.5351C142.736 24.7158 142.847 24.9589 142.861 25.2169C142.851 25.448 142.752 25.6661 142.585 25.8261C142.418 25.9858 142.196 26.0749 141.964 26.0747C141.835 26.0997 141.703 26.0969 141.575 26.0663C141.448 26.0359 141.328 25.9783 141.225 25.8977C141.121 25.8171 141.036 25.7153 140.976 25.5991C140.915 25.4829 140.88 25.3551 140.873 25.2242C140.865 25.0932 140.886 24.9624 140.934 24.8402C140.981 24.7181 141.055 24.6076 141.149 24.5162C141.243 24.4247 141.355 24.3544 141.479 24.3102C141.602 24.2658 141.734 24.2485 141.864 24.2593V24.2393ZM240.318 123.291C241.253 121.556 242.788 120.222 244.637 119.535C246.484 118.849 248.519 118.859 250.361 119.562C252.201 120.266 253.724 121.615 254.644 123.358C255.564 125.101 255.819 127.12 255.36 129.037C258.294 130.464 261.097 132.147 263.739 134.064C264.896 135.101 264.736 136.059 262.682 135.919C259.114 135.601 255.584 134.933 252.148 133.924C251.047 134.727 249.764 135.241 248.414 135.418C247.064 135.595 245.691 135.43 244.421 134.937C243.151 134.445 242.025 133.64 241.149 132.599C240.271 131.557 239.669 130.312 239.4 128.977C237.405 128.019 230.482 124.448 230.063 122.433C229.924 121.695 230.642 121.356 231.4 121.276C234.466 121.437 237.48 122.119 240.318 123.291ZM255.2 129.456C254.811 130.811 254.075 132.042 253.066 133.027C256.455 134.004 259.928 134.672 263.44 135.022C262.303 133.545 256.836 130.393 255.2 129.456ZM240.118 129.276C240.442 130.399 241.019 131.431 241.807 132.294C242.595 133.157 243.571 133.827 244.658 134.251C245.747 134.676 246.919 134.844 248.083 134.742C249.247 134.64 250.371 134.272 251.37 133.665C247.516 132.483 243.754 131.016 240.118 129.276ZM252.447 132.847C253.849 131.598 254.741 129.876 254.956 128.01C255.169 126.145 254.688 124.266 253.604 122.732C253.036 121.895 252.302 121.182 251.45 120.638C250.595 120.093 249.641 119.729 248.642 119.566C247.643 119.404 246.62 119.447 245.639 119.693C244.657 119.939 243.736 120.383 242.931 120.997C241.847 121.794 240.993 122.863 240.454 124.096C239.914 125.329 239.709 126.682 239.859 128.019C243.919 129.965 248.128 131.579 252.447 132.847ZM240.118 123.69C238.642 123.211 232.138 121.336 230.961 122.254C231.42 123.69 237.904 127.062 239.4 127.68C239.287 126.31 239.533 124.934 240.118 123.69ZM95.4803 246.642C97.8891 248.225 100.425 249.606 103.061 250.772C103.087 250.78 103.115 250.778 103.14 250.77C103.165 250.76 103.186 250.742 103.199 250.719C103.213 250.695 103.219 250.669 103.216 250.642C103.213 250.615 103.2 250.591 103.181 250.572C100.77 248.993 98.2344 247.613 95.5999 246.442C95.5746 246.434 95.547 246.436 95.522 246.444C95.4966 246.454 95.4755 246.473 95.4618 246.496C95.448 246.517 95.4422 246.545 95.4458 246.572C95.4491 246.599 95.461 246.624 95.4803 246.642ZM52.2287 71.4809C52.2287 66.653 52.5079 62.1044 52.5079 62.3039C52.521 62.264 52.5464 62.2292 52.5805 62.2045C52.6146 62.1798 52.6556 62.1668 52.6977 62.1668C52.7397 62.1668 52.7804 62.1798 52.8145 62.2045C52.8486 62.2292 52.8739 62.264 52.887 62.3039C52.887 63.7602 53.1464 65.057 53.1663 71.8001C54.6408 70.8407 56.1657 69.9614 57.7348 69.1667C57.7559 69.1536 57.7791 69.1449 57.8034 69.1406C57.8281 69.1366 57.8531 69.1373 57.877 69.1427C57.901 69.1485 57.9238 69.1587 57.9441 69.1732C57.9641 69.1874 57.9811 69.2055 57.9942 69.2265C58.0073 69.2476 58.0163 69.2708 58.0203 69.2955C58.0247 69.3194 58.0236 69.3444 58.0181 69.3687C58.0127 69.3927 58.0022 69.4155 57.988 69.4355C57.9735 69.4558 57.9554 69.4728 57.9344 69.4859C56.6575 70.5334 55.3253 71.5124 53.9443 72.4185C56.8171 73.9946 57.3957 74.4135 58.7723 75.2514C60.1488 76.0893 60.1687 76.0893 60.069 76.2888C59.9693 76.4883 59.8695 76.4085 58.493 75.7701C57.1164 75.1317 56.1788 74.7327 53.1663 73.0769C53.1663 80.7177 52.867 84.209 52.867 84.0095C52.854 84.0494 52.8286 84.0842 52.7945 84.1089C52.7604 84.1335 52.7198 84.1466 52.6777 84.1466C52.6356 84.1466 52.5946 84.1335 52.5605 84.1089C52.5265 84.0842 52.5011 84.0494 52.488 84.0095C52.488 82.5731 52.2087 81.3162 52.2087 73.5357C50.6522 74.567 49.0406 75.5126 47.3808 76.3686C47.3598 76.3817 47.3365 76.3908 47.3122 76.3947C47.2879 76.3987 47.2629 76.398 47.239 76.3926C47.2147 76.3868 47.1918 76.3766 47.1719 76.3621C47.1519 76.348 47.1345 76.3298 47.1215 76.3088C47.1084 76.2877 47.0997 76.2645 47.0957 76.2402C47.0913 76.2159 47.0921 76.1909 47.0979 76.1666C47.1033 76.1427 47.1135 76.1198 47.128 76.0999C47.1421 76.0795 47.1603 76.0625 47.1813 76.0494C48.7523 74.7632 50.3976 73.5706 52.109 72.4784C50.493 71.5806 49.9743 71.2614 48.6975 70.4834C47.4207 69.7053 47.0018 69.4659 47.1015 69.2465C47.1392 69.2189 47.1846 69.204 47.2314 69.204C47.2778 69.204 47.3235 69.2189 47.3609 69.2465C49.8746 70.1841 51.3708 71.042 52.2287 71.4809Z" fill="#141414"/>
<path fill-rule="evenodd" clip-rule="evenodd" d="M95.6007 250.771C97.8354 249.6 99.953 248.216 101.925 246.642C102.064 246.642 101.925 246.363 101.805 246.442C99.5718 247.616 97.4542 248.999 95.481 250.572C95.3613 250.652 95.481 250.851 95.6007 250.771ZM157.446 130.473C157.446 136.079 157.645 136.976 157.645 137.994C157.636 138.015 157.634 138.038 157.636 138.061C157.638 138.083 157.646 138.105 157.659 138.124C157.672 138.143 157.689 138.158 157.709 138.169C157.729 138.18 157.752 138.185 157.775 138.185C157.798 138.185 157.82 138.18 157.84 138.169C157.86 138.158 157.878 138.143 157.89 138.124C157.903 138.105 157.911 138.083 157.914 138.061C157.916 138.038 157.913 138.015 157.905 137.994C157.905 138.193 158.124 134.961 158.124 130.133C159.67 131.008 161.262 131.801 162.892 132.508C163.052 132.508 163.191 132.348 163.032 132.268C161.627 131.33 160.176 130.464 158.683 129.675C159.671 129.065 160.623 128.399 161.535 127.68C161.562 127.659 161.581 127.63 161.588 127.596C161.594 127.562 161.588 127.528 161.571 127.499C161.554 127.469 161.527 127.447 161.494 127.436C161.462 127.426 161.427 127.427 161.396 127.44C161.396 127.44 159.76 128.278 158.124 129.335C158.124 124.368 157.924 123.35 157.924 122.513C157.924 122.476 157.91 122.44 157.883 122.414C157.857 122.388 157.822 122.373 157.785 122.373C157.748 122.373 157.712 122.388 157.686 122.414C157.66 122.44 157.645 122.476 157.645 122.513C157.645 122.313 157.466 125.725 157.446 129.116C156.867 128.817 155.71 128.198 153.954 127.44C153.795 127.44 153.655 127.6 153.815 127.68C153.974 127.759 155.291 128.697 157.366 129.834C156.137 130.578 154.952 131.391 153.815 132.268C153.655 132.268 153.815 132.607 153.954 132.508C153.755 132.607 155.251 131.869 157.446 130.473ZM207.6 271.44C205.425 270.542 182.483 269.125 182.283 269.106C181.665 269.106 177.196 270.003 176.897 270.083C176.597 270.163 176.897 270.083 176.897 270.183C178.641 270.979 180.441 271.646 182.283 272.178C184.278 272.597 188.268 272.637 207.181 274.672C207.54 274.672 208.298 273.435 207.859 271.639C207.839 271.579 207.699 271.5 207.6 271.44ZM182.183 271.978L179.171 270.921C179.287 270.761 179.364 270.577 179.39 270.382C179.419 270.188 179.399 269.988 179.33 269.804C180.306 269.608 181.292 269.466 182.283 269.385C182.762 269.864 181.485 270.043 182.443 270.662C182.562 270.662 182.582 270.662 182.443 270.801C182.393 270.826 182.348 270.861 182.311 270.904C182.273 270.947 182.246 270.998 182.23 271.052C182.213 271.106 182.207 271.164 182.213 271.218C182.218 271.275 182.237 271.33 182.263 271.38C182.423 271.659 182.602 271.779 182.183 271.978ZM182.423 271.978C182.981 271.679 182.223 271.22 182.602 270.981C183.44 270.402 179.45 270.562 205.804 272.976C205.749 273.386 205.841 273.804 206.063 274.153L182.423 271.978ZM205.824 272.816C204.926 272.716 182.842 270.622 182.702 270.502C182.562 270.382 182.203 270.283 182.383 270.043C182.562 269.804 182.662 269.584 182.383 269.345C182.582 269.345 202.153 270.901 206.323 271.599C206.032 271.957 205.857 272.395 205.824 272.856V272.816ZM207.101 274.193C206.961 274.053 206.941 274.093 206.802 273.694C206.662 273.295 206.802 271.938 207.44 271.938C207.538 272.324 207.558 272.725 207.5 273.119C207.442 273.513 207.307 273.892 207.101 274.233V274.193ZM220.966 215.32C220.944 215.247 220.906 215.179 220.855 215.122C220.803 215.066 220.74 215.021 220.669 214.991C220.599 214.961 220.522 214.948 220.444 214.953C220.368 214.956 220.293 214.976 220.226 215.013C220.158 215.049 220.1 215.099 220.054 215.161C220.009 215.222 219.977 215.294 219.962 215.369C219.947 215.443 219.949 215.521 219.967 215.596C219.985 215.671 220.02 215.739 220.068 215.799C220.268 216.118 220.467 216.438 220.687 216.757C220.717 216.825 220.762 216.886 220.818 216.936C220.875 216.986 220.941 217.023 221.014 217.044C221.086 217.066 221.162 217.073 221.235 217.061C221.31 217.051 221.382 217.023 221.445 216.983C221.508 216.941 221.561 216.886 221.601 216.823C221.641 216.76 221.668 216.689 221.676 216.614C221.686 216.539 221.679 216.463 221.656 216.391C221.634 216.319 221.596 216.253 221.545 216.198C221.445 215.919 221.146 215.62 220.966 215.32ZM196.108 172.947C196.228 172.009 197.325 167.241 196.906 167.141C196.883 167.131 196.858 167.128 196.833 167.128C196.808 167.129 196.783 167.136 196.76 167.148C196.737 167.159 196.717 167.174 196.702 167.194C196.685 167.214 196.674 167.236 196.667 167.261C196.102 168.654 195.668 170.095 195.37 171.57C195.257 172.089 195.184 172.616 195.151 173.146C195.154 173.227 195.177 173.307 195.219 173.377C195.26 173.447 195.32 173.503 195.39 173.545C195.891 173.799 196.431 173.969 196.986 174.044C197.425 174.044 198.981 174.163 198.802 173.745C198.622 173.326 198.383 174.084 196.108 172.947ZM205.066 170.054V169.016C205.066 168.298 204.068 168.198 204.049 169.016V170.154C204.043 170.228 204.054 170.305 204.082 170.374C204.108 170.446 204.15 170.509 204.203 170.562C204.258 170.616 204.323 170.656 204.394 170.681C204.466 170.706 204.542 170.715 204.617 170.707C204.692 170.701 204.765 170.676 204.83 170.637C204.895 170.599 204.951 170.547 204.993 170.484C205.036 170.423 205.064 170.351 205.078 170.278C205.091 170.203 205.086 170.127 205.066 170.054ZM206.383 175.56C205.744 177.954 204.886 178.313 203.849 178.433C203.636 178.449 203.424 178.449 203.211 178.433C203.164 178.416 203.111 178.421 203.066 178.443C203.021 178.466 202.988 178.504 202.971 178.552C202.956 178.601 202.96 178.652 202.981 178.697C203.005 178.742 203.045 178.775 203.091 178.792C204.827 179.789 207.201 178.572 206.762 175.56C206.748 175.52 206.724 175.485 206.69 175.46C206.655 175.435 206.614 175.422 206.572 175.422C206.531 175.422 206.489 175.435 206.456 175.46C206.421 175.485 206.396 175.52 206.383 175.56ZM213.884 200.497C213.872 200.433 213.847 200.369 213.812 200.313C213.776 200.258 213.729 200.208 213.674 200.172C213.619 200.133 213.558 200.107 213.493 200.092C213.428 200.079 213.362 200.077 213.295 200.088C213.231 200.1 213.167 200.125 213.111 200.16C213.056 200.196 213.008 200.243 212.969 200.298C212.931 200.353 212.905 200.414 212.89 200.479C212.876 200.544 212.875 200.612 212.886 200.677C212.971 201.048 213.079 201.415 213.206 201.774C213.212 201.851 213.235 201.926 213.274 201.992C213.312 202.059 213.363 202.115 213.427 202.16C213.49 202.203 213.563 202.233 213.638 202.245C213.714 202.258 213.791 202.253 213.866 202.233C213.939 202.211 214.007 202.173 214.065 202.123C214.123 202.072 214.168 202.01 214.2 201.939C214.23 201.869 214.244 201.792 214.241 201.714C214.238 201.638 214.218 201.563 214.183 201.495C214.063 201.156 213.964 200.817 213.884 200.497ZM194.253 167.081C194.268 167.007 194.267 166.928 194.248 166.853C194.23 166.779 194.195 166.711 194.145 166.651C194.097 166.591 194.035 166.544 193.967 166.511C193.897 166.478 193.821 166.461 193.744 166.461C193.668 166.461 193.591 166.478 193.523 166.511C193.453 166.544 193.392 166.591 193.344 166.651C193.295 166.711 193.261 166.779 193.242 166.853C193.222 166.928 193.221 167.007 193.236 167.081V168.218C193.221 168.293 193.222 168.371 193.242 168.446C193.261 168.519 193.295 168.589 193.344 168.649C193.392 168.707 193.453 168.755 193.523 168.789C193.591 168.822 193.668 168.838 193.744 168.838C193.821 168.838 193.897 168.822 193.967 168.789C194.035 168.755 194.097 168.707 194.145 168.649C194.195 168.589 194.23 168.519 194.248 168.446C194.267 168.371 194.268 168.293 194.253 168.218C194.23 167.839 194.23 167.46 194.253 167.081Z" fill="#141414"/>
<path fill-rule="evenodd" clip-rule="evenodd" d="M361.913 249.375C359.699 248.298 354.432 249.195 351.938 249.714C351.022 248.69 349.867 247.91 348.575 247.445C347.283 246.978 345.895 246.84 344.537 247.041C342.302 247.599 341.764 250.353 341.863 252.667C340.427 252.407 338.871 252.228 337.434 252.088C337.554 251.649 337.933 251.031 337.813 250.592C337.749 250.436 337.651 250.294 337.528 250.18C337.403 250.063 337.255 249.977 337.093 249.923C336.932 249.87 336.763 249.852 336.593 249.872C336.425 249.89 336.262 249.945 336.118 250.033C335.721 250.351 335.353 250.705 335.02 251.091C335.02 250.392 335.599 249.275 334.901 249.096C334.203 248.916 332.028 250.871 331.41 251.57C326.828 251.066 322.206 251.066 317.624 251.57C311.626 252 305.973 254.537 301.664 258.732C325.923 230.802 336.577 211.61 336.297 187.69C336.018 163.77 307.589 152.358 295.898 152.059C284.547 151.78 272.836 158.044 272.238 158.044C261.984 160.039 235.091 157.066 229.445 159.42C229.515 156.892 229.061 154.377 228.114 152.033C227.166 149.688 225.745 147.564 223.939 145.795C220.707 142.263 215.54 140.947 210.293 141.166C202.812 141.505 195.39 144.637 191.68 151.141C190.449 153.247 189.726 155.61 189.565 158.044C189.565 158.662 188.288 168.837 191.56 176.538C192.298 178.488 193.478 180.24 195.008 181.655C196.539 183.071 198.376 184.112 200.378 184.697C197.153 188.973 194.195 193.444 191.52 198.084C190.902 199.38 191.361 200.079 192.258 200.079C193.156 200.079 194.353 199.839 195.191 199.879C193.874 203.49 190.523 212.906 189.705 216.637C185.603 219.398 181.909 222.723 178.732 226.512C172.747 233.375 169.954 240.816 163.171 244.786L161.176 245.904C163.889 237.664 169.017 221.305 167.161 221.285C165.306 221.265 160.797 237.006 157.925 247.679C154.852 249.375 153.296 250.452 152.219 253.804C151.868 254.652 151.687 255.559 151.687 256.477C151.687 257.395 151.868 258.302 152.219 259.15C152.347 259.421 152.543 259.658 152.787 259.832C153.031 260.007 153.317 260.115 153.615 260.148C153.855 260.148 153.855 259.929 153.197 261.385C152.883 261.474 152.586 261.616 152.318 261.804L142.723 255.958C142.503 255.958 145.256 255.579 86.8624 263.18C85.7652 262.362 84.6081 261.505 83.4111 260.567C54.723 238.243 148.408 214.283 155.909 183.779C162.633 156.468 123.989 150.962 132.568 125.306C141.146 99.6503 197.246 106.832 250.053 103.76C302.861 100.688 323.868 47.3813 285.425 19.6108C246.981 -8.15973 207.48 31.2815 198.144 41.3563C188.807 51.4311 178.034 64.618 147.79 63.3013C117.546 61.9846 77.9647 67.1118 63.4611 110.962C56.4786 131.949 62.7429 146.672 72.0595 158.343C75.1801 155.168 79.0395 152.817 83.2914 151.5C85.7652 150.902 88.219 151.221 88.9173 153.675C90.234 158.184 84.7677 165.186 81.5956 168.677C89.5756 176.378 97.2364 182.882 100.249 189.605C105.276 200.896 81.1767 209.256 71.0022 215.859C60.8277 222.462 45.2866 242.891 54.8227 262.722C55.5391 264.241 56.3386 265.719 57.2167 267.15C36.9874 269.764 36.2892 269.764 36.0898 269.884C35.8903 270.003 35.9502 270.362 36.0898 270.562H35.9502C37.7455 272.557 90.5931 348.088 123.032 386.471L123.61 386.591C130.633 383.218 258.073 321.355 251.29 317.544C251.29 317.544 158.124 265.535 155.909 264.218C156.256 263.623 156.556 263.002 156.807 262.362C156.918 262.354 157.022 262.308 157.102 262.231C157.182 262.155 157.233 262.053 157.246 261.943V260.866C158.483 261.285 160.418 260.088 161.416 259.19C163.411 257.355 166.403 252.248 168.618 251.57C173.033 250.469 177.389 249.137 181.665 247.579C199.44 240.916 206.822 233.455 214.562 221.405C215.842 219.523 216.931 217.518 217.814 215.42C222.331 220.298 227.823 224.173 233.934 226.792C217.814 245.405 220.348 257.215 226.173 263.659C231.5 269.544 240.138 267.47 241.555 267.031C241.555 275.889 244.547 295.559 245.545 297.534C246.063 298.671 244.328 299.529 243.969 301.784C243.781 302.929 243.929 304.104 244.396 305.167C244.863 306.231 245.63 307.134 246.602 307.769C248.817 309.165 252.587 309.245 251.111 307.03C250.619 306.397 250.063 305.817 249.455 305.295C250.033 305.474 250.672 305.714 251.45 305.993C258.732 308.846 259.689 310.143 261.026 309.764C261.205 309.722 261.373 309.641 261.518 309.527C261.663 309.414 261.781 309.27 261.864 309.105C262.023 309.215 262.205 309.291 262.394 309.326C262.585 309.361 262.78 309.356 262.969 309.311C263.157 309.266 263.334 309.182 263.486 309.064C263.641 308.946 263.767 308.796 263.859 308.626C263.927 308.497 263.964 308.354 263.964 308.208C263.964 308.061 263.927 307.918 263.859 307.789C264.112 307.363 264.198 306.857 264.098 306.372C264.098 304.577 257.235 298.711 255.839 297.554C256.038 295.559 257.096 291.13 259.729 279.36C273.335 294.701 319.08 273.375 321.574 272.298C321.993 272.736 338.891 265.534 340.846 264.497C340.646 264.497 362.272 254.722 363.09 251.131C363.09 250.293 362.551 249.754 361.913 249.375ZM284.746 68.7477C285.077 68.7579 285.39 68.8979 285.616 69.1365C285.844 69.3756 285.968 69.6944 285.963 70.0245C285.968 70.1884 285.942 70.352 285.884 70.5055C285.824 70.6585 285.736 70.7989 285.622 70.9179C285.51 71.0365 285.373 71.1319 285.223 71.1976C285.072 71.2632 284.911 71.2984 284.746 71.3013C284.582 71.2984 284.419 71.2636 284.268 71.1979C284.116 71.1323 283.978 71.0376 283.864 70.919C283.749 70.8004 283.659 70.6604 283.598 70.5069C283.538 70.3535 283.508 70.1892 283.51 70.0245C283.508 69.8595 283.538 69.6951 283.598 69.5417C283.659 69.3883 283.749 69.2483 283.864 69.1297C283.978 69.011 284.116 68.9164 284.268 68.8507C284.419 68.7851 284.582 68.7502 284.746 68.7477ZM273.475 33.9149C273.636 33.9148 273.796 33.947 273.945 34.0094C274.095 34.0717 274.23 34.1631 274.343 34.2783C274.456 34.3934 274.546 34.5299 274.605 34.6798C274.665 34.8298 274.695 34.9902 274.692 35.1518C274.713 35.3233 274.7 35.4975 274.648 35.6629C274.598 35.8283 274.514 35.9811 274.399 36.1109C274.284 36.2408 274.145 36.3449 273.987 36.416C273.829 36.4875 273.658 36.5241 273.485 36.5241C273.312 36.5241 273.141 36.4875 272.983 36.416C272.826 36.3449 272.685 36.2408 272.57 36.1109C272.457 35.9811 272.372 35.8283 272.321 35.6629C272.271 35.4975 272.256 35.3233 272.278 35.1518C272.276 34.9919 272.304 34.8331 272.363 34.6845C272.422 34.5359 272.509 34.4002 272.62 34.2853C272.732 34.1705 272.865 34.0787 273.011 34.015C273.157 33.9515 273.315 33.9174 273.475 33.9149ZM235.969 88.957C235.826 88.9309 235.698 88.8558 235.605 88.7449C235.512 88.6335 235.462 88.4935 235.462 88.3484C235.462 88.2037 235.512 88.0633 235.605 87.9523C235.698 87.8409 235.826 87.7658 235.969 87.7401C236.135 87.7401 236.296 87.8061 236.413 87.924C236.531 88.0419 236.597 88.2019 236.597 88.3683C236.597 88.5352 236.531 88.6952 236.413 88.8127C236.296 88.9306 236.135 88.9969 235.969 88.9969V88.957ZM230.542 34.1543C230.542 33.3563 232.537 32.9573 233.415 32.8376C234.865 32.646 236.334 32.646 237.784 32.8376C238.684 31.1874 239.789 29.6588 241.076 28.289C241.495 27.9499 241.874 27.8302 242.253 28.289C243.156 30.111 243.736 32.0749 243.969 34.0945C247.061 34.8925 251.37 36.3689 248.777 38.2242C247.979 38.8028 246.562 39.4013 245.026 40.2192C245.199 41.829 245.252 43.4493 245.186 45.0671C245.186 45.8052 244.986 46.9224 244.248 47.062C242.752 47.3214 241.595 45.2466 239.241 43.2117C236.986 44.3289 232.477 46.8027 232.378 44.4286C232.622 42.4035 233.224 40.4379 234.153 38.6232C231.859 36.4487 230.403 35.3912 230.542 34.1942V34.1543ZM228.547 70.8424C228.542 72.235 228.18 73.6028 227.492 74.8136C226.805 76.0247 225.817 77.0382 224.624 77.7564C223.43 78.4742 222.072 78.8721 220.68 78.9124C219.289 78.9523 217.909 78.6327 216.677 77.9846L228.288 68.7676C228.466 69.4586 228.561 70.1685 228.567 70.8823L228.547 70.8424ZM228.049 68.0295C224.857 70.4833 220.567 74.0145 216.278 77.7451C215.956 77.5504 215.648 77.3302 215.36 77.0868C219.53 72.8773 223.62 68.1292 226.153 65.1168C226.988 65.9591 227.64 66.9642 228.069 68.0694L228.049 68.0295ZM225.714 64.6979C224.916 65.5557 217.974 73.3761 214.981 76.6678C214.13 75.8854 213.45 74.9344 212.986 73.8749C216.019 71.6804 220.148 68.628 224.737 65.017L225.455 64.4385L225.714 64.6979ZM220.468 62.7029C222.069 62.701 223.633 63.1806 224.956 64.0794L222.143 66.0744C221.505 66.5532 216.657 70.3636 212.827 73.3561C212.421 72.1403 212.308 70.8453 212.498 69.5773C212.689 68.3095 213.176 67.1049 213.922 66.0617C214.667 65.0185 215.648 64.1668 216.787 63.5759C217.924 62.9854 219.186 62.6724 220.468 62.6629V62.7029ZM201.236 59.4311C201.478 59.4231 201.718 59.4876 201.922 59.6164C202.128 59.7452 202.29 59.9323 202.388 60.154C202.486 60.3756 202.516 60.6212 202.474 60.8598C202.431 61.0985 202.32 61.319 202.15 61.4932C201.982 61.6676 201.766 61.7873 201.528 61.8377C201.291 61.8882 201.045 61.8664 200.82 61.7754C200.596 61.6847 200.403 61.5291 200.267 61.3278C200.132 61.1272 200.059 60.8903 200.059 60.648C200.079 60.3444 200.215 60.06 200.436 59.8525C200.659 59.6451 200.951 59.5301 201.256 59.5308L201.236 59.4311ZM190.243 89.6353C190.709 89.6509 191.161 89.8033 191.54 90.0735C191.919 90.3438 192.212 90.7199 192.38 91.1548C192.546 91.5897 192.583 92.0642 192.483 92.5194C192.381 92.9746 192.15 93.3899 191.814 93.7142C191.48 94.0381 191.056 94.2565 190.599 94.3417C190.14 94.427 189.667 94.3758 189.237 94.1937C188.809 94.012 188.443 93.708 188.185 93.3196C187.927 92.9311 187.789 92.4755 187.789 92.0094C187.806 91.3706 188.072 90.7638 188.531 90.3198C188.99 89.8758 189.605 89.6299 190.243 89.6353ZM159.201 84.0094C160.059 84.0094 160.059 85.5456 159.201 85.5456C158.343 85.5456 158.323 84.0094 159.201 84.0094ZM78.0645 128.119C77.9702 128.136 77.8729 128.131 77.7801 128.106C77.6872 128.082 77.6009 128.037 77.5273 127.975C77.4536 127.913 77.3945 127.836 77.3539 127.749C77.3133 127.661 77.2922 127.566 77.2922 127.47C77.2922 127.374 77.3133 127.279 77.3539 127.192C77.3945 127.105 77.4536 127.028 77.5273 126.966C77.6009 126.904 77.6872 126.859 77.7801 126.834C77.8729 126.809 77.9702 126.805 78.0645 126.822C78.1595 126.805 78.2563 126.809 78.3496 126.834C78.4421 126.859 78.5284 126.904 78.602 126.966C78.6757 127.028 78.7348 127.105 78.7754 127.192C78.8164 127.279 78.8371 127.374 78.8371 127.47C78.8371 127.566 78.8164 127.661 78.7754 127.749C78.7348 127.836 78.6757 127.913 78.602 127.975C78.5284 128.037 78.4421 128.082 78.3496 128.106C78.2563 128.131 78.1595 128.136 78.0645 128.119ZM120.957 206.443C120.689 206.411 120.436 206.304 120.228 206.132C120.02 205.961 119.866 205.731 119.785 205.475C119.704 205.217 119.699 204.941 119.771 204.682C119.843 204.421 119.99 204.188 120.192 204.009C120.394 203.831 120.643 203.715 120.91 203.675C121.177 203.635 121.45 203.673 121.695 203.784C121.941 203.896 122.149 204.077 122.294 204.305C122.439 204.531 122.515 204.797 122.513 205.066C122.488 205.453 122.31 205.816 122.018 206.073C121.727 206.333 121.346 206.464 120.957 206.443ZM125.685 73.017C125.959 73.013 126.226 73.0903 126.456 73.239C126.684 73.3881 126.864 73.6013 126.971 73.8527C127.078 74.1037 127.109 74.3812 127.058 74.6496C127.007 74.9177 126.877 75.1651 126.686 75.3595C126.494 75.5539 126.249 75.687 125.981 75.7418C125.714 75.7966 125.436 75.7705 125.183 75.6671C124.931 75.5633 124.714 75.3871 124.562 75.1604C124.41 74.9333 124.329 74.6663 124.329 74.3935C124.329 74.0315 124.471 73.6844 124.725 73.4272C124.979 73.1693 125.324 73.0221 125.685 73.017ZM126.842 144.657C126.84 144.852 126.783 145.042 126.676 145.206C126.569 145.368 126.418 145.497 126.24 145.577C126.062 145.656 125.865 145.683 125.672 145.654C125.48 145.624 125.3 145.541 125.153 145.412C125.007 145.283 124.901 145.115 124.847 144.928C124.794 144.741 124.795 144.542 124.85 144.355C124.907 144.169 125.015 144.002 125.163 143.875C125.311 143.748 125.492 143.666 125.685 143.64C125.826 143.629 125.966 143.647 126.099 143.693C126.232 143.739 126.354 143.813 126.457 143.908C126.56 144.004 126.642 144.12 126.698 144.249C126.754 144.377 126.783 144.517 126.782 144.657H126.842ZM127.301 174.124C128.498 173.186 132.029 170.273 133.087 171.191C134.144 172.109 133.226 174.044 133.087 176.797C135.301 177.854 139.89 179.869 138.094 181.146C136.336 182.005 134.449 182.571 132.508 182.822C132.169 185.715 132.189 187.191 131.211 187.69C130.533 188.009 129.037 186.792 128.478 186.273C127.405 185.357 126.465 184.296 125.685 183.121C123.863 183.34 122.021 183.34 120.199 183.121C119.72 183.001 119.361 182.782 119.461 182.303C119.68 181.206 122.154 178.872 122.972 178.094C122.453 176.956 121.236 174.104 121.655 172.967C122.254 171.39 124.827 173.126 127.241 174.124H127.301ZM120.817 109.845C121.236 109.845 121.456 110.144 121.396 110.663C120.979 112.143 120.347 113.554 119.521 114.852C120.376 115.748 121.107 116.754 121.695 117.845C123.69 121.695 120.917 120.717 116.807 119.84C115.839 121.28 114.607 122.526 113.176 123.51C111.321 124.428 110.902 120.518 110.583 118.304C107.77 117.565 105.536 117.665 104.957 116.528C104.379 115.391 108.688 113.655 109.925 113.097C109.785 111.102 108.927 108.428 110.643 108.508C112.382 109.033 113.978 109.947 115.311 111.181C117.065 110.447 118.923 109.996 120.817 109.845ZM95.401 165.585C95.1787 165.621 94.9512 165.608 94.7343 165.547C94.517 165.487 94.3157 165.38 94.1442 165.234C93.9726 165.088 93.8348 164.906 93.7401 164.701C93.6458 164.497 93.5968 164.274 93.5968 164.049C93.5968 163.823 93.6458 163.601 93.7401 163.396C93.8348 163.192 93.9726 163.01 94.1442 162.864C94.3157 162.718 94.517 162.611 94.7343 162.55C94.9512 162.489 95.1787 162.476 95.401 162.513C95.6237 162.476 95.8515 162.489 96.0684 162.55C96.2854 162.611 96.4867 162.718 96.6582 162.864C96.8298 163.01 96.9676 163.192 97.0623 163.396C97.1566 163.601 97.2056 163.823 97.2056 164.049C97.2056 164.274 97.1566 164.497 97.0623 164.701C96.9676 164.906 96.8298 165.088 96.6582 165.234C96.4867 165.38 96.2854 165.487 96.0684 165.547C95.8515 165.608 95.6237 165.621 95.401 165.585ZM84.1492 105.316C84.0759 105.298 84.0107 105.255 83.9639 105.196C83.9174 105.136 83.892 105.062 83.892 104.987C83.892 104.911 83.9174 104.837 83.9639 104.778C84.0107 104.718 84.0759 104.676 84.1492 104.658C88.5183 104.358 93.4858 104.219 97.8549 104.219C94.2138 101.665 90.3159 99.4983 86.224 97.755C86.1377 97.7282 86.0644 97.6698 86.0187 97.5914C85.9734 97.5127 85.9596 97.4198 85.9795 97.3317C85.9999 97.2432 86.0528 97.1656 86.1279 97.1148C86.2026 97.0636 86.294 97.043 86.3836 97.0567C90.9188 97.105 95.3796 98.2117 99.411 100.289C96.7594 97.6462 93.9548 95.1611 91.012 92.8473C90.9493 92.7962 90.9065 92.724 90.892 92.6442C90.8774 92.5644 90.8923 92.482 90.9329 92.412C90.9743 92.342 91.0389 92.2891 91.1158 92.2629C91.1923 92.2365 91.2761 92.2386 91.3512 92.2687C96.3804 93.8901 101.101 96.3451 105.316 99.5305C109.478 102.58 113.087 106.318 115.989 110.583C115.989 110.762 115.81 110.902 115.69 110.722C112.79 106.485 109.187 102.774 105.037 99.75C101.34 97.0382 97.2673 94.8811 92.9472 93.346C94.4035 94.5231 100.309 99.331 101.087 101.107C101.246 101.426 100.847 101.725 100.508 101.526C98.3779 100.339 96.1145 99.4079 93.7651 98.7525C91.9348 98.2048 90.0468 97.87 88.1392 97.755C90.4335 98.8522 97.5556 102.343 99.012 104.418C99.0497 104.474 99.0704 104.539 99.0729 104.605C99.0754 104.672 99.0591 104.739 99.0258 104.797C98.9927 104.854 98.9441 104.902 98.885 104.934C98.8262 104.966 98.7599 104.981 98.6928 104.977C98.4733 104.977 92.9671 104.977 87.1218 105.176C94.0245 106.493 103.082 109.027 108.847 113.156C109.007 113.276 108.847 113.515 108.648 113.396C102.384 109.027 91.5507 106.314 84.1492 105.316ZM197.106 146.513C203.909 141.386 217.395 140.029 223.3 146.513C225.039 148.208 226.406 150.248 227.314 152.501C228.22 154.755 228.647 157.172 228.567 159.6C228.102 164 226.211 168.127 223.181 171.351C222.822 171.71 222.822 171.351 222.941 171.171C223.286 170.677 223.512 170.114 223.606 169.52C223.701 168.926 223.661 168.32 223.488 167.745C223.315 167.169 223.016 166.641 222.611 166.198C222.205 165.754 221.704 165.409 221.146 165.186C217.375 163.47 216.238 169.794 213.485 170.573C211.091 171.271 211.989 165.685 212.168 161.954C212.419 160.314 212.042 158.639 211.111 157.266C209.453 155.488 207.405 154.121 205.126 153.276C201.131 151.667 196.793 151.097 192.518 151.62C193.685 149.624 195.246 147.886 197.106 146.513ZM192.378 176.258C189.086 168.478 190.523 158.144 190.523 158.144C190.684 156.045 191.289 154.005 192.298 152.159C196.609 151.72 200.96 152.408 204.927 154.154C207.084 154.961 209.03 156.251 210.612 157.924C212.607 160.558 210.612 165.585 211.251 169.515C211.49 171.051 212.208 172.029 213.705 171.51C216.797 170.632 217.834 164.767 220.807 166.124C223.779 167.48 223.241 171.37 219.729 172.847C218.373 173.425 218.493 174.722 219.53 174.842C220.069 174.842 221.126 174.543 222.742 173.246C225.109 170.933 226.969 168.155 228.208 165.086C230.983 165.672 233.666 166.624 236.188 167.919C239.739 169.535 243.929 171.789 247.24 173.725C242.193 174.928 237.593 177.542 233.976 181.262C230.358 184.981 227.874 189.653 226.812 194.732C226.054 194.732 226.113 193.655 225.595 193.256C225.076 192.857 224.757 193.256 224.138 193.455C224.152 192.963 224.042 192.478 223.819 192.039C223.819 190.882 221.924 191.56 220.827 191.919C220.84 191.424 220.765 190.931 220.607 190.463C221.066 188.986 218.393 189.725 216.897 190.143C217.01 189.577 217.01 188.995 216.897 188.428C217.036 187.271 214.503 188.009 213.445 188.428C213.537 187.761 213.495 187.083 213.325 186.433C212.767 185.655 209.814 187.291 209.695 186.552C209.705 186.005 209.812 185.465 210.014 184.956C210.353 183.74 208.697 184.498 208.218 184.418C208.2 184.428 208.18 184.434 208.158 184.434C208.137 184.434 208.117 184.428 208.099 184.418V184.178C209.768 183.721 211.37 183.051 212.867 182.183C213.628 183.304 214.768 184.112 216.079 184.458C217.269 184.812 218.536 184.815 219.728 184.467C220.92 184.119 221.986 183.432 222.797 182.492C223.608 181.553 224.13 180.398 224.301 179.169C224.472 177.939 224.285 176.686 223.759 175.56C223.759 175.341 223.32 175.56 223.42 175.7C223.68 176.464 223.779 177.272 223.718 178.077C223.656 178.881 223.432 179.665 223.059 180.381C222.685 181.096 222.172 181.73 221.548 182.241C220.925 182.754 220.205 183.134 219.43 183.36L214.602 180.388C214.423 180.268 214.443 180.388 213.385 181.066C212.722 179.756 212.544 178.255 212.883 176.825C213.224 175.397 214.059 174.137 215.241 173.266C216.635 172.331 218.293 171.869 219.969 171.949C220.009 171.936 220.044 171.911 220.069 171.876C220.094 171.843 220.107 171.801 220.107 171.759C220.107 171.718 220.094 171.676 220.069 171.643C220.044 171.608 220.009 171.583 219.969 171.57C218.173 171.352 216.355 171.738 214.802 172.667C213.392 173.603 212.379 175.031 211.964 176.672C211.547 178.311 211.755 180.049 212.547 181.545C209.011 183.557 204.955 184.467 200.897 184.158C198.951 183.611 197.164 182.611 195.683 181.237C194.202 179.862 193.07 178.157 192.378 176.258ZM223.44 193.974C223.964 193.861 224.474 193.688 224.956 193.455C225.834 193.136 225.595 194.892 226.712 194.911C226.512 195.849 226.393 196.587 226.333 197.046C225.395 196.707 224.517 196.328 223.64 195.969C223.678 195.297 223.611 194.624 223.44 193.974ZM223.44 193.535C223.44 193.535 223.44 193.435 223.64 192.757C223.689 193.008 223.791 193.245 223.939 193.455L223.44 193.515V193.535ZM223.241 193.914C223.139 194.576 223.139 195.247 223.241 195.909C221.844 195.33 220.547 194.732 219.251 194.133C219.251 193.756 219.176 193.384 219.031 193.036C219.949 193.036 223.021 191.56 223.161 191.999C223.3 192.438 222.582 193.515 223.241 193.914ZM218.832 192.897C218.828 193.207 218.875 193.518 218.971 193.814C218.453 193.575 216.318 192.498 215.779 192.218C215.77 191.793 215.703 191.369 215.58 190.961C216.775 190.797 217.957 190.536 219.111 190.183C219.251 190.183 220.148 190.064 220.069 190.183C219.989 190.762 217.954 192.438 218.832 192.897ZM215.34 191.979C214.323 191.44 213.345 190.921 212.587 190.443C212.601 190.019 212.526 189.598 212.368 189.206C212.69 189.261 213.02 189.204 213.306 189.046C214.223 188.629 215.212 188.391 216.218 188.348C215.796 188.835 215.435 189.37 215.141 189.944C215.063 190.629 215.131 191.322 215.34 191.979ZM212.128 190.183L209.914 188.847C209.959 188.255 209.899 187.661 209.734 187.091C210.373 187.231 212.029 186.572 212.787 186.632C212.426 187.121 212.1 187.635 211.809 188.168C211.809 188.853 211.917 189.533 212.128 190.183ZM212.986 187.291C212.937 187.688 212.937 188.09 212.986 188.488C212.847 188.488 212.388 188.707 212.348 188.488C212.308 188.268 212.747 187.53 212.986 187.291ZM216.498 189.006C216.486 189.397 216.532 189.788 216.637 190.163C216.331 190.277 216.007 190.338 215.68 190.343C215.68 190.343 215.6 190.064 216.498 189.006ZM220.328 191.001C220.354 191.329 220.428 191.651 220.547 191.959C220.15 192.11 219.744 192.236 219.33 192.338C219.57 191.979 219.889 191.52 220.328 190.981V191.001ZM209.335 186.852C209.326 187.45 209.4 188.049 209.555 188.627C209.216 188.419 208.882 188.2 208.557 187.969L208.099 184.617C208.597 184.617 209.635 184.318 209.635 184.617C209.635 184.917 208.797 186.233 209.335 186.832V186.852ZM213.605 181.465C213.884 181.286 214.183 181.066 214.463 180.847L218.852 183.54C217.877 183.736 216.868 183.653 215.941 183.299C215.013 182.947 214.203 182.338 213.605 181.545V181.465ZM192.238 199.181C191.76 199.041 194.513 194.772 194.832 194.273C195.809 192.697 200.538 185.395 200.937 184.797C202.586 184.893 204.24 184.794 205.864 184.498C206.183 196.308 208.318 201.216 210.912 205.824C209.575 205.405 208.218 206.024 207.041 205.605C205.385 205.046 205.445 202.652 203.051 202.512C201.487 202.697 199.982 203.221 198.642 204.049C198.104 204.268 197.984 204.049 197.844 203.809C197.647 202.459 197.354 201.126 196.966 199.819C196.049 198.243 193.176 199.5 192.238 199.181ZM142.503 256.477L151.919 262.163C151.371 262.682 150.777 263.149 150.144 263.559C148.608 264.377 147.012 263.759 146.992 264.976C138.393 268.268 125.446 283.45 141.585 297.315C162.214 315.01 185.695 322.073 163.849 338.95C157.864 343.639 151.7 342.94 144.578 338.332C136.757 333.205 136.837 310.621 129.336 296.676C116.867 273.475 111.72 281.295 87.6205 263.859L142.503 256.477ZM170.214 340.267C170.187 340.267 170.162 340.262 170.137 340.252C170.114 340.242 170.091 340.227 170.072 340.209C170.054 340.191 170.039 340.167 170.029 340.144C170.019 340.119 170.014 340.094 170.014 340.068C170.014 340.041 170.019 340.016 170.029 339.991C170.039 339.966 170.054 339.945 170.072 339.926C170.091 339.908 170.114 339.893 170.137 339.883C170.162 339.873 170.187 339.868 170.214 339.868C170.253 339.881 170.288 339.906 170.313 339.941C170.338 339.974 170.351 340.016 170.351 340.058C170.351 340.099 170.338 340.141 170.313 340.174C170.288 340.209 170.253 340.234 170.214 340.247V340.267ZM159.999 346.252C159.916 346.267 159.83 346.266 159.747 346.244C159.665 346.222 159.589 346.182 159.523 346.129C159.458 346.074 159.405 346.006 159.369 345.93C159.333 345.853 159.314 345.768 159.314 345.683C159.314 345.599 159.333 345.514 159.369 345.438C159.405 345.361 159.458 345.293 159.523 345.238C159.589 345.183 159.665 345.145 159.747 345.123C159.83 345.102 159.916 345.1 159.999 345.115C160.161 345.115 160.315 345.18 160.43 345.293C160.544 345.408 160.608 345.562 160.608 345.723C160.608 345.885 160.544 346.039 160.43 346.154C160.315 346.267 160.161 346.332 159.999 346.332V346.252ZM134.304 344.856C134.508 344.264 134.812 343.71 135.201 343.22C134.304 341.983 133.765 341.364 135.321 341.444C135.777 341.478 136.227 341.572 136.658 341.724C138.254 339.968 138.533 340.088 138.473 342.482C138.872 342.681 139.81 343.16 139.989 343.559C140.169 343.958 139.151 344.197 138.433 344.417C138.433 344.896 138.254 346.412 137.795 346.412C137.336 346.412 137.077 345.674 136.478 344.916C135.66 345.135 134.204 345.654 134.304 344.935V344.856ZM134.044 319.439C133.961 319.454 133.875 319.453 133.792 319.431C133.71 319.409 133.634 319.369 133.568 319.316C133.503 319.261 133.45 319.193 133.414 319.117C133.378 319.04 133.359 318.956 133.359 318.871C133.359 318.786 133.378 318.701 133.414 318.625C133.45 318.548 133.503 318.48 133.568 318.425C133.634 318.37 133.71 318.332 133.792 318.311C133.875 318.289 133.961 318.287 134.044 318.302C134.206 318.302 134.36 318.367 134.475 318.48C134.589 318.595 134.653 318.749 134.653 318.911C134.653 319.072 134.589 319.226 134.475 319.341C134.36 319.454 134.206 319.519 134.044 319.519V319.439ZM109.945 290.512C109.861 290.527 109.775 290.525 109.693 290.504C109.61 290.482 109.534 290.442 109.468 290.389C109.403 290.334 109.35 290.266 109.314 290.189C109.278 290.113 109.259 290.028 109.259 289.943C109.259 289.859 109.278 289.774 109.314 289.697C109.35 289.621 109.403 289.552 109.468 289.498C109.534 289.443 109.61 289.404 109.693 289.383C109.775 289.361 109.861 289.36 109.945 289.375C110.028 289.36 110.114 289.361 110.197 289.383C110.279 289.404 110.356 289.443 110.421 289.498C110.486 289.552 110.539 289.621 110.575 289.697C110.612 289.774 110.63 289.859 110.63 289.943C110.63 290.028 110.612 290.113 110.575 290.189C110.539 290.266 110.486 290.334 110.421 290.389C110.356 290.442 110.279 290.482 110.197 290.504C110.114 290.525 110.028 290.527 109.945 290.512ZM101.965 278.063C101.881 278.078 101.795 278.076 101.713 278.055C101.63 278.033 101.554 277.993 101.488 277.94C101.423 277.885 101.37 277.817 101.334 277.741C101.298 277.664 101.279 277.579 101.279 277.494C101.279 277.41 101.298 277.325 101.334 277.248C101.37 277.172 101.423 277.104 101.488 277.049C101.554 276.994 101.63 276.956 101.713 276.934C101.795 276.913 101.881 276.909 101.965 276.926C102.047 276.906 102.133 276.906 102.216 276.923C102.299 276.941 102.377 276.976 102.444 277.026C102.512 277.077 102.568 277.142 102.608 277.217C102.648 277.292 102.671 277.375 102.675 277.458C102.68 277.543 102.665 277.627 102.633 277.705C102.602 277.785 102.553 277.855 102.491 277.913C102.429 277.97 102.355 278.013 102.275 278.04C102.194 278.066 102.109 278.073 102.024 278.063H101.965ZM78.5632 274.073C78.647 274.058 78.733 274.06 78.8153 274.081C78.8977 274.103 78.9742 274.141 79.0398 274.196C79.1051 274.251 79.1577 274.319 79.194 274.396C79.2303 274.472 79.2491 274.557 79.2491 274.641C79.2491 274.726 79.2303 274.811 79.194 274.888C79.1577 274.964 79.1051 275.032 79.0398 275.087C78.9742 275.14 78.8977 275.18 78.8153 275.202C78.733 275.223 78.647 275.225 78.5632 275.21C78.4794 275.22 78.3942 275.213 78.3137 275.187C78.2328 275.16 78.1591 275.117 78.0971 275.06C78.0351 275.002 77.9865 274.932 77.9546 274.853C77.923 274.775 77.9089 274.69 77.9128 274.605C77.9176 274.522 77.9404 274.439 77.9803 274.364C78.0202 274.289 78.0761 274.224 78.1435 274.173C78.2114 274.123 78.2894 274.088 78.3724 274.07C78.4551 274.053 78.5411 274.053 78.6231 274.073H78.5632ZM65.4162 234.173C66.2414 233.508 67.1816 233.001 68.1892 232.677C68.1892 230.083 67.9897 228.687 70.0446 230.223C70.6449 230.712 71.1814 231.275 71.6406 231.899C72.567 231.618 73.5264 231.465 74.4934 231.44C74.7727 231.44 74.9523 231.6 74.9323 231.879C74.5917 232.908 74.0788 233.872 73.4161 234.732C73.9918 235.626 74.3472 236.645 74.4535 237.704C74.274 238.682 72.7378 237.824 71.5009 237.465C70.9623 238.103 69.3064 240.218 68.688 239.739C68.0695 239.26 68.4087 238.023 68.3289 236.348C67.1119 235.909 64.6381 235.111 65.476 234.173H65.4162ZM58.0746 251.769C58.1584 251.752 58.2443 251.756 58.3267 251.777C58.409 251.799 58.4855 251.837 58.5512 251.892C58.6165 251.947 58.6691 252.015 58.7054 252.091C58.7416 252.168 58.7605 252.253 58.7605 252.337C58.7605 252.422 58.7416 252.507 58.7054 252.584C58.6691 252.66 58.6165 252.728 58.5512 252.783C58.4855 252.836 58.409 252.876 58.3267 252.898C58.2443 252.92 58.1584 252.921 58.0746 252.906C57.9908 252.916 57.9055 252.909 57.825 252.883C57.7441 252.856 57.6705 252.813 57.6085 252.756C57.5464 252.698 57.4978 252.628 57.4659 252.548C57.4344 252.471 57.4202 252.386 57.4242 252.301C57.4289 252.218 57.4518 252.135 57.4917 252.06C57.5316 251.985 57.5874 251.92 57.6549 251.869C57.7227 251.819 57.8007 251.784 57.8838 251.766C57.9665 251.749 58.0524 251.749 58.1344 251.769H58.0746ZM250.492 318.023C243.191 327.539 134.164 380.446 123.55 385.572C98.6329 355.988 59.8501 302.043 37.1071 270.562L57.6556 267.869C70.4635 288.078 90.0943 283.39 100.628 289.814C112.478 297.055 118.583 302.522 122.174 316.567C127.062 335.659 120.897 343.898 135.182 349.983C148.867 355.788 176.039 353.454 187.051 334.561C198.064 315.669 176.498 307.41 157.126 298.651C137.755 289.893 141.166 277.764 143.8 274.332C145.811 271.722 148.143 269.375 150.742 267.35C151.726 267.353 152.692 267.099 153.546 266.612C154.4 266.126 155.112 265.425 155.61 264.577C157.944 265.834 246.482 315.729 250.552 318.023H250.492ZM176.677 341.544C176.704 341.544 176.729 341.549 176.754 341.559C176.779 341.569 176.8 341.584 176.819 341.602C176.837 341.621 176.852 341.642 176.862 341.667C176.872 341.692 176.877 341.717 176.877 341.743C176.877 341.77 176.872 341.795 176.862 341.82C176.852 341.843 176.837 341.866 176.819 341.885C176.8 341.903 176.779 341.918 176.754 341.928C176.729 341.938 176.704 341.943 176.677 341.943C176.651 341.941 176.626 341.935 176.603 341.924C176.578 341.913 176.558 341.897 176.539 341.878C176.521 341.858 176.508 341.835 176.5 341.81C176.491 341.785 176.486 341.76 176.488 341.733C176.489 341.707 176.496 341.682 176.508 341.657C176.518 341.634 176.534 341.612 176.554 341.595C176.572 341.577 176.596 341.564 176.621 341.556C176.646 341.547 176.671 341.542 176.697 341.544H176.677ZM181.785 321.335C181.545 321.494 181.186 321.335 180.627 321.055C179.75 322.033 179.331 322.312 179.43 320.656C178.573 320.377 178.094 320.237 178.892 319.779C179.131 319.649 179.385 319.547 179.65 319.479C179.869 318.103 180.049 318.083 180.807 319.24C181.174 319.15 181.557 319.15 181.924 319.24C182.203 319.399 181.745 319.779 181.425 320.158C181.545 320.437 182.024 321.195 181.804 321.335H181.785ZM152.338 266.153C151.569 266.407 150.743 266.439 149.956 266.244C149.17 266.05 148.453 265.639 147.889 265.056H148.069C151.84 264.477 151.281 262.921 153.236 261.963C153.416 262.163 153.236 262.103 156.408 262.342C155.607 264.1 154.145 265.47 152.338 266.153ZM156.947 258.173C156.658 258.71 156.547 259.325 156.628 259.929C156.628 260.068 156.488 260.707 156.408 261.305L154.254 261.126C154.254 261.026 155.67 257.654 155.77 257.335H157.126L156.947 258.173ZM156.548 252.567C155.172 255.141 154.553 259.929 153.336 259.091C152.911 258.65 152.669 258.067 152.658 257.455C152.594 256.304 152.757 255.152 153.137 254.063C153.462 252.921 154.034 251.864 154.814 250.968C155.593 250.071 156.56 249.356 157.645 248.876C156.588 252.946 156.887 252.028 156.548 252.647V252.567ZM157.984 255.579C158.303 254.642 158.743 253.265 159.361 251.47C159.62 251.33 159.68 251.47 160.019 252.308C160.558 253.704 157.406 257.255 157.406 257.255C157.605 256.677 157.825 256.118 157.984 255.659V255.579ZM214.323 221.006C207.281 231.6 202.054 236.348 193.834 240.956C185.823 245.219 177.302 248.449 168.478 250.572C164.927 251.669 161.955 259.549 158.064 259.909C157.625 259.909 157.326 259.909 157.685 258.911C158.583 256.417 161.835 254.343 160.897 251.968C160.778 251.611 160.618 251.27 160.418 250.951C160.257 250.69 160.01 250.492 159.72 250.392C159.84 249.993 160.239 248.836 160.777 247.2C161.236 246.881 161.555 246.781 163.65 245.545C170.672 241.395 173.425 233.954 179.331 226.991C182.449 223.176 186.09 219.817 190.144 217.016C190.443 216.837 189.944 217.136 192.258 209.834C193.595 205.625 195.151 201.176 195.61 199.859C195.696 199.871 195.78 199.902 195.851 199.951C195.924 199.999 195.986 200.064 196.029 200.138C196.548 201.116 196.448 202.991 196.887 204.128C197.924 206.642 200.498 203.271 202.872 203.33C204.867 203.33 204.867 205.625 206.862 206.203C208.358 206.642 209.854 205.724 211.251 206.383C213.081 209.493 215.234 212.403 217.675 215.061C216.768 217.179 215.645 219.199 214.323 221.086V221.006ZM226.572 221.645C220.534 217.327 215.487 211.771 211.769 205.345C209.316 201.076 207.041 196.308 206.263 184.338C206.734 184.256 207.201 184.148 207.66 184.019L208.079 188.009C210.276 189.673 212.597 191.166 215.021 192.478C215.021 192.478 213.325 202.074 221.006 214.423C224.697 220.487 226.572 221.724 226.572 221.724V221.645ZM263.659 247.38C264.018 251.729 260.068 275.47 259.53 278.701C259.498 278.713 259.47 278.731 259.445 278.756C259.422 278.779 259.402 278.81 259.39 278.841C259.649 277.864 255.161 292.966 254.821 297.694C254.821 298.073 254.821 297.893 258.233 300.846C259.39 301.863 263.36 305.235 263.56 306.412C263.651 306.718 263.651 307.044 263.56 307.35C261.777 305.461 259.651 303.932 257.295 302.841C257.254 302.814 257.202 302.806 257.154 302.818C257.104 302.828 257.062 302.858 257.036 302.901C257.009 302.942 257.001 302.994 257.013 303.042C257.024 303.092 257.054 303.134 257.096 303.16L258.712 304.477C260.328 305.574 261.814 306.852 263.141 308.287C262.941 308.786 262.502 308.826 261.984 308.686C261.984 307.649 257.435 305.135 255.999 304.277C255.779 304.158 255.58 304.477 255.799 304.597C257.802 305.754 259.669 307.132 261.365 308.706C260.727 310.143 258.792 308.088 251.749 305.195C250.481 304.625 249.138 304.234 247.759 304.038C247.666 304.031 247.573 304.055 247.495 304.106C247.415 304.156 247.354 304.229 247.32 304.317C247.141 304.836 247.699 304.816 249.495 306.632C249.877 306.966 250.206 307.356 250.472 307.789C249.277 307.93 248.07 307.647 247.061 306.991C246.261 306.455 245.631 305.705 245.242 304.826C244.853 303.947 244.724 302.974 244.866 302.023C245.206 300.028 247.181 299.011 246.363 297.235C245.545 295.46 243.869 283.928 243.63 282.273C241.415 267.29 242.253 266.971 241.834 266.851C241.834 246.063 242.492 245.983 242.333 244.906C242.333 244.687 237.864 214.004 237.824 213.764C239.141 213.764 240.078 215.221 240.817 216.418C241.894 218.133 242.812 219.251 244.966 218.592C247.121 217.934 248.956 216.118 250.951 215.4C252.946 214.682 254.004 215.4 256.178 216.098C257.016 216.499 257.962 216.612 258.871 216.421C259.779 216.23 260.6 215.744 261.205 215.041C264.677 212.148 263.041 211.43 270.143 214.223C268.767 219.59 265.674 234.752 265.614 234.991C264.354 239.001 263.696 243.176 263.659 247.38ZM237.585 212.787C236.02 213.352 234.494 214.017 233.016 214.782C232.677 214.782 232.537 214.782 232.438 214.383C231.819 211.53 239.081 177.755 257.176 176.478C265.435 175.919 271.141 190.742 273.634 198.642C275.275 203.663 276.549 208.798 277.445 214.004C277.804 217.615 267.27 210.852 264.238 211.55C263.041 211.829 262.502 212.847 260.787 214.283C259.071 215.719 258.193 215.719 256.677 215.181C254.886 214.2 252.787 213.942 250.812 214.462C248.697 215.221 246.941 216.996 244.827 217.655C243.031 218.233 242.472 216.996 241.455 215.4C240.438 213.804 239.4 212.448 237.585 212.707V212.787ZM267.31 231.619C268.148 228.308 269.624 221.445 270.722 214.263C272.557 214.981 276.567 216.737 277.904 215.46C278.103 215.247 278.246 214.988 278.323 214.707C278.399 214.424 278.406 214.128 278.343 213.844C277.619 209.633 276.62 205.475 275.35 201.395C272.677 192.518 266.432 175.46 257.136 176.039C238.263 177.355 230.901 211.41 231.54 214.482C231.558 214.68 231.621 214.87 231.726 215.039C231.829 215.209 231.97 215.352 232.138 215.458C232.306 215.563 232.496 215.629 232.694 215.651C232.89 215.673 233.089 215.648 233.275 215.58C234.413 215.3 236.029 214.064 237.505 213.724C237.724 217.355 238.143 222.183 239.021 228.427C235.656 227.104 232.406 225.501 229.305 223.639C223.046 217.56 218.634 209.836 216.577 201.355C215.876 198.58 215.475 195.738 215.38 192.877C219.003 194.9 222.764 196.665 226.632 198.163C226.697 198.188 226.765 198.198 226.835 198.192C226.903 198.185 226.969 198.163 227.028 198.125C227.086 198.089 227.134 198.039 227.171 197.979C227.206 197.921 227.226 197.852 227.231 197.784C227.96 192.148 230.349 186.857 234.093 182.582C237.909 178.354 242.978 175.46 248.557 174.323C248.647 174.308 248.73 174.265 248.795 174.202C248.86 174.137 248.903 174.054 248.918 173.964C248.934 173.874 248.921 173.781 248.881 173.7C248.842 173.617 248.777 173.548 248.697 173.505C244.745 171.224 240.669 169.166 236.487 167.341C233.897 166.137 231.181 165.227 228.388 164.627C228.928 163.139 229.291 161.592 229.465 160.019C233.455 158.323 253.585 160.817 267.151 159.4C269.205 159.273 271.244 158.946 273.235 158.423C285.465 158.084 303.879 173.126 307.27 179.909C310.662 186.692 310.123 195.171 302.602 205.724C295.52 215.6 270.063 230.004 267.33 231.54L267.31 231.619ZM321.594 271.899C324.367 263.16 319.978 254.981 318.402 252.447L331.609 252.088C333.31 253.094 334.607 254.66 335.28 256.517C336.362 259.298 336.937 262.251 336.976 265.235C333.025 267.011 325.704 270.362 321.594 271.819V271.899ZM337.833 264.697C337.724 261.774 337.047 258.901 335.838 256.238C335.039 254.359 333.634 252.8 331.848 251.809C332.645 250.954 333.609 250.274 334.681 249.814C334.681 250.452 333.903 251.809 334.841 251.949C335.779 252.088 335.878 251.17 336.457 250.871C336.696 250.752 337.175 250.732 336.976 251.25C336.776 251.769 336.337 252.547 336.796 253.245C337.133 253.642 337.599 253.91 338.113 254.003C338.232 254.003 337.434 254.562 337.215 255.2C337.163 255.352 337.172 255.516 337.238 255.661C337.305 255.807 337.426 255.92 337.574 255.978C338.252 256.238 339.429 255.559 340.168 256.298C340.467 256.617 340.307 256.916 339.928 257.136C339.01 257.714 338.891 258.392 339.749 259.131C340.179 259.43 340.563 259.794 340.886 260.208C340.259 260.203 339.649 260.407 339.15 260.786C339.055 260.86 338.979 260.953 338.926 261.059C338.872 261.167 338.844 261.285 338.844 261.405C338.844 261.525 338.872 261.642 338.926 261.749C338.979 261.857 339.055 261.95 339.15 262.023C339.589 262.402 340.666 262.801 340.906 263.14C339.956 263.774 338.922 264.271 337.833 264.617V264.697ZM362.033 250.891C361.215 254.223 343.26 262.263 341.983 262.861C341.764 262.083 340.507 261.704 339.988 261.325C340.547 261.026 341.664 261.145 341.883 260.447C342.103 259.749 340.547 258.592 340.188 258.133C340.527 257.814 341.744 257.235 341.205 256.138C340.96 255.726 340.592 255.401 340.149 255.21C339.709 255.021 339.22 254.976 338.751 255.081H338.452C338.891 254.522 339.609 253.804 338.951 253.325C338.292 252.846 337.853 253.325 337.514 252.667C339.409 252.906 340.966 253.165 342.163 253.425C342.202 253.43 342.244 253.428 342.282 253.416C342.32 253.405 342.357 253.385 342.387 253.358C342.417 253.332 342.442 253.299 342.457 253.262C342.473 253.225 342.482 253.185 342.482 253.146C342.482 253.944 341.923 248.537 344.756 247.899C346.021 247.766 347.3 247.945 348.478 248.421C349.659 248.898 350.703 249.658 351.519 250.632C351.566 250.69 351.629 250.735 351.699 250.758C351.77 250.783 351.845 250.788 351.918 250.771C352.656 250.632 358.781 249.375 361.235 250.273C361.514 250.253 362.093 250.532 362.033 250.811V250.891Z" fill="#141414"/>
</svg>
