<svg width="40" height="41" viewBox="0 0 40 41" fill="none" xmlns="http://www.w3.org/2000/svg">
<rect y="0.5" width="40" height="40" rx="20" fill="#FF7477" fill-opacity="0.08"/>
<path fill-rule="evenodd" clip-rule="evenodd" d="M24.3506 12.7C23.4062 12.7 22.6406 13.4656 22.6406 14.41C22.6406 14.7068 22.7163 14.986 22.8493 15.2293C22.858 15.2425 22.8663 15.256 22.8744 15.2698C22.8824 15.2836 22.8901 15.2975 22.8973 15.3116C23.199 15.7969 23.7371 16.12 24.3506 16.12C25.295 16.12 26.0606 15.3544 26.0606 14.41C26.0606 13.4656 25.295 12.7 24.3506 12.7ZM21.873 16.8963C22.5078 17.5289 23.3836 17.92 24.3506 17.92C26.2891 17.92 27.8606 16.3485 27.8606 14.41C27.8606 12.4715 26.2891 10.9 24.3506 10.9C22.4121 10.9 20.8406 12.4715 20.8406 14.41C20.8406 14.7326 20.8841 15.045 20.9656 15.3417L16.3874 18.0134C15.7526 17.3811 14.8772 16.9903 13.9104 16.9903C11.9719 16.9903 10.4004 18.5617 10.4004 20.5003C10.4004 22.4388 11.9719 24.0103 13.9104 24.0103C14.8776 24.0103 15.7534 23.6191 16.3883 22.9862L20.9669 25.6543C20.8846 25.9523 20.8406 26.2663 20.8406 26.5905C20.8406 28.529 22.4121 30.1005 24.3506 30.1005C26.2891 30.1005 27.8606 28.529 27.8606 26.5905C27.8606 24.652 26.2891 23.0805 24.3506 23.0805C23.3852 23.0805 22.5109 23.4702 21.8763 24.1009L17.2955 21.4316C17.3769 21.135 17.4204 20.8227 17.4204 20.5003C17.4204 20.1774 17.3768 19.8647 17.2952 19.5678L21.873 16.8963ZM15.3644 19.5999C15.3714 19.6133 15.3787 19.6265 15.3864 19.6397C15.3941 19.653 15.4022 19.6661 15.4106 19.6789C15.5443 19.9227 15.6204 20.2026 15.6204 20.5003C15.6204 20.7961 15.5453 21.0744 15.4131 21.3171C15.4037 21.3312 15.3947 21.3457 15.3861 21.3606C15.3777 21.375 15.3697 21.3896 15.3622 21.4043C15.0602 21.8882 14.5229 22.2103 13.9104 22.2103C12.966 22.2103 12.2004 21.4447 12.2004 20.5003C12.2004 19.5559 12.966 18.7903 13.9104 18.7903C14.5244 18.7903 15.0629 19.1139 15.3644 19.5999ZM22.6406 26.5905C22.6406 26.3124 22.707 26.0499 22.8247 25.8178C22.8457 25.7899 22.8653 25.7604 22.8834 25.7294C22.9006 25.6999 22.9159 25.6697 22.9295 25.6392C23.2363 25.1816 23.7583 24.8805 24.3506 24.8805C25.295 24.8805 26.0606 25.6461 26.0606 26.5905C26.0606 27.5349 25.295 28.3005 24.3506 28.3005C23.4062 28.3005 22.6406 27.5349 22.6406 26.5905Z" fill="#FF7477"/>
</svg>
