<svg width="92" height="39" viewBox="0 0 92 39" fill="none" xmlns="http://www.w3.org/2000/svg">
<path fill-rule="evenodd" clip-rule="evenodd" d="M91.3841 20.0509C91.3841 13.4927 88.2577 8.31787 82.282 8.31787C76.2812 8.31787 72.6504 13.4927 72.6504 19.9997C72.6504 27.7107 76.9367 31.6046 83.0889 31.6046C86.0893 31.6046 88.3585 30.9129 90.073 29.9394V24.8158C88.3585 25.6869 86.3918 26.2248 83.8957 26.2248C81.45 26.2248 79.2816 25.3538 79.0042 22.3309H91.3337C91.3337 21.9979 91.3841 20.6657 91.3841 20.0509ZM78.9286 17.6172C78.9286 14.7224 80.6683 13.5183 82.2568 13.5183C83.7948 13.5183 85.4337 14.7224 85.4337 17.6172H78.9286Z" fill="#635BFF"/>
<path fill-rule="evenodd" clip-rule="evenodd" d="M62.9182 8.31787C60.4473 8.31787 58.8588 9.4963 57.9763 10.3161L57.6486 8.72776H52.1016V38.5983L58.405 37.2406L58.4302 29.9907C59.3379 30.6567 60.6742 31.6046 62.893 31.6046C67.4063 31.6046 71.5161 27.9156 71.5161 19.7947C71.4909 12.3655 67.3306 8.31787 62.9182 8.31787ZM61.4054 25.9687C59.9178 25.9687 59.0353 25.4307 58.4302 24.7646L58.405 15.2603C59.0605 14.5174 59.9682 14.0051 61.4054 14.0051C63.6999 14.0051 65.2883 16.6181 65.2883 19.9741C65.2883 23.4069 63.7251 25.9687 61.4054 25.9687Z" fill="#635BFF"/>
<path fill-rule="evenodd" clip-rule="evenodd" d="M43.4277 6.80648L49.7564 5.42311V0.222656L43.4277 1.58041V6.80648Z" fill="#635BFF"/>
<path d="M49.7564 8.75342H43.4277V31.1691H49.7564V8.75342Z" fill="#635BFF"/>
<path fill-rule="evenodd" clip-rule="evenodd" d="M36.6464 10.6493L36.243 8.75357H30.7969V31.1693H37.1003V15.9778C38.5879 14.0053 41.1093 14.3639 41.8909 14.6457V8.75357C41.0841 8.44616 38.1341 7.88256 36.6464 10.6493Z" fill="#635BFF"/>
<path fill-rule="evenodd" clip-rule="evenodd" d="M24.0387 3.19434L17.8865 4.52647L17.8613 25.0465C17.8613 28.8379 20.66 31.6303 24.3917 31.6303C26.4592 31.6303 27.972 31.246 28.8041 30.7849V25.5844C27.9972 25.9175 24.0135 27.0959 24.0135 23.3044V14.2101H28.8041V8.75344H24.0135L24.0387 3.19434Z" fill="#635BFF"/>
<path fill-rule="evenodd" clip-rule="evenodd" d="M6.99429 15.2603C6.99429 14.2612 7.80113 13.877 9.13746 13.877C11.0537 13.877 13.4742 14.4662 15.3904 15.5165V9.4963C13.2977 8.6509 11.2302 8.31787 9.13746 8.31787C4.01908 8.31787 0.615234 11.0334 0.615234 15.5678C0.615234 22.6383 10.1964 21.5111 10.1964 24.5597C10.1964 25.7381 9.18788 26.1224 7.77592 26.1224C5.68318 26.1224 3.01053 25.2514 0.892584 24.0729V30.17C3.23746 31.1947 5.60754 31.6302 7.77592 31.6302C13.0204 31.6302 16.6259 28.9916 16.6259 24.406C16.6007 16.7718 6.99429 18.1296 6.99429 15.2603Z" fill="#635BFF"/>
</svg>
