<svg width="62" height="62" viewBox="0 0 62 62" fill="none" xmlns="http://www.w3.org/2000/svg">
<path d="M62 31C62 48.1208 48.1208 62 31 62C13.8792 62 0 48.1208 0 31C0 13.8792 13.8792 0 31 0C48.1208 0 62 13.8792 62 31ZM10.1711 31C10.1711 42.5035 19.4965 51.8289 31 51.8289C42.5035 51.8289 51.8289 42.5035 51.8289 31C51.8289 19.4965 42.5035 10.1711 31 10.1711C19.4965 10.1711 10.1711 19.4965 10.1711 31Z" fill="#F6F8FA"/>
<path d="M31 5.08555C31 2.27688 33.2919 -0.0424916 36.0628 0.416214C38.6218 0.839827 41.1241 1.58403 43.5096 2.63613C47.4511 4.37446 50.9869 6.91516 53.8917 10.0962C56.7965 13.2772 59.0064 17.0287 60.3805 21.1114C61.7546 25.1941 62.2628 29.5184 61.8725 33.8084C61.4823 38.0984 60.2022 42.2601 58.1139 46.0278C56.0257 49.7955 53.1751 53.0867 49.744 55.6913C46.3129 58.296 42.3766 60.157 38.1862 61.1556C35.65 61.7599 33.0545 62.0404 30.4611 61.9953C27.6528 61.9465 25.8171 59.2516 26.3239 56.4891V56.4891C26.8307 53.7265 29.5024 51.964 32.3056 51.7879C33.4897 51.7136 34.6683 51.538 35.8284 51.2615C38.644 50.5906 41.2887 49.3402 43.5941 47.5901C45.8994 45.84 47.8148 43.6287 49.2179 41.0972C50.621 38.5656 51.481 35.7694 51.7432 32.887C52.0055 30.0045 51.664 27.099 50.7408 24.3559C49.8175 21.6127 48.3327 19.0921 46.3809 16.9547C44.4292 14.8174 42.0535 13.1103 39.4052 11.9423C38.314 11.4611 37.1864 11.0757 36.0352 10.7889C33.3098 10.1099 31 7.89422 31 5.08555V5.08555Z" fill="#529AF7"/>
</svg>
