<svg width="17" height="16" viewBox="0 0 17 16" fill="none" xmlns="http://www.w3.org/2000/svg">
<path fill-rule="evenodd" clip-rule="evenodd" d="M8.78498 0.0560382C8.69712 0.0199188 8.60088 0 8.5 0C8.30129 0 8.12063 0.0772793 7.98643 0.203423C7.98011 0.20936 7.9739 0.215405 7.96779 0.221556L3.9419 4.24745C3.64901 4.54034 3.64901 5.01521 3.9419 5.30811C4.23479 5.601 4.70967 5.601 5.00256 5.30811L7.75 2.56067V10.4167C7.75 10.8309 8.08579 11.1667 8.5 11.1667C8.91421 11.1667 9.25 10.8309 9.25 10.4167V2.56065L11.9975 5.30811C12.2903 5.601 12.7652 5.601 13.0581 5.30811C13.351 5.01521 13.351 4.54034 13.0581 4.24745L9.03034 0.21967C8.95786 0.14719 8.87423 0.0926461 8.78498 0.0560382ZM1.25 9.66666C1.66421 9.66666 2 10.0024 2 10.4167V13.6389C2 13.8673 2.09072 14.0863 2.25221 14.2478C2.4137 14.4093 2.63273 14.5 2.86111 14.5H14.1389C14.3673 14.5 14.5863 14.4093 14.7478 14.2478C14.9093 14.0863 15 13.8673 15 13.6389V10.4167C15 10.0024 15.3358 9.66666 15.75 9.66666C16.1642 9.66666 16.5 10.0024 16.5 10.4167V13.6389C16.5 14.2651 16.2512 14.8656 15.8084 15.3084C15.3657 15.7512 14.7651 16 14.1389 16H2.86111C2.23491 16 1.63435 15.7512 1.19155 15.3084C0.748759 14.8656 0.5 14.2651 0.5 13.6389V10.4167C0.5 10.0024 0.835786 9.66666 1.25 9.66666Z" fill="#0B1F22"/>
</svg>
