<svg width="42" height="41" viewBox="0 0 42 41" fill="none" xmlns="http://www.w3.org/2000/svg">
<path fill-rule="evenodd" clip-rule="evenodd" d="M21.285 2.05604C21.1971 2.01992 21.1009 2 21 2C20.8013 2 20.6206 2.07728 20.4864 2.20342C20.4801 2.20936 20.4739 2.21541 20.4678 2.22156L16.4419 6.24745C16.149 6.54034 16.149 7.01521 16.4419 7.30811C16.7348 7.601 17.2097 7.601 17.5026 7.30811L20.25 4.56067V12.4167C20.25 12.8309 20.5858 13.1667 21 13.1667C21.4142 13.1667 21.75 12.8309 21.75 12.4167V4.56065L24.4975 7.30811C24.7903 7.601 25.2652 7.601 25.5581 7.30811C25.851 7.01521 25.851 6.54034 25.5581 6.24745L21.5303 2.21967C21.4579 2.14719 21.3742 2.09265 21.285 2.05604ZM13.75 11.6667C14.1642 11.6667 14.5 12.0024 14.5 12.4167V15.6389C14.5 15.8673 14.5907 16.0863 14.7522 16.2478C14.9137 16.4093 15.1327 16.5 15.3611 16.5H26.6389C26.8673 16.5 27.0863 16.4093 27.2478 16.2478C27.4093 16.0863 27.5 15.8673 27.5 15.6389V12.4167C27.5 12.0024 27.8358 11.6667 28.25 11.6667C28.6642 11.6667 29 12.0024 29 12.4167V15.6389C29 16.2651 28.7512 16.8656 28.3084 17.3084C27.8657 17.7512 27.2651 18 26.6389 18H15.3611C14.7349 18 14.1343 17.7512 13.6916 17.3084C13.2488 16.8656 13 16.2651 13 15.6389V12.4167C13 12.0024 13.3358 11.6667 13.75 11.6667Z" fill="white"/>
<path d="M1.23759 27.48H2.97759V32.4C2.97759 33.096 3.12159 33.628 3.40959 33.996C3.70559 34.356 4.11759 34.536 4.64559 34.536C5.17359 34.536 5.57759 34.352 5.85759 33.984C6.14559 33.616 6.28959 33.088 6.28959 32.4V27.48H8.02959V32.376C8.02959 33.592 7.73359 34.528 7.14159 35.184C6.54959 35.832 5.70559 36.156 4.60959 36.156C3.51359 36.156 2.67759 35.836 2.10159 35.196C1.52559 34.548 1.23759 33.608 1.23759 32.376V27.48ZM9.34191 30.24L10.7099 30.168L10.9259 31.044L12.5819 30.084C12.6939 30.084 12.8419 30.112 13.0259 30.168C13.2099 30.216 13.4299 30.312 13.6859 30.456C13.9419 30.6 14.1739 30.78 14.3819 30.996C14.5979 31.204 14.7819 31.496 14.9339 31.872C15.0859 32.24 15.1619 32.656 15.1619 33.12C15.1619 33.688 15.0619 34.184 14.8619 34.608C14.6619 35.024 14.4019 35.34 14.0819 35.556C13.7699 35.764 13.4579 35.912 13.1459 36C12.8419 36.096 12.5379 36.144 12.2339 36.144C11.9779 36.144 11.5979 36.1 11.0939 36.012V39H9.48591V31.824L9.34191 30.24ZM11.0939 32.124V34.728C11.6539 34.84 11.9619 34.896 12.0179 34.896C12.4019 34.896 12.7419 34.756 13.0379 34.476C13.3339 34.196 13.4819 33.78 13.4819 33.228C13.4819 32.676 13.3619 32.256 13.1219 31.968C12.8899 31.672 12.6419 31.504 12.3779 31.464L11.0939 32.124ZM16.369 36V27.48H18.097V34.344H21.889V36H16.369ZM23.1381 30.96C23.7061 30.376 24.4221 30.084 25.2861 30.084C26.1501 30.084 26.8661 30.376 27.4341 30.96C28.0101 31.536 28.2981 32.256 28.2981 33.12C28.2981 33.984 28.0101 34.708 27.4341 35.292C26.8661 35.868 26.1501 36.156 25.2861 36.156C24.4221 36.156 23.7061 35.868 23.1381 35.292C22.5701 34.708 22.2861 33.984 22.2861 33.12C22.2861 32.256 22.5701 31.536 23.1381 30.96ZM26.2461 31.896C25.9901 31.576 25.6701 31.416 25.2861 31.416C24.9021 31.416 24.5821 31.576 24.3261 31.896C24.0781 32.216 23.9541 32.616 23.9541 33.096C23.9541 33.576 24.0781 33.98 24.3261 34.308C24.5821 34.628 24.9021 34.788 25.2861 34.788C25.6701 34.788 25.9901 34.628 26.2461 34.308C26.5021 33.98 26.6301 33.576 26.6301 33.096C26.6301 32.616 26.5021 32.216 26.2461 31.896ZM29.9963 31.812L29.5043 30.732C29.5523 30.676 29.6523 30.604 29.8043 30.516C29.9643 30.428 30.2123 30.336 30.5483 30.24C30.8843 30.136 31.2363 30.084 31.6043 30.084C32.4123 30.084 33.0283 30.308 33.4523 30.756C33.8843 31.196 34.1003 31.832 34.1003 32.664V34.536L34.2443 36L32.8643 36.072L32.6483 35.376L31.2923 36.156C30.6443 36.156 30.0803 36 29.6003 35.688C29.1283 35.376 28.8923 34.94 28.8923 34.38C28.8923 33.756 29.2083 33.292 29.8403 32.988C30.4723 32.684 31.3563 32.532 32.4923 32.532C32.4923 32.1 32.3843 31.796 32.1683 31.62C31.9603 31.436 31.7003 31.344 31.3883 31.344C31.1803 31.344 30.9603 31.384 30.7283 31.464C30.5043 31.536 30.3323 31.608 30.2123 31.68C30.0923 31.744 30.0203 31.788 29.9963 31.812ZM32.4923 34.38V33.42C31.9243 33.428 31.4603 33.504 31.1003 33.648C30.7483 33.784 30.5723 33.996 30.5723 34.284C30.5723 34.476 30.6483 34.632 30.8003 34.752C30.9603 34.864 31.1323 34.928 31.3163 34.944L32.4923 34.38ZM39.2215 27.156H40.8295V34.392L40.9735 36L39.6055 36.072L39.3775 35.196L37.7335 36.156C37.6215 36.156 37.4735 36.128 37.2895 36.072C37.1055 36.024 36.8855 35.928 36.6295 35.784C36.3735 35.64 36.1375 35.46 35.9215 35.244C35.7135 35.028 35.5335 34.732 35.3815 34.356C35.2295 33.98 35.1535 33.56 35.1535 33.096C35.1535 32.528 35.2535 32.036 35.4535 31.62C35.6535 31.196 35.9095 30.88 36.2215 30.672C36.5415 30.464 36.8535 30.316 37.1575 30.228C37.4695 30.132 37.7775 30.084 38.0815 30.084C38.3135 30.084 38.6935 30.128 39.2215 30.216V27.156ZM39.2215 34.056V31.452C38.7175 31.332 38.4055 31.272 38.2855 31.272C37.9095 31.272 37.5735 31.416 37.2775 31.704C36.9815 31.984 36.8335 32.4 36.8335 32.952C36.8335 33.504 36.9495 33.928 37.1815 34.224C37.4215 34.512 37.6735 34.672 37.9375 34.704L39.2215 34.056Z" fill="white"/>
</svg>
