<svg width="12" height="17" viewBox="0 0 12 17" fill="none" xmlns="http://www.w3.org/2000/svg">
<path d="M12 16.5H10.5V15C10.5 14.4033 10.2629 13.831 9.84099 13.409C9.41903 12.9871 8.84674 12.75 8.25 12.75H3.75C3.15326 12.75 2.58097 12.9871 2.15901 13.409C1.73705 13.831 1.5 14.4033 1.5 15V16.5H0V15C0 14.0054 0.395088 13.0516 1.09835 12.3483C1.80161 11.6451 2.75544 11.25 3.75 11.25H8.25C9.24456 11.25 10.1984 11.6451 10.9017 12.3483C11.6049 13.0516 12 14.0054 12 15V16.5ZM6 9.75C5.40905 9.75 4.82389 9.6336 4.27792 9.40746C3.73196 9.18131 3.23588 8.84984 2.81802 8.43198C2.40016 8.01412 2.06869 7.51804 1.84254 6.97208C1.6164 6.42611 1.5 5.84095 1.5 5.25C1.5 4.65905 1.6164 4.07389 1.84254 3.52792C2.06869 2.98196 2.40016 2.48588 2.81802 2.06802C3.23588 1.65016 3.73196 1.31869 4.27792 1.09254C4.82389 0.866396 5.40905 0.75 6 0.75C7.19347 0.75 8.33807 1.22411 9.18198 2.06802C10.0259 2.91193 10.5 4.05653 10.5 5.25C10.5 6.44347 10.0259 7.58807 9.18198 8.43198C8.33807 9.27589 7.19347 9.75 6 9.75ZM6 8.25C6.79565 8.25 7.55871 7.93393 8.12132 7.37132C8.68393 6.80871 9 6.04565 9 5.25C9 4.45435 8.68393 3.69129 8.12132 3.12868C7.55871 2.56607 6.79565 2.25 6 2.25C5.20435 2.25 4.44129 2.56607 3.87868 3.12868C3.31607 3.69129 3 4.45435 3 5.25C3 6.04565 3.31607 6.80871 3.87868 7.37132C4.44129 7.93393 5.20435 8.25 6 8.25Z" fill="#818386"/>
</svg>
