<svg width="20" height="20" viewBox="0 0 20 20" fill="none" xmlns="http://www.w3.org/2000/svg">
<path d="M5.58366 16.0833L3.29199 15.5833C3.08366 15.5416 2.91699 15.4339 2.79199 15.26C2.66699 15.0866 2.61838 14.8958 2.64616 14.6875L2.87533 12.3333L1.31283 10.5416C1.17394 10.3889 1.10449 10.2083 1.10449 9.99997C1.10449 9.79164 1.17394 9.61108 1.31283 9.4583L2.87533 7.66664L2.64616 5.31247C2.61838 5.10414 2.66699 4.9133 2.79199 4.73997C2.91699 4.56608 3.08366 4.4583 3.29199 4.41664L5.58366 3.91664L6.79199 1.87497C6.9031 1.69441 7.05588 1.57636 7.25033 1.5208C7.44477 1.46525 7.63921 1.47219 7.83366 1.54164L10.0003 2.4583L12.167 1.54164C12.3614 1.47219 12.5559 1.46525 12.7503 1.5208C12.9448 1.57636 13.0975 1.69441 13.2087 1.87497L14.417 3.91664L16.7087 4.41664C16.917 4.4583 17.0837 4.56608 17.2087 4.73997C17.3337 4.9133 17.3823 5.10414 17.3545 5.31247L17.1253 7.66664L18.6878 9.4583C18.8267 9.61108 18.8962 9.79164 18.8962 9.99997C18.8962 10.2083 18.8267 10.3889 18.6878 10.5416L17.1253 12.3333L17.3545 14.6875C17.3823 14.8958 17.3337 15.0866 17.2087 15.26C17.0837 15.4339 16.917 15.5416 16.7087 15.5833L14.417 16.0833L13.2087 18.125C13.0975 18.3055 12.9448 18.4236 12.7503 18.4791C12.5559 18.5347 12.3614 18.5277 12.167 18.4583L10.0003 17.5416L7.83366 18.4583C7.63921 18.5277 7.44477 18.5347 7.25033 18.4791C7.05588 18.4236 6.9031 18.3055 6.79199 18.125L5.58366 16.0833ZM8.54199 12.375C8.69477 12.5277 8.88921 12.6041 9.12533 12.6041C9.36144 12.6041 9.55588 12.5277 9.70866 12.375L13.2503 8.8333C13.417 8.66664 13.5003 8.46858 13.5003 8.23914C13.5003 8.01025 13.417 7.81247 13.2503 7.6458C13.0837 7.47914 12.8859 7.3958 12.657 7.3958C12.4275 7.3958 12.2295 7.47914 12.0628 7.6458L9.12533 10.5833L7.91699 9.3958C7.75033 9.24302 7.55255 9.16997 7.32366 9.17664C7.09421 9.18386 6.9031 9.26386 6.75033 9.41664C6.59755 9.56941 6.52116 9.76386 6.52116 9.99997C6.52116 10.2361 6.59755 10.4305 6.75033 10.5833L8.54199 12.375Z" fill="#FFD400"/>
</svg>
