<svg width="90" height="29" viewBox="0 0 90 29" fill="none" xmlns="http://www.w3.org/2000/svg">
<g clip-path="url(#clip0_148_2678)">
<path d="M46.5458 9.23367C46.4945 13.2573 50.1539 15.5026 52.9105 16.8376C55.7427 18.2072 56.694 19.0856 56.6828 20.3106C56.6617 22.1851 54.4236 23.0125 52.3294 23.0447C48.6756 23.1009 46.5511 22.0642 44.8622 21.2802L43.5459 27.4013C45.2405 28.1773 48.3782 28.8541 51.6319 28.8838C59.2696 28.8838 64.2663 25.1368 64.2934 19.3274C64.3233 11.9544 54.032 11.5463 54.1023 8.25081C54.1266 7.25154 55.086 6.18517 57.1883 5.91404C58.2289 5.77708 61.1016 5.67226 64.3584 7.16279L65.6367 1.2405C63.8852 0.606693 61.6342 -0.000211716 58.8315 -0.000211716C51.6428 -0.000211716 46.5866 3.79774 46.5458 9.23367ZM77.9196 0.509909C76.525 0.509909 75.3497 1.31841 74.8252 2.55912L63.9151 28.4488H71.5472L73.0659 24.2773H82.3922L83.2732 28.4488H90L84.13 0.509909H77.9196ZM78.9873 8.05725L81.1898 18.5486H75.1577L78.9873 8.05725ZM37.2923 0.510258L31.2764 28.4484H38.5492L44.5623 0.50956H37.2923M26.5335 0.50956L18.9636 19.5262L15.9015 3.35715C15.5422 1.55216 14.1233 0.509909 12.5476 0.509909H0.17332L0 1.32121C2.54039 1.86906 5.42672 2.75269 7.17539 3.69816C8.24555 4.27572 8.5507 4.7806 8.90227 6.15303L14.702 28.4488H22.3875L34.1705 0.509909L26.5335 0.50956Z" fill="url(#paint0_linear_148_2678)"/>
</g>
<defs>
<linearGradient id="paint0_linear_148_2678" x1="41.3766" y1="29.4632" x2="42.2075" y2="-0.201379" gradientUnits="userSpaceOnUse">
<stop stop-color="#222357"/>
<stop offset="1" stop-color="#254AA5"/>
</linearGradient>
<clipPath id="clip0_148_2678">
<rect width="90" height="29" fill="white"/>
</clipPath>
</defs>
</svg>
