<svg width="25" height="24" viewBox="0 0 25 24" fill="none" xmlns="http://www.w3.org/2000/svg">
<path d="M9.57923 8.48207V14.6768C9.57923 15.1207 9.78186 15.4584 10.1871 15.69C10.5924 15.9215 10.988 15.9022 11.374 15.6321L16.1792 12.5636C16.5459 12.3321 16.7292 12.004 16.7292 11.5794C16.7292 11.1549 16.5459 10.8268 16.1792 10.5952L11.374 7.5268C10.988 7.25663 10.5924 7.23733 10.1871 7.46891C9.78186 7.70049 9.57923 8.03821 9.57923 8.48207ZM12.474 23.1584C10.8722 23.1584 9.36695 22.8542 7.95818 22.246C6.54941 21.6385 5.32397 20.8136 4.28186 19.7715C3.23976 18.7294 2.41495 17.504 1.80744 16.0952C1.19916 14.6865 0.89502 13.1812 0.89502 11.5794C0.89502 9.97768 1.19916 8.47242 1.80744 7.06365C2.41495 5.65487 3.23976 4.42944 4.28186 3.38733C5.32397 2.34523 6.54941 1.52003 7.95818 0.911751C9.36695 0.304243 10.8722 0.000488281 12.474 0.000488281C14.0757 0.000488281 15.581 0.304243 16.9898 0.911751C18.3985 1.52003 19.624 2.34523 20.6661 3.38733C21.7082 4.42944 22.533 5.65487 23.1405 7.06365C23.7488 8.47242 24.0529 9.97768 24.0529 11.5794C24.0529 13.1812 23.7488 14.6865 23.1405 16.0952C22.533 17.504 21.7082 18.7294 20.6661 19.7715C19.624 20.8136 18.3985 21.6385 16.9898 22.246C15.581 22.8542 14.0757 23.1584 12.474 23.1584Z" fill="white" fill-opacity="0.9"/>
</svg>
